<svg xmlns="http://www.w3.org/2000/svg" viewBox="0 0 448 364.74"><defs><style>.cls-1{fill:#a381bd;}.cls-2{fill:#8557a7;}.cls-3{fill:#662d91;}.cls-4{fill:#c2abd3;}</style></defs><title>vc-cover-illo</title><g id="Layer_2" data-name="Layer 2"><g id="New_Symbol" data-name="New Symbol"><g id="_Group_" data-name="&lt;Group&gt;"><path class="cls-1" d="M325.79,145a2.09,2.09,0,0,0-.16-.5c-1-2.54-5.79-3.84-14.19-3.88a158.81,158.81,0,0,0-30.36,3.48,156.32,156.32,0,0,0-29.3,8.63c-8.24,3.55-12.14,6.79-11.57,9.66a2.38,2.38,0,0,0,.29.75,3.54,3.54,0,0,0,1.4,1.46c2.19,1.41,6.43,2.15,12.67,2.18H255a158,158,0,0,0,29.92-3.48,156.45,156.45,0,0,0,29.3-8.65q7.92-3.39,10.45-6.4A3.86,3.86,0,0,0,325.79,145Zm-12.23,8.06a155.46,155.46,0,0,1-29,8.54,158.57,158.57,0,0,1-30,3.45c-8.92-.06-12.4-1.59-12.69-3s2.34-4.19,10.54-7.72a155.81,155.81,0,0,1,29-8.54A156.8,156.8,0,0,1,311,142.37h.42c8.92,0,12.4,1.59,12.68,3h0C324.39,146.79,321.77,149.56,313.56,153.08Z"/><path class="cls-1" d="M249.09,283.5c-13.84-13.34-12.72-32.81-12.7-33l1.31-20.36.11-1.73,4.09-63.76.06-.77a.89.89,0,0,0-.81-.93.9.9,0,0,0-.65.24.87.87,0,0,0-.26.58L236.05,229s0,.08,0,.12l-1.36,21.23c0,.22-1.27,21.56,14.41,35.48Z"/><path class="cls-1" d="M329.83,265.36h-1.77a47.75,47.75,0,0,0,2-14.89L329,230.12l-.1-1.74-4.21-80.11-.15-2.88a.84.84,0,0,1,.8-.9.59.59,0,0,1,.3,0,.84.84,0,0,1,.61.79l5.53,105.06A49.72,49.72,0,0,1,329.83,265.36Z"/><path class="cls-1" d="M284.8,233.5a340.81,340.81,0,0,1-48-3.51.87.87,0,0,1-.73-1,.88.88,0,0,1,1-.74c32.7,4.66,63.84,4.66,92.58,0a.87.87,0,0,1,1,.72.85.85,0,0,1-.71,1A280.81,280.81,0,0,1,284.8,233.5Z"/><path class="cls-1" d="M279.64,242.79a1.25,1.25,0,1,1-1.17-1.27A1.23,1.23,0,0,1,279.64,242.79Z"/><path class="cls-1" d="M285.11,243a1.22,1.22,0,0,1-1.27,1.18,1.24,1.24,0,0,1-1.22-1.25,1.22,1.22,0,0,1,1.27-1.16A1.24,1.24,0,0,1,285.11,243Z"/><path class="cls-1" d="M290.58,243a1.25,1.25,0,0,1-2.49,0,1.25,1.25,0,0,1,2.49,0Z"/><path class="cls-1" d="M296.05,242.71a1.24,1.24,0,1,1-1.31-1.12A1.22,1.22,0,0,1,296.05,242.71Z"/><path class="cls-1" d="M301.5,242.23a1.23,1.23,0,0,1-1.12,1.33,1.19,1.19,0,0,1-1.35-1.07,1.25,1.25,0,0,1,1.12-1.33A1.22,1.22,0,0,1,301.5,242.23Z"/><path class="cls-1" d="M306.93,241.5a1.22,1.22,0,0,1-1.06,1.37,1.2,1.2,0,0,1-1.4-1,1.24,1.24,0,0,1,2.46-.37Z"/><path class="cls-1" d="M312.31,240.5a1.21,1.21,0,0,1-1,1.42,1.2,1.2,0,1,1-.48-2.36A1.24,1.24,0,0,1,312.31,240.5Z"/><path class="cls-1" d="M317.62,239.16a1.22,1.22,0,0,1-.89,1.5,1.2,1.2,0,1,1,.89-1.5Z"/><path class="cls-1" d="M322.83,237.46a1.26,1.26,0,0,1-.78,1.57,1.2,1.2,0,0,1-1.57-.75,1.23,1.23,0,0,1,.79-1.52A1.19,1.19,0,0,1,322.83,237.46Z"/><path class="cls-1" d="M280.75,250.89a1.24,1.24,0,1,1-1.16-1.27A1.24,1.24,0,0,1,280.75,250.89Z"/><path class="cls-1" d="M286.22,251.09a1.22,1.22,0,0,1-1.27,1.18,1.24,1.24,0,0,1-1.22-1.25,1.22,1.22,0,0,1,1.27-1.16A1.24,1.24,0,0,1,286.22,251.09Z"/><path class="cls-1" d="M291.69,251.06a1.25,1.25,0,0,1-2.49,0,1.24,1.24,0,0,1,1.23-1.22A1.23,1.23,0,0,1,291.69,251.06Z"/><path class="cls-1" d="M297.16,250.81a1.24,1.24,0,1,1-1.31-1.12A1.23,1.23,0,0,1,297.16,250.81Z"/><path class="cls-1" d="M302.61,250.33a1.22,1.22,0,0,1-1.12,1.33,1.19,1.19,0,0,1-1.35-1.07,1.23,1.23,0,0,1,1.12-1.32A1.21,1.21,0,0,1,302.61,250.33Z"/><path class="cls-1" d="M308,249.6a1.24,1.24,0,0,1-2.46.37,1.24,1.24,0,0,1,2.46-.37Z"/><path class="cls-1" d="M313.42,248.6a1.21,1.21,0,0,1-1,1.42,1.2,1.2,0,1,1-.48-2.36A1.24,1.24,0,0,1,313.42,248.6Z"/><path class="cls-1" d="M318.73,247.26a1.24,1.24,0,0,1-2.4.63,1.21,1.21,0,0,1,.9-1.46A1.23,1.23,0,0,1,318.73,247.26Z"/><path class="cls-1" d="M323.94,245.56a1.25,1.25,0,0,1-.78,1.57,1.2,1.2,0,0,1-1.57-.75,1.23,1.23,0,0,1,.8-1.52A1.19,1.19,0,0,1,323.94,245.56Z"/><path class="cls-1" d="M279.5,259.59a1.2,1.2,0,0,1-1.32,1.12,1.22,1.22,0,0,1-1.16-1.28,1.24,1.24,0,0,1,2.48.16Z"/><path class="cls-1" d="M285,259.78a1.24,1.24,0,1,1-1.21-1.23A1.23,1.23,0,0,1,285,259.78Z"/><path class="cls-1" d="M290.45,259.75a1.25,1.25,0,0,1-2.49.05,1.25,1.25,0,0,1,2.49-.05Z"/><path class="cls-1" d="M295.92,259.51a1.25,1.25,0,0,1-2.49.13,1.22,1.22,0,0,1,1.18-1.25A1.23,1.23,0,0,1,295.92,259.51Z"/><path class="cls-1" d="M301.37,259a1.23,1.23,0,0,1-1.12,1.33,1.2,1.2,0,0,1-1.36-1.07A1.26,1.26,0,0,1,300,258,1.22,1.22,0,0,1,301.37,259Z"/><path class="cls-1" d="M306.79,258.29a1.24,1.24,0,0,1-2.46.37,1.24,1.24,0,0,1,1.06-1.37A1.22,1.22,0,0,1,306.79,258.29Z"/><path class="cls-1" d="M312.18,257.3a1.2,1.2,0,0,1-1,1.41,1.2,1.2,0,1,1-.47-2.36A1.25,1.25,0,0,1,312.18,257.3Z"/><path class="cls-1" d="M317.49,256a1.22,1.22,0,0,1-.89,1.5,1.24,1.24,0,0,1-1.52-.86,1.21,1.21,0,0,1,.9-1.46A1.24,1.24,0,0,1,317.49,256Z"/><path class="cls-1" d="M322.69,254.25a1.25,1.25,0,0,1-.78,1.58,1.21,1.21,0,0,1-1.57-.75,1.25,1.25,0,0,1,.8-1.53A1.19,1.19,0,0,1,322.69,254.25Z"/></g><path class="cls-1" d="M140.35,105.26a.86.86,0,0,1-.69,1l-.67.14a32.61,32.61,0,0,0-25.72,31.95V206.6l-1.72-1.72V138.35a34.33,34.33,0,0,1,27.3-33.68l.49-.11A.87.87,0,0,1,140.35,105.26Z"/><path class="cls-1" d="M232.26,138.35v76.77a34.27,34.27,0,0,1-34.09,34.37H156.29l-1.73-1.73h43.61a32.54,32.54,0,0,0,32.37-32.64V138.35a32.77,32.77,0,0,0-28.7-32.43c-.27,0-.55-.06-.82-.09a.88.88,0,0,1-.78-.94.87.87,0,0,1,.95-.78h.05A34.51,34.51,0,0,1,232.26,138.35Z"/><path class="cls-1" d="M149.54,101.48c-.38,0-.76.09-1.13.15-6.86.94-9,2-9.56,3a1.4,1.4,0,0,0-.2.76,1.49,1.49,0,0,0,.34,1c.75,1,3,2,9.42,2.84l1.13.15v-1.76c-5.27-.66-8.45-1.5-9.12-2.2.67-.69,3.85-1.54,9.12-2.19Zm51.7,2.63c-1-.86-3.46-1.72-9.08-2.48a172.18,172.18,0,0,0-21.88-1.23c-2.9,0-5.75.06-8.46.16v1.75c2.61-.11,5.44-.16,8.46-.16,17.54,0,28.56,1.91,29.87,3.28-1.31,1.38-12.33,3.29-29.87,3.29-3,0-5.85-.06-8.46-.16v1.74c2.71.11,5.56.16,8.46.16a172.37,172.37,0,0,0,21.88-1.22c7.47-1,9.32-2.21,9.68-3.32a1.18,1.18,0,0,0,.08-.49A1.61,1.61,0,0,0,201.24,104.11Z"/><path class="cls-1" d="M220.08,125.47a1.27,1.27,0,0,1-1.64-.24,1.31,1.31,0,0,1,.12-1.66,1.13,1.13,0,0,1,1.74.15A1.17,1.17,0,0,1,220.08,125.47Z"/><path class="cls-1" d="M222.2,130.4a1.23,1.23,0,0,1-.78-2.32,1.18,1.18,0,0,1,1.55.75A1.2,1.2,0,0,1,222.2,130.4Z"/><path class="cls-1" d="M223.27,135.68a1.21,1.21,0,0,1-1.35-1,1.25,1.25,0,0,1,1-1.4,1.19,1.19,0,0,1,1.4,1A1.23,1.23,0,0,1,223.27,135.68Z"/><path class="cls-1" d="M223.68,141.05a1.19,1.19,0,0,1-1.22-1.16,1.2,1.2,0,0,1,1.1-1.29,1.23,1.23,0,0,1,.12,2.45Z"/><path class="cls-1" d="M223.74,146.44a1.23,1.23,0,1,1,1.19-1.22A1.21,1.21,0,0,1,223.74,146.44Z"/><path class="cls-1" d="M223.74,151.84a1.23,1.23,0,1,1,1.19-1.23A1.21,1.21,0,0,1,223.74,151.84Z"/><path class="cls-1" d="M223.74,157.23a1.23,1.23,0,1,1,1.19-1.22A1.21,1.21,0,0,1,223.74,157.23Z"/><path class="cls-1" d="M223.74,162.63a1.23,1.23,0,1,1,1.19-1.23A1.21,1.21,0,0,1,223.74,162.63Z"/><path class="cls-1" d="M223.74,168a1.23,1.23,0,1,1,1.19-1.22A1.21,1.21,0,0,1,223.74,168Z"/><path class="cls-1" d="M223.74,173.42a1.23,1.23,0,1,1,1.19-1.23A1.21,1.21,0,0,1,223.74,173.42Z"/><path class="cls-1" d="M223.74,178.81a1.23,1.23,0,1,1,1.19-1.23A1.21,1.21,0,0,1,223.74,178.81Z"/><path class="cls-1" d="M223.74,184.21a1.23,1.23,0,1,1,1.19-1.23A1.21,1.21,0,0,1,223.74,184.21Z"/><path class="cls-1" d="M223.74,189.6a1.23,1.23,0,1,1,1.19-1.23A1.21,1.21,0,0,1,223.74,189.6Z"/><path class="cls-1" d="M223.74,195a1.23,1.23,0,1,1,1.19-1.22A1.2,1.2,0,0,1,223.74,195Z"/><path class="cls-1" d="M223.74,200.39a1.23,1.23,0,1,1,1.19-1.23A1.21,1.21,0,0,1,223.74,200.39Z"/><path class="cls-1" d="M223.74,205.78a1.23,1.23,0,1,1,1.19-1.22A1.21,1.21,0,0,1,223.74,205.78Z"/><path class="cls-1" d="M223.74,211.18a1.23,1.23,0,1,1,1.19-1.23A1.21,1.21,0,0,1,223.74,211.18Z"/><path class="cls-1" d="M223.74,216.57a1.23,1.23,0,1,1,1.19-1.22A1.21,1.21,0,0,1,223.74,216.57Z"/><path class="cls-1" d="M211.29,127.37a1.24,1.24,0,0,1-1.62.3,1.28,1.28,0,0,1-.36-1.62,1.14,1.14,0,0,1,1.68-.39A1.17,1.17,0,0,1,211.29,127.37Z"/><path class="cls-1" d="M214.64,131.37A1.2,1.2,0,0,1,213,131a1.24,1.24,0,0,1,.27-1.63,1.16,1.16,0,0,1,1.7.27A1.2,1.2,0,0,1,214.64,131.37Z"/><path class="cls-1" d="M216.52,136.26a1.2,1.2,0,0,1-.69-2.29,1.2,1.2,0,1,1,.69,2.29Z"/><path class="cls-1" d="M217.2,141.47a1.19,1.19,0,1,1,1.14-1.29A1.21,1.21,0,0,1,217.2,141.47Z"/><path class="cls-1" d="M217.26,146.74a1.2,1.2,0,1,1,1.19-1.2A1.19,1.19,0,0,1,217.26,146.74Z"/><path class="cls-1" d="M217.26,152a1.2,1.2,0,1,1,1.19-1.19A1.19,1.19,0,0,1,217.26,152Z"/><path class="cls-1" d="M217.26,157.27a1.2,1.2,0,1,1,1.19-1.2A1.19,1.19,0,0,1,217.26,157.27Z"/><path class="cls-1" d="M217.26,162.54a1.2,1.2,0,1,1,1.19-1.2A1.19,1.19,0,0,1,217.26,162.54Z"/><path class="cls-1" d="M217.26,167.81a1.2,1.2,0,1,1,1.19-1.2A1.19,1.19,0,0,1,217.26,167.81Z"/><path class="cls-1" d="M217.26,173.07a1.2,1.2,0,1,1,1.19-1.19A1.19,1.19,0,0,1,217.26,173.07Z"/><path class="cls-1" d="M217.26,178.34a1.2,1.2,0,1,1,1.19-1.2A1.19,1.19,0,0,1,217.26,178.34Z"/><path class="cls-1" d="M217.26,183.61a1.2,1.2,0,1,1,1.19-1.2A1.19,1.19,0,0,1,217.26,183.61Z"/><path class="cls-1" d="M217.26,188.88a1.2,1.2,0,1,1,1.19-1.2A1.19,1.19,0,0,1,217.26,188.88Z"/><path class="cls-1" d="M217.26,194.14a1.2,1.2,0,1,1,1.19-1.19A1.19,1.19,0,0,1,217.26,194.14Z"/><path class="cls-1" d="M217.26,199.41a1.2,1.2,0,1,1,1.19-1.2A1.19,1.19,0,0,1,217.26,199.41Z"/><ellipse class="cls-1" cx="134.21" cy="218.8" rx="5.01" ry="1.49"/><ellipse class="cls-1" cx="89.44" cy="218.8" rx="5.01" ry="1.49"/><path class="cls-1" d="M153.94,219.69l-.06,0c-.93-8.12-21.79-12.49-41.47-12.49s-40.56,4.38-41.47,12.5l-.06,0-.17,30.9c0,9.75,18.32,17.4,41.7,17.4s41.7-7.65,41.7-17.4ZM73.41,225c6.21,5.45,23,8.35,39,8.35s32.79-2.9,39-8.35v10.4c-24.24,12-50.48,12-78,.23Zm39-15.42c23.1,0,39.19,5.65,39.19,10.71a2.63,2.63,0,0,1-.15.82l0,0v.12c-1.86,4.79-17.35,9.75-39,9.75-23.09,0-39.19-5.64-39.19-10.71S89.32,209.57,112.41,209.57Zm0,55.7c-23.33,0-39-7.59-39-14.68V238.15q20.49,8.61,40,8.64a87.06,87.06,0,0,0,38-8.82v12.62C151.41,257.68,135.74,265.27,112.41,265.27Z"/><path class="cls-1" d="M76.45,222.7a.85.85,0,0,0,1.21-.34.94.94,0,0,0-.33-1.21.89.89,0,0,0-1.19.33A.88.88,0,0,0,76.45,222.7Z"/><path class="cls-1" d="M80,224.44a.84.84,0,0,0,1.14-.49.91.91,0,0,0-.46-1.16.89.89,0,0,0-1.15.48A.88.88,0,0,0,80,224.44Z"/><path class="cls-1" d="M83.69,225.79a.87.87,0,0,0,1.1-.59.89.89,0,0,0-.57-1.11.9.9,0,0,0-1.1.59A.88.88,0,0,0,83.69,225.79Z"/><path class="cls-1" d="M87.44,226.86a.89.89,0,0,0,.42-1.73.86.86,0,0,0-1,.64A.88.88,0,0,0,87.44,226.86Z"/><path class="cls-1" d="M91.23,227.7a.88.88,0,0,0,1-.71.87.87,0,1,0-1.71-.34A.88.88,0,0,0,91.23,227.7Z"/><path class="cls-1" d="M95.05,228.37a.89.89,0,0,0,.27-1.76.86.86,0,0,0-1,.74A.88.88,0,0,0,95.05,228.37Z"/><path class="cls-1" d="M98.9,228.88a.88.88,0,0,0,1-.79.9.9,0,0,0-.77-1,.9.9,0,0,0-.19,1.78Z"/><path class="cls-1" d="M102.75,229.25a.88.88,0,0,0,.94-.82.91.91,0,0,0-.8-1,.89.89,0,0,0-.14,1.78Z"/><path class="cls-1" d="M106.61,229.5a.88.88,0,0,0,.91-.86.87.87,0,0,0-.83-.92.89.89,0,0,0-.08,1.78Z"/><path class="cls-1" d="M110.48,229.62a.9.9,0,0,0,0-1.79.9.9,0,0,0-.89.88A.88.88,0,0,0,110.48,229.62Z"/><path class="cls-1" d="M114.35,229.62a.87.87,0,0,0,.86-.9.9.9,0,0,0-.89-.88.89.89,0,0,0-.86.9A.88.88,0,0,0,114.35,229.62Z"/><path class="cls-1" d="M118.21,229.51a.89.89,0,0,0-.08-1.78.89.89,0,0,0-.83.93A.87.87,0,0,0,118.21,229.51Z"/><path class="cls-1" d="M122.07,229.27a.89.89,0,0,0,.81-1,.88.88,0,1,0-1.75.14A.88.88,0,0,0,122.07,229.27Z"/><path class="cls-1" d="M125.93,228.91a.89.89,0,0,0-.2-1.77.89.89,0,0,0,.2,1.77Z"/><path class="cls-1" d="M129.77,228.4a.89.89,0,0,0,.73-1,.88.88,0,0,0-1-.75.9.9,0,0,0-.73,1A.87.87,0,0,0,129.77,228.4Z"/><path class="cls-1" d="M133.59,227.73a.88.88,0,0,0,.69-1,.88.88,0,1,0-1.72.34A.88.88,0,0,0,133.59,227.73Z"/><path class="cls-1" d="M137.39,226.87a.89.89,0,0,0,.63-1.08.87.87,0,0,0-1.06-.64.9.9,0,0,0-.64,1.07A.86.86,0,0,0,137.39,226.87Z"/><path class="cls-1" d="M141.14,225.8a.88.88,0,0,0,.55-1.13.87.87,0,1,0-.55,1.13Z"/><path class="cls-1" d="M144.81,224.43a.86.86,0,0,0,.46-1.16.89.89,0,0,0-1.15-.48.9.9,0,0,0-.46,1.16A.86.86,0,0,0,144.81,224.43Z"/><path class="cls-1" d="M148.35,222.68a.86.86,0,0,0,.32-1.21.88.88,0,0,0-1.19-.33.92.92,0,0,0-.32,1.21A.83.83,0,0,0,148.35,222.68Z"/><path class="cls-1" d="M187,336.08c-30.61,0-55.51-17.31-55.51-38.59s24.9-38.58,55.51-38.58,55.51,17.31,55.51,38.58S217.6,336.08,187,336.08Zm0-75.41c-29.65,0-53.76,16.52-53.76,36.82s24.11,36.83,53.76,36.83,53.76-16.52,53.76-36.83S216.63,260.67,187,260.67Z"/><path class="cls-1" d="M187,340.17c-21.33,0-40.59-9.34-48-23.23a.87.87,0,1,1,1.54-.83c7.06,13.34,25.71,22.3,46.41,22.3,19.41,0,36.45-7.7,44.46-20.08a.87.87,0,0,1,1.21-.26.89.89,0,0,1,.25,1.22C224.59,332.17,207,340.17,187,340.17Z"/><path class="cls-1" d="M139.46,285.13a.67.67,0,0,1-.33-.88.65.65,0,0,1,.89-.31.66.66,0,1,1-.56,1.19Z"/><path class="cls-1" d="M138.41,287.83a.66.66,0,0,1-.4-.85.65.65,0,0,1,.85-.39.66.66,0,1,1-.45,1.24Z"/><path class="cls-1" d="M137.61,290.6a.66.66,0,1,1,.33-1.27.67.67,0,0,1,.47.81A.66.66,0,0,1,137.61,290.6Z"/><path class="cls-1" d="M137.05,293.45a.68.68,0,0,1-.56-.77.67.67,0,1,1,.56.77Z"/><path class="cls-1" d="M136.78,296.33a.66.66,0,0,1-.63-.7.64.64,0,0,1,.71-.61.66.66,0,0,1,.61.7A.65.65,0,0,1,136.78,296.33Z"/><path class="cls-1" d="M136.83,299.22a.67.67,0,0,1-.72-.62.67.67,0,0,1,1.33-.06A.65.65,0,0,1,136.83,299.22Z"/><path class="cls-1" d="M137.21,302.09a.65.65,0,0,1-.78-.53.68.68,0,0,1,.56-.77.66.66,0,0,1,.22,1.3Z"/><path class="cls-1" d="M138,304.89a.63.63,0,0,1-.82-.43.65.65,0,0,1,.45-.83.67.67,0,0,1,.82.43A.69.69,0,0,1,138,304.89Z"/><path class="cls-1" d="M139.07,307.56a.66.66,0,0,1-.88-.32.64.64,0,0,1,.33-.88.66.66,0,0,1,.55,1.2Z"/><path class="cls-1" d="M140.51,310.06a.64.64,0,0,1-.92-.19.69.69,0,0,1,.23-.93.66.66,0,0,1,.9.21A.7.7,0,0,1,140.51,310.06Z"/><path class="cls-1" d="M142.25,312.36a.64.64,0,0,1-.93-.08.65.65,0,0,1,.09-.93.69.69,0,0,1,.94.09A.66.66,0,0,1,142.25,312.36Z"/><path class="cls-1" d="M144.22,314.47a.64.64,0,0,1-.93,0,.67.67,0,0,1,.94-1A.69.69,0,0,1,144.22,314.47Z"/><path class="cls-1" d="M146.4,316.35a.66.66,0,0,1-.93.12.69.69,0,0,1-.08-1,.65.65,0,0,1,1,.83Z"/><path class="cls-1" d="M148.74,318a.67.67,0,0,1-.93.19.65.65,0,0,1-.16-.92.67.67,0,0,1,.92-.18A.66.66,0,0,1,148.74,318Z"/><path class="cls-1" d="M151.19,319.55a.67.67,0,0,1-.91.26.66.66,0,0,1-.23-.91.68.68,0,0,1,.9-.25A.66.66,0,0,1,151.19,319.55Z"/><path class="cls-1" d="M153.73,320.9a.67.67,0,0,1-.89.31.65.65,0,0,1-.29-.89.69.69,0,0,1,.89-.31A.67.67,0,0,1,153.73,320.9Z"/><ellipse class="cls-1" cx="175.27" cy="283.44" rx="2.43" ry="2.45"/><ellipse class="cls-1" cx="183.01" cy="283.66" rx="2.43" ry="2.45"/><ellipse class="cls-1" cx="190.75" cy="283.88" rx="2.43" ry="2.45"/><ellipse class="cls-1" cx="198.49" cy="284.11" rx="2.43" ry="2.45"/><path class="cls-1" d="M216.86,270.48a.68.68,0,0,1-1.2-.62.65.65,0,0,1,.9-.29A.67.67,0,0,1,216.86,270.48Z"/><path class="cls-1" d="M219.44,272a.66.66,0,0,1-.91.23.67.67,0,1,1,.91-.23Z"/><path class="cls-1" d="M222,273.56a.67.67,0,0,1-.93.18.68.68,0,0,1-.2-.93.66.66,0,0,1,.93-.19A.69.69,0,0,1,222,273.56Z"/><path class="cls-1" d="M224.37,275.29a.68.68,0,0,1-.94.13.67.67,0,1,1,.79-1.08A.69.69,0,0,1,224.37,275.29Z"/><path class="cls-1" d="M226.68,277.16a.68.68,0,0,1-.94.08.7.7,0,0,1-.1-.95.66.66,0,0,1,1-.08A.67.67,0,0,1,226.68,277.16Z"/><path class="cls-1" d="M228.87,279.18a.66.66,0,0,1-.93,0,.69.69,0,0,1,0-.95.66.66,0,0,1,.95,0A.69.69,0,0,1,228.87,279.18Z"/><path class="cls-1" d="M230.92,281.34a.68.68,0,0,1-.91-1,.68.68,0,0,1,.91,1Z"/><path class="cls-1" d="M232.76,283.69a.66.66,0,0,1-.93-.15.7.7,0,0,1,.12-.94.65.65,0,0,1,.94.14A.68.68,0,0,1,232.76,283.69Z"/><path class="cls-1" d="M234.38,286.2a.69.69,0,0,1-.93-.24.68.68,0,0,1,.22-.92.68.68,0,0,1,.71,1.16Z"/><path class="cls-1" d="M235.67,288.89a.67.67,0,0,1-.87-.35.7.7,0,0,1,.32-.89.65.65,0,0,1,.89.34A.68.68,0,0,1,235.67,288.89Z"/><path class="cls-1" d="M236.63,291.72a.71.71,0,0,1-.84-.46.69.69,0,0,1,.44-.84.67.67,0,0,1,.84.46A.65.65,0,0,1,236.63,291.72Z"/><path class="cls-1" d="M237.13,294.67a.66.66,0,0,1-.72-.59.69.69,0,0,1,.55-.76.64.64,0,0,1,.76.58A.68.68,0,0,1,237.13,294.67Z"/><path class="cls-1" d="M237.23,297.65a.69.69,0,0,1-.66-.69.68.68,0,0,1,.67-.67.66.66,0,0,1,.66.69A.65.65,0,0,1,237.23,297.65Z"/><path class="cls-1" d="M236.87,300.62a.68.68,0,0,1-.53-.77.65.65,0,0,1,.73-.57.69.69,0,0,1,.58.78A.66.66,0,0,1,236.87,300.62Z"/><path class="cls-1" d="M236.1,303.51a.68.68,0,0,1-.42-.84.71.71,0,0,1,.83-.46.66.66,0,0,1,.45.85A.69.69,0,0,1,236.1,303.51Z"/><path class="cls-1" d="M235,306.29a.68.68,0,0,1,.55-1.24.65.65,0,0,1,.34.88A.67.67,0,0,1,235,306.29Z"/><path class="cls-1" d="M233.63,308.94a.68.68,0,0,1,.67-1.19.68.68,0,0,1-.67,1.19Z"/><path class="cls-1" d="M232,311.46a.7.7,0,0,1-.17-.94.69.69,0,0,1,.93-.19.68.68,0,0,1-.76,1.13Z"/><path class="cls-1" d="M230.25,313.85a.68.68,0,0,1-.1-1,.69.69,0,0,1,.94-.12.66.66,0,0,1,.1,1A.67.67,0,0,1,230.25,313.85Z"/><path class="cls-1" d="M231,289.09a.7.7,0,0,1-.85-1.1.66.66,0,0,1,1,.12A.68.68,0,0,1,231,289.09Z"/><path class="cls-1" d="M232.56,291.75a.69.69,0,0,1-.89-.33.71.71,0,0,1,.26-.92.7.7,0,0,1,.63,1.25Z"/><path class="cls-1" d="M233.51,294.67a.7.7,0,0,1-.81-.51.72.72,0,0,1,.45-.84.7.7,0,0,1,.36,1.35Z"/><path class="cls-1" d="M233.79,297.73a.71.71,0,0,1-.67-.68.72.72,0,0,1,.63-.72.7.7,0,0,1,0,1.4Z"/><path class="cls-1" d="M233.4,300.78a.7.7,0,0,1,.25-1.37.66.66,0,0,1,.54.81A.67.67,0,0,1,233.4,300.78Z"/><path class="cls-1" d="M232.41,303.69a.7.7,0,0,1-.35-.89.66.66,0,1,1,1.23.49A.65.65,0,0,1,232.41,303.69Z"/><path class="cls-1" d="M231,306.4a.68.68,0,0,1-.2-.93.67.67,0,0,1,.9-.28.7.7,0,0,1,.24,1A.68.68,0,0,1,231,306.4Z"/><path class="cls-1" d="M229.19,308.9a.69.69,0,0,1-.1-.95.67.67,0,0,1,.94-.16.69.69,0,0,1,.11,1A.64.64,0,0,1,229.19,308.9Z"/><path class="cls-1" d="M227.16,311.21a.7.7,0,0,1,0-1,.69.69,0,0,1,1-.05.7.7,0,0,1-1,1Z"/><path class="cls-1" d="M225,313.34a.67.67,0,0,1,.07-.95.66.66,0,0,1,.95,0,.71.71,0,0,1,0,1A.67.67,0,0,1,225,313.34Z"/><path class="cls-1" d="M102.05,325.15a.88.88,0,0,1,0-1.76c4.17,0,4.73-2.47,5.29-6.5.48-3.47,1.08-7.78,6.65-7.78,5.87,0,8.24,3.33,10.14,6,1.46,2,2.61,3.65,4.91,3.65h12.69a.88.88,0,0,1,0,1.76H129c-3.2,0-4.79-2.23-6.32-4.39-1.85-2.59-3.76-5.27-8.73-5.27-3.85,0-4.38,2.38-4.92,6.26C108.57,320.7,108,325.15,102.05,325.15Z"/><path class="cls-2" d="M261.09,134a1.9,1.9,0,0,1-1.89-1.9V86.74a1.89,1.89,0,1,1,3.77,0v45.33A1.89,1.89,0,0,1,261.09,134Z"/><path class="cls-2" d="M270.35,124.17a1.9,1.9,0,0,1-1.89-1.9V96.54a1.89,1.89,0,1,1,3.78,0v25.73A1.9,1.9,0,0,1,270.35,124.17Z"/><path class="cls-2" d="M279.61,117.43a1.89,1.89,0,0,1-1.88-1.9V103.28a1.89,1.89,0,1,1,3.77,0v12.25A1.9,1.9,0,0,1,279.61,117.43Z"/><path class="cls-2" d="M251.83,124.17a1.89,1.89,0,0,1-1.89-1.9V96.54a1.89,1.89,0,1,1,3.77,0v25.73A1.89,1.89,0,0,1,251.83,124.17Z"/><path class="cls-2" d="M242.56,117.43a1.89,1.89,0,0,1-1.88-1.9V103.28a1.89,1.89,0,1,1,3.77,0v12.25A1.89,1.89,0,0,1,242.56,117.43Z"/><path class="cls-2" d="M57.18,221.38a1.48,1.48,0,0,1-1.47-1.49V184.38a1.48,1.48,0,1,1,2.95,0v35.51A1.49,1.49,0,0,1,57.18,221.38Z"/><path class="cls-2" d="M64.44,213.7A1.49,1.49,0,0,1,63,212.21V192.06a1.48,1.48,0,1,1,3,0v20.15A1.49,1.49,0,0,1,64.44,213.7Z"/><path class="cls-2" d="M71.69,208.42a1.48,1.48,0,0,1-1.47-1.49v-9.6a1.48,1.48,0,1,1,3,0v9.6A1.49,1.49,0,0,1,71.69,208.42Z"/><path class="cls-2" d="M49.93,213.7a1.49,1.49,0,0,1-1.48-1.49V192.06a1.48,1.48,0,1,1,3,0v20.15A1.49,1.49,0,0,1,49.93,213.7Z"/><path class="cls-2" d="M42.68,208.42a1.49,1.49,0,0,1-1.48-1.49v-9.6a1.48,1.48,0,1,1,2.95,0v9.6A1.48,1.48,0,0,1,42.68,208.42Z"/><path class="cls-2" d="M60.93,114.36V96.27a9.51,9.51,0,0,0-9.45-9.54H28.88a9.51,9.51,0,0,0-9.45,9.54v56.38a9.51,9.51,0,0,0,9.45,9.54h22.6a9.51,9.51,0,0,0,9.45-9.54V141.88H59.29v10.77c0,.09,0,.17,0,.26-14.08.07-34.11.12-38.17,0a2.77,2.77,0,0,1,0-.3V97.2H59.29v17.16Zm-32-26h22.6a7.82,7.82,0,0,1,7.74,7.16H21.14A7.82,7.82,0,0,1,28.88,88.39ZM32,154.65c5.78,0,14.35,0,27-.09a7.82,7.82,0,0,1-7.55,6H28.88a7.82,7.82,0,0,1-7.55-6C22.82,154.62,25.81,154.65,32,154.65Z"/><path class="cls-2" d="M36.08,93.07h7.1a.83.83,0,0,0,0-1.65h-7.1a.83.83,0,0,0,0,1.65Z"/><path class="cls-2" d="M36.08,158.15h7.1a.83.83,0,0,0,0-1.65h-7.1a.83.83,0,0,0,0,1.65Z"/><path class="cls-2" d="M27.9,93.34a1.1,1.1,0,1,0-1.1-1.1A1.09,1.09,0,0,0,27.9,93.34Z"/><path class="cls-2" d="M48.37,158.42a1.1,1.1,0,1,0-1.09-1.1A1.09,1.09,0,0,0,48.37,158.42Z"/><path class="cls-2" d="M30.9,158.42a1.1,1.1,0,1,0-1.09-1.1A1.09,1.09,0,0,0,30.9,158.42Z"/><path class="cls-3" d="M91.67,93a.43.43,0,0,1-.28-.76A167.87,167.87,0,0,1,199.51,52.7a165.67,165.67,0,0,1,76,18.21.43.43,0,1,1-.39.77,164.84,164.84,0,0,0-75.59-18.12A167,167,0,0,0,92,92.93.42.42,0,0,1,91.67,93Z"/><path class="cls-3" d="M42.51,284a.44.44,0,0,1-.41-.28,172.38,172.38,0,0,1-4.56-108.32.45.45,0,0,1,.54-.3.43.43,0,0,1,.29.54,171.41,171.41,0,0,0,4.54,107.77.44.44,0,0,1-.25.56Z"/><path class="cls-3" d="M349.09,300.71a.32.32,0,0,1-.19,0,.42.42,0,0,1-.19-.58,168.56,168.56,0,0,0,18.51-77.34A172.59,172.59,0,0,0,365.29,197a.43.43,0,0,1,.86-.13,174.23,174.23,0,0,1,1.93,25.86,169.49,169.49,0,0,1-18.6,77.74A.43.43,0,0,1,349.09,300.71Z"/><path class="cls-3" d="M361.44,177.86a1,1,0,0,1-.91-.7,168.85,168.85,0,0,0-17.89-41.64,1,1,0,0,1,1.63-1,170.47,170.47,0,0,1,18.08,42.12.94.94,0,0,1-.66,1.16A1,1,0,0,1,361.44,177.86Z"/><path class="cls-3" d="M102.45,76.51l-5-7.29.29-.2,4.94,7.33ZM107.86,73l-4.7-7.49.29-.17,4.66,7.51Zm5.67-3.39L109,62l.16-.09,4.55,7.58Zm5.52-3L115,58.73l.26-.13,4.13,7.81ZM274.88,64l3.79-8,.16.08Zm-150-.34-3.82-8,.31-.14,3.77,8Zm144.44-2.24-.33-.15,3.59-8.08.24.11ZM130.73,61l-3.54-8.1.33-.14L131,60.87Zm132.55-2.07L263,58.8l3.22-8.23.32.12Zm-126.5-.42-3.3-8.2.27-.1L137,58.4Zm120.46-1.85-.31-.11,2.95-8.33.29.1Zm-114.48-.35-2.9-8.35.31-.1,2.88,8.35Zm108.33-1.7-.28-.08,2.61-8.45.32.1Zm-102.18-.3-2.6-8.45.32-.1,2.56,8.46Zm96-1.5-.32-.08,2.31-8.54.29.08Zm-89.8-.27L152.86,44l.29-.07,2.28,8.54Zm83.53-1.3-.31-.07,2-8.62.31.07ZM161.4,51l-2-8.62.31-.07,1.95,8.62Zm70.91-1.1-.32-.06,1.67-8.68.29,0Zm-64.58-.2L166.09,41l.35-.07,1.56,8.7Zm58.23-.9-.35-.05L227,40l.27,0Zm-51.87-.15-1.29-8.75.31,0,1.29,8.74Zm45.43-.71-.31,0,1-8.78.32,0Zm-39-.12-1-8.78.32,0,.94,8.79Zm32.59-.5-.31,0,.66-8.81.32,0ZM187,47.22l-.65-8.82.28,0,.68,8.82Zm19.68-.31h-.32l.34-8.83H207Zm-13.27,0L193.09,38h.29l.34,8.84Zm6.78-.11h-.29V37.93h.34Z"/><path class="cls-3" d="M26.18,282.87l-.09-.26,8.35-2.89.12.34Zm-2.06-6.43-.11-.35,8.49-2.47.07.25Zm-1.84-6.55-.08-.3,8.55-2.25.08.32Zm-1.6-6.61-.07-.3,8.63-1.91.07.31Zm-1.35-6.66,0-.25L28,254.69l.07.36Zm-1.11-6.7,0-.26,8.73-1.34.06.36Zm-.85-6.69,0-.37,8.79-.9,0,.26Zm-.62-6.77,0-.37,8.82-.56,0,.26Zm-.37-6.78v-.31L25.2,229l0,.31Zm8.71-6.79H16.26v-.32h8.83Zm.12-6.46-8.84-.34v-.26l8.84.22Zm.34-6.46-8.82-.67,0-.26,8.82.56Zm.59-6.61-8.81-.77,0-.18,8.81.76Zm.8-6.29-8.76-1.23.06-.36L27,196.81Z"/><path class="cls-3" d="M367.47,296.75l-8.1-3.54.11-.26,8.13,3.48Zm2.61-6.34-8.27-3.12.14-.36,8.22,3.25Zm2.34-6.33-8.35-2.89.1-.3,8.35,2.89Zm2.12-6.47-8.46-2.56.1-.31,8.45,2.58Zm1.87-6.48-8.52-2.34.06-.25,8.55,2.23Zm1.65-6.66-8.63-1.89.09-.37,8.6,2Zm1.4-6.65-8.7-1.57.07-.36,8.68,1.67Zm1.14-6.65-8.74-1.34.05-.31,8.74,1.34Zm.91-6.74-8.78-1,0-.32,8.78,1Zm.66-6.77-8.82-.66,0-.32,8.81.67Zm.41-6.73-8.83-.44v-.26l8.84.33Zm-8.66-6.85v-.18l8.83-.14V224Zm-.07-6.46v-.37l8.83-.23v.26Zm-.3-6.45,0-.38,8.82-.56,0,.26Z"/><path class="cls-3" d="M362.36,159.61l-.12-.3,8.25-3.19.09.25Zm-2.43-6-.12-.28,8.13-3.48.12.3Zm-2.65-5.93-.11-.24,8-3.8.16.34Zm-2.82-5.75-.16-.31,7.86-4,.13.24Zm-3.09-5.75-.13-.24,7.69-4.35.17.3Z"/><g id="_Group_2" data-name="&lt;Group&gt;"><path class="cls-2" d="M322.37,108.21c.08.33,2.11,8.12,6.77,8.12s7.57-6.46,7.7-6.73a.7.7,0,0,0,0-.6c-.09-.19-2.41-4.67-6.5-5.22-2.57-.35-5.19.93-7.8,3.8A.69.69,0,0,0,322.37,108.21Zm7.77-3.08c2.84.38,4.77,3.27,5.32,4.2-.62,1.22-3.11,5.64-6.32,5.64-2.83,0-4.74-4.57-5.37-6.74C326,105.9,328.11,104.85,330.14,105.13Z"/><path class="cls-2" d="M365.45,78.56a7.07,7.07,0,0,0-1.21.11l-.15-1.22a.94.94,0,0,0-1.06-.81,1,1,0,0,0-.81,1.07c.1.74.18,1.5.25,2.24l.1,1.23,1.15-.41a5.31,5.31,0,0,1,1.73-.31c3.64,0,6.6,3.84,6.6,8.56s-3,8.56-6.6,8.56a5.25,5.25,0,0,1-2.68-.75l-1.09-.64-.3,1.24c-6.24,25.8-20.37,31.22-31.13,31.22-8.06,0-27.38-3-32.74-30.7l-.21-1.1-1,.39a5.12,5.12,0,0,1-1.84.34c-3.64,0-6.6-3.84-6.6-8.56s3-8.56,6.6-8.56a5.14,5.14,0,0,1,1.21.15l1.06.26.1-1.1a42.07,42.07,0,0,1,3.65-13.9,1,1,0,0,0-.46-1.26.94.94,0,0,0-1.26.46A43.83,43.83,0,0,0,295,78.59c-4.95-.45-9.07,4.42-9.07,10.43,0,5.77,3.8,10.46,8.48,10.46a7.07,7.07,0,0,0,1.45-.15c1.85,8.54,9.15,31.22,34.38,31.22,9.77,0,17.78-4,23.82-12,3.85-5.08,6.83-11.65,8.86-19.54a6.83,6.83,0,0,0,2.52.47c4.68,0,8.49-4.69,8.49-10.46S370.13,78.56,365.45,78.56Z"/><path class="cls-2" d="M318.33,67.81l1.9,0c7.68-.27,15.47-4,22.53-10.64A54.16,54.16,0,0,0,351.17,47l.52-.86-.88-.48c-.68-.37-16.82-9-33.31-5.8C303,42.71,300.34,54.29,299.86,57.64h-6l1.06,1.5C295.17,59.51,301.26,67.81,318.33,67.81Zm-16.72-8.27,0-.91c0-.56.82-13.88,16.21-16.86,13.64-2.65,27.48,3.38,31.13,5.14-2.55,3.76-13.5,18.44-28.83,19-9.13.32-15.09-1.84-18.49-3.7a20.13,20.13,0,0,1-3.78-2.64Z"/><path class="cls-2" d="M363.67,75.37l.08-1.13c.05-.63.93-15.65-11.73-24.41L351,51.4c9.79,6.77,10.85,17.92,10.93,21.54-9.46-2.84-13.39-10.23-15-16.06l-1.81.52c1.82,6.54,6.34,14.92,17.53,17.7Z"/><path class="cls-2" d="M291.5,84.93a6,6,0,0,0-1.79,4.73.94.94,0,1,0,1.88,0,4.24,4.24,0,0,1,1.15-3.29,4,4,0,0,1,2.83-.84,1,1,0,0,0,.23-1.89A5.87,5.87,0,0,0,291.5,84.93Z"/><path class="cls-2" d="M369.75,90.6h.1a.94.94,0,0,0,.94-.85,5,5,0,0,0-1.26-4.17c-2.22-2.3-6.49-2-6.67-2a.95.95,0,0,0,.15,1.89c1-.08,3.85,0,5.17,1.39a3.05,3.05,0,0,1,.73,2.63A1,1,0,0,0,369.75,90.6Z"/><path class="cls-2" d="M330.61,76.73a.93.93,0,0,0-1.23.52l-6.92,17.12a1,1,0,0,0,.09.89,1,1,0,0,0,.79.42h7.54a1,1,0,0,0,0-1.9h-6.14L331.12,78A1,1,0,0,0,330.61,76.73Z"/><path class="cls-2" d="M351.62,84.67c-4,3.67-7.92,3.67-11.94,0a.94.94,0,0,0-1.33.07,1,1,0,0,0,.07,1.34,9.69,9.69,0,0,0,14.46,0,1,1,0,0,0,.07-1.34A.94.94,0,0,0,351.62,84.67Z"/><path class="cls-2" d="M316.42,84.67c-4,3.67-7.92,3.67-11.94,0a.94.94,0,0,0-1.33.07,1,1,0,0,0,.07,1.34,9.69,9.69,0,0,0,14.46,0,1,1,0,0,0,.07-1.34A.94.94,0,0,0,316.42,84.67Z"/><path class="cls-2" d="M314.89,63.3a16.58,16.58,0,0,0,4.86.72c4.93,0,10.22-2.09,15.55-6.18A50.77,50.77,0,0,0,344.2,49a.94.94,0,0,0-.18-1.33.93.93,0,0,0-1.32.18c-.13.18-13.59,17.81-27.26,13.61a1,1,0,0,0-.55,1.82Z"/><path class="cls-2" d="M351.66,47.7a1,1,0,0,0-.14,1.34.93.93,0,0,0,.73.35.92.92,0,0,0,.59-.2s2.73-2.13,4.65-1.16a.94.94,0,0,0,1.26-.43,1,1,0,0,0-.42-1.28,5.08,5.08,0,0,0-4-.09,7,7,0,0,0,.25-4.87.94.94,0,0,0-1.22-.55,1,1,0,0,0-.54,1.23c.81,2.14-.94,5-1,5a.94.94,0,0,0-.15.58Z"/></g><path class="cls-2" d="M375.25,203.15l26.43-15.39a2.45,2.45,0,0,0,0-4.22l-26.43-15.39a2.41,2.41,0,0,0-3.62,2.11v9.06a2.43,2.43,0,0,1-2.42,2.44h-28a2.43,2.43,0,0,0-2.42,2.44v2.9a2.42,2.42,0,0,0,2.42,2.43h28a2.43,2.43,0,0,1,2.42,2.44V201A2.42,2.42,0,0,0,375.25,203.15Z"/><path class="cls-2" d="M339.55,222.13l19.66-11.45a1.82,1.82,0,0,0,0-3.14l-19.66-11.45a1.8,1.8,0,0,0-2.7,1.57v6.74a1.8,1.8,0,0,1-1.8,1.81H314.2a1.81,1.81,0,0,0-1.8,1.82v2.16a1.8,1.8,0,0,0,1.8,1.81h20.85a1.8,1.8,0,0,1,1.8,1.81v6.75A1.8,1.8,0,0,0,339.55,222.13Z"/><path class="cls-2" d="M173.28,94.9,158,68.25a2.41,2.41,0,0,0-4.18,0L138.58,94.9a2.44,2.44,0,0,0,2.09,3.66h9a2.42,2.42,0,0,1,2.41,2.44v28.27a2.43,2.43,0,0,0,2.42,2.44h2.88a2.42,2.42,0,0,0,2.41-2.44V101a2.43,2.43,0,0,1,2.42-2.44h9A2.44,2.44,0,0,0,173.28,94.9Z"/><path class="cls-2" d="M194,133l-11.35-19.83a1.79,1.79,0,0,0-3.12,0L168.16,133a1.82,1.82,0,0,0,1.56,2.72h6.69a1.81,1.81,0,0,1,1.79,1.82v21a1.81,1.81,0,0,0,1.8,1.82h2.14a1.81,1.81,0,0,0,1.8-1.82v-21a1.81,1.81,0,0,1,1.8-1.82h6.68A1.81,1.81,0,0,0,194,133Z"/><rect class="cls-2" x="339.99" y="234.47" width="6.29" height="6.34"/><rect class="cls-2" x="348.79" y="237.64" width="8.17" height="8.24"/><rect class="cls-1" x="340.62" y="244.61" width="6.91" height="6.97"/><rect class="cls-2" x="108.68" y="86.1" width="6.29" height="6.34"/><rect class="cls-2" x="117.48" y="89.27" width="8.17" height="8.24"/><path class="cls-4" d="M228.12,87.16H191.84V64.77h36.28Zm-35.47-.82h34.66V65.59H192.65Z"/><polygon class="cls-2" points="205.29 70.97 205.29 80.44 214.68 75.7 205.29 70.97"/><rect class="cls-2" x="197.2" y="88.85" width="25.56" height="1.05"/><path class="cls-2" d="M401.26,140c-3.08,0-5.59-3-5.59-6.7v-2.53l-.11-52.87c0-2.6-1.69-4.8-3.7-4.8s-3.7,2.2-3.7,4.8l.12,50.76c0,3.7-2.51,6.71-5.59,6.71s-5.58-3-5.58-6.7V112.23H363.57a1,1,0,1,1,0-1.9h14a1,1,0,0,1,1.44.81v17.53c0,2.6,1.69,4.79,3.69,4.79s3.7-2.15,3.7-4.79l-.11-50.77c0-3.69,2.5-6.7,5.58-6.7s5.58,3,5.58,6.7l.12,55.4c0,2.64,1.66,4.79,3.7,4.79S405,135.9,405,133.3l.11-46.91c0-3.43,2.33-6.21,5.19-6.21H411c2.86,0,5.19,2.78,5.19,6.21l.12,42.27c0,2.61,1.69,4.8,3.69,4.8s3.7-2.15,3.7-4.79V111.28a.94.94,0,0,1,.94-1h14.38a1,1,0,0,1,0,1.9H425.63v16.44c0,3.69-2.51,6.7-5.59,6.7s-5.58-3-5.58-6.7l-.11-42.28c0-2.34-1.52-4.31-3.31-4.31h-.79c-1.79,0-3.3,2-3.3,4.31l-.11,46.91C406.84,137,404.33,140,401.26,140Z"/><path class="cls-2" d="M75.79,140.49c-2.16,0-3.91-2.09-3.91-4.67L71.8,98.7c0-1.65-1-3-2.3-3s-2.3,1.39-2.3,3l.07,34c0,2.58-1.76,4.67-3.92,4.67s-3.92-2.09-3.92-4.67V121.88h-8.9a.81.81,0,0,1-.81-.81.82.82,0,0,1,.81-.82h9.34a.84.84,0,0,1,1.18.72v11.75c0,1.65,1.06,3,2.3,3s2.3-1.39,2.3-3l-.07-34c0-2.58,1.76-4.67,3.92-4.67s3.92,2.09,3.92,4.67l.07,37.12c0,1.65,1.06,3,2.3,3s2.31-1.39,2.31-3l.07-31.44c0-2.39,1.64-4.34,3.66-4.34h.53c2,0,3.65,1.95,3.65,4.34l.08,28.34c0,1.65,1,3,2.3,3s2.3-1.39,2.3-3V121.07a.82.82,0,0,1,.81-.82h9.63a.82.82,0,0,1,.81.82.81.81,0,0,1-.81.81H92.31v10.84c0,2.58-1.76,4.67-3.92,4.67s-3.92-2.09-3.92-4.67l-.08-28.33c0-1.48-.93-2.72-2-2.72h-.53c-1.11,0-2,1.24-2,2.71l-.08,31.45C79.71,138.4,78,140.49,75.79,140.49Z"/><path class="cls-1" d="M65.83,290.71a2.35,2.35,0,0,0-.77.12,2.08,2.08,0,0,0-.63.38,2.43,2.43,0,0,0-.64,1.07.71.71,0,0,0,.46.89.39.39,0,0,0,.21,0,.71.71,0,0,0,.68-.49.86.86,0,0,1,.23-.44.27.27,0,0,1,.15-.08.65.65,0,0,1,.32-.06.7.7,0,0,0,.7-.71A.71.71,0,0,0,65.83,290.71Z"/><path class="cls-1" d="M79.76,286.67a16.82,16.82,0,0,0-6.93,0,.71.71,0,0,0,.16,1.41.32.32,0,0,0,.14,0,16,16,0,0,1,6.39,0,.71.71,0,1,0,.24-1.39Z"/><path class="cls-1" d="M93.63,286.29A5,5,0,0,0,93,284.8a2.87,2.87,0,0,0-.9-.93l-.09-.06a.71.71,0,0,0-.94.36.7.7,0,0,0,.22.87l.11.06a2.07,2.07,0,0,1,.42.48,3.47,3.47,0,0,1,.45,1.05,2.17,2.17,0,0,1-.24,1.76l-.21.26.07-.28a2.45,2.45,0,0,0-.5-2.18,1.38,1.38,0,0,0-1-.38,1.76,1.76,0,0,0-.92.34,1.48,1.48,0,0,0-.71,1.45,2.62,2.62,0,0,0,.6,1.33,2.25,2.25,0,0,0,.21.24l.14.14-.15.07a1.53,1.53,0,0,1-.82.1l-.25,0-.28-.45a11.15,11.15,0,0,0-1-1.33c-3-3.27-8.47-4.74-13.91-3.93l-.66.12-.08-.2a6.36,6.36,0,0,0-5.93-2.87.7.7,0,0,0-.57.85l.28,1.29-.25-.08a5.55,5.55,0,0,0-3.52.26.73.73,0,0,0-.39.87,16.15,16.15,0,0,0,1.47,3.25l.4.62-.11.08a17.38,17.38,0,0,0-2.08,2.12l-1.07,1.47-1.55.08a.71.71,0,0,0-.67.71v7.18a.71.71,0,0,0,.71.71H61l.67,1.21a12.2,12.2,0,0,0,3.13,3.47l.76.54.36.44c.76,1,.53,2.06.21,3.41a.71.71,0,0,0,.68.87h4.83a.71.71,0,0,0,.71-.72,3.28,3.28,0,0,1,6.53.08.71.71,0,0,0,.71.72H84.8a.71.71,0,0,0,.67-.93,4.78,4.78,0,0,1-.18-2.7l.23-.6.92-.69c4.1-3.55,4.68-9.68,2.85-14.24l-.09-.2.3,0a2.84,2.84,0,0,0,1.41-.69l0-.06.09,0a1.8,1.8,0,0,0,.63.12,1.24,1.24,0,0,0,.74-.28A3.53,3.53,0,0,0,93.63,286.29Zm-3.22,1,0,.08a.89.89,0,0,1,.06.32.67.67,0,0,1,0,.2l0,.18h0a1.25,1.25,0,0,1-.29-.58s0-.06.06-.12Zm-6.12,18a5.29,5.29,0,0,0-.46,3.21l.08.34H80.26l0-.34a4.81,4.81,0,0,0-9.15-.06l0,.32H67.72l.07-.3a4.23,4.23,0,0,0-1.23-4,.5.5,0,0,0-.11-.1,11.83,11.83,0,0,1-4.36-5.12.72.72,0,0,0-.64-.4H60V293L61.2,293a.66.66,0,0,0,.56-.33c5.91-9.34,19.39-9.44,24.41-3.95,3.75,4.11,3.9,12.67-1.63,16.3A.91.91,0,0,0,84.29,305.29ZM67.73,282.23a5.05,5.05,0,0,1,2.9,1.4l.53.62-.56.16c-.3.08-.6.18-.89.27l-.45.18v0A4.38,4.38,0,0,0,68,283.67l0,0-.31-1.44Zm-.61,3.58c-.56.3-1.1.64-1.64,1l-.3.21-.59-.95a14.13,14.13,0,0,1-.7-1.48l-.12-.34.06,0a4.88,4.88,0,0,1,2.32.18,4.52,4.52,0,0,1,1.34.65l.41.38Z"/><path class="cls-1" d="M76.33,281.5A5.46,5.46,0,1,0,70.92,276,5.44,5.44,0,0,0,76.33,281.5ZM73,276a3.29,3.29,0,1,1,3.29,3.32A3.31,3.31,0,0,1,73,276Z"/><g id="_Group_3" data-name="&lt;Group&gt;"><path class="cls-2" d="M92.39,172a9,9,0,0,0-1.33-3.21l1.22-1.22-2.7-2.72-1.23,1.23a9.19,9.19,0,0,0-3.2-1.3V163.3H81.33v1.5a9.19,9.19,0,0,0-3,1.29L77,164.79l-2.7,2.72,1.29,1.3A8.84,8.84,0,0,0,74.31,172H72.57v3.85h1.77a9,9,0,0,0,1.29,3.07l-1.21,1.22,2.7,2.72,1.22-1.24a9,9,0,0,0,3,1.26v1.53h3.82v-1.48a9.23,9.23,0,0,0,3.16-1.28l1.16,1.17,2.7-2.72L91,178.94a9.37,9.37,0,0,0,1.32-3.11H94V172Zm-9,8.42a6.57,6.57,0,1,1,6.56-6.57A6.58,6.58,0,0,1,83.35,180.4Z"/></g><g id="_Group_4" data-name="&lt;Group&gt;"><path class="cls-2" d="M105.06,182.78a6.15,6.15,0,0,0-.9-2.19l.82-.83-1.84-1.86-.83.84a6.19,6.19,0,0,0-2.19-.88v-1h-2.6v1a6.09,6.09,0,0,0-2.06.88l-.88-.89-1.84,1.85.88.89a6,6,0,0,0-.88,2.16H91.56v2.62h1.2a6,6,0,0,0,.88,2.09l-.83.83,1.84,1.86.84-.85a6.1,6.1,0,0,0,2,.86v1h2.6v-1a6.1,6.1,0,0,0,2.16-.87l.79.8,1.84-1.85-.77-.78a6.35,6.35,0,0,0,.9-2.12h1.12v-2.62Zm-6.16,5.73a4.48,4.48,0,1,1,4.47-4.47A4.48,4.48,0,0,1,98.9,188.51Z"/></g><path class="cls-2" d="M313.84,333.69a1,1,0,0,1-.77-.38l-9.9-13.53h-46.9a5.25,5.25,0,0,1-5.22-5.27V272.76a5.25,5.25,0,0,1,5.22-5.26H322.4a5.25,5.25,0,0,1,5.23,5.26v41.75a5.26,5.26,0,0,1-5.23,5.27h-7.61v13a1,1,0,0,1-.66.9A.92.92,0,0,1,313.84,333.69Zm-57.57-64.3a3.36,3.36,0,0,0-3.33,3.37v41.75a3.36,3.36,0,0,0,3.33,3.37h47.39a1,1,0,0,1,.76.39l8.47,11.58v-11a1,1,0,0,1,.95-.95h8.56a3.36,3.36,0,0,0,3.34-3.37V272.76a3.36,3.36,0,0,0-3.34-3.37Z"/><rect class="cls-2" x="83.49" y="143.32" width="6.29" height="6.34"/><rect class="cls-2" x="92.29" y="146.49" width="8.17" height="8.24"/><rect class="cls-2" x="84.12" y="153.47" width="6.91" height="6.97"/></g></g></svg>