<svg xmlns="http://www.w3.org/2000/svg" viewBox="0 0 1393.9 931.09"><defs><style>.cls-1{fill:#1b459d;}.cls-2{fill:#1a4b9f;}.cls-3{fill:#1850a2;}.cls-4{fill:#1756a4;}.cls-5{fill:#165ba6;}.cls-6{fill:#1561a9;}.cls-7{fill:#1367ab;}.cls-8{fill:#126cad;}.cls-9{fill:#1172b0;}.cls-10{fill:#0f78b2;}.cls-11{fill:#0e7db4;}.cls-12{fill:#0d83b7;}.cls-13{fill:#0c88b9;}.cls-14{fill:#0a8ebb;}.cls-15{fill:#0994be;}.cls-16{fill:#0899c0;}.cls-17{fill:#069fc2;}.cls-18{fill:#05a5c5;}.cls-19{fill:#04aac7;}.cls-20{fill:#03b0c9;}.cls-21{fill:#01b5cc;}.cls-22{fill:#00bbce;}</style></defs><title>Asset 2</title><g id="Layer_2" data-name="Layer 2"><g id="Icons_and_Form_Fields" data-name="Icons and Form Fields"><path class="cls-1" d="M1.45,3.26C12.9,3.43,19.74,17,23.86,25.88c8.2,17.64,12.87,37,17.11,55.91,11.79,52.48,18.65,106,26.85,159.13,7.29,47.24,13.41,96.43,29.49,141.69,5.7,16,22.14,52.5,43.71,32,10.09-9.59,15.14-24.62,19.35-37.49,6.95-21.25,11.53-43.29,15.7-65.23,10.29-54.18,17.26-108.94,26.2-163.35,4.06-24.72,8.41-49.43,14.19-73.81,4.26-18,8.95-36.59,17.55-53,4.32-8.26,11.91-20.45,23-18.12C268.46,6,274.82,21,278.78,30.46c7.81,18.73,12.47,38.83,16.7,58.63,5.43,25.42,9.69,51.07,13.74,76.74,8.52,53.87,15.44,108.09,26.49,161.53,4.21,20.38,8.86,41,16.42,60.43,4.18,10.74,9.74,24.43,20.34,30.46,24.42,13.88,38.12-32.06,42.63-46.94,14.54-48,21-98.67,28.51-148.15,7.88-51.87,14.61-104.33,27.42-155.28,4.28-17,9-34.85,18-50,4.75-8,13-17.93,23.5-13.46,11.32,4.86,17.12,20.48,21.1,31C541,55,545.64,75.57,549.83,96c11,53.77,17.94,108.3,26.54,162.47,4.06,25.53,8.33,51,13.81,76.32,4.22,19.43,8.9,39.11,16.67,57.46,4.19,9.9,10.19,23,21,27.17,9.46,3.65,17.82-2.46,23.28-9.81,9.52-12.8,14.37-29.27,18.64-44.41,6.37-22.61,10.84-45.74,14.94-68.85,9.68-54.54,16.66-109.51,26.1-164.09,4.11-23.8,8.58-47.62,14.83-71,4.27-15.95,9-33.12,18.48-46.9,5.41-7.87,14.19-14.72,23.62-8.77,11.23,7.09,16.61,23.24,20.7,35,15.82,45.73,22,95.14,29.32,142.76,8.12,52.76,15,106,26.8,158.06,4.24,18.62,9,37.59,17,55,4.28,9.2,10.8,21.44,21.73,23.76,10.13,2.15,17.95-6.08,22.91-13.82,9-14.08,13.79-31.06,18-47.07,13.3-50.16,20-102.1,27.73-153.32,7.63-50.3,14.18-101.52,28.15-150.55,3.84-13.5,19.26-68.35,43-47.95,10.83,9.31,15.88,25.67,20.05,38.76,6.81,21.31,11.35,43.34,15.48,65.3,10.22,54.25,17.19,109.05,26.19,163.5,4.06,24.6,8.42,49.19,14.24,73.44,4.26,17.69,9,35.94,17.47,52.16,4.43,8.48,11.42,19.33,22.11,19.87s17.84-9.27,22.47-17.47c8.72-15.46,13.48-33.26,17.74-50.36,6-24.1,10.41-48.58,14.51-73.06,9.1-54.31,16.06-109,26-163.15,4.15-22.54,8.7-45.15,15.42-67.09,4.2-13.74,9.11-30.07,19.58-40.53,23-23,39.15,28.68,43.35,42.82,14.38,48.32,20.86,99.11,28.41,148.82,7.85,51.7,14.57,104,27.51,154.77,4.14,16.24,8.8,33.08,17.09,47.78,4.55,8.07,11.43,17.35,21.64,17.49,1.93,0,1.93-3,0-3C1381,417.4,1374.16,403.81,1370,395c-8.21-17.64-12.87-37-17.12-55.91-11.79-52.48-18.64-106-26.84-159.13-7.3-47.24-13.42-96.44-29.49-141.69-5.7-16-22.15-52.5-43.72-32-10.09,9.59-15.14,24.62-19.35,37.49C1226.57,65,1222,87,1217.82,109c-10.29,54.18-17.26,108.94-26.21,163.35-4.06,24.72-8.4,49.43-14.19,73.81-4.26,18-9,36.58-17.55,53.05-4.31,8.26-11.91,20.45-23,18.12-11.44-2.4-17.8-17.42-21.76-26.91-7.81-18.74-12.47-38.84-16.69-58.63-5.43-25.42-9.7-51.08-13.75-76.74-8.51-53.87-15.44-108.1-26.48-161.53-4.22-20.38-8.87-41-16.43-60.43-4.18-10.75-9.73-24.43-20.34-30.46C997-11.3,983.29,34.64,978.78,49.52c-14.54,48-21,98.67-28.51,148.15C942.39,249.53,935.66,302,922.84,353c-4.27,17-9,34.85-18,50-4.76,8-13.06,17.93-23.5,13.45-11.32-4.85-17.12-20.47-21.1-31-7.39-19.56-12-40.18-16.19-60.62-11-53.76-17.94-108.29-26.55-162.46-4-25.53-8.33-51.06-13.81-76.33C799.48,66.6,794.8,46.92,787,28.56c-4.19-9.89-10.18-23-21-27.17-9.47-3.65-17.82,2.47-23.28,9.82-9.52,12.8-14.38,29.27-18.65,44.41-6.37,22.61-10.84,45.74-14.94,68.85C699.47,179,692.49,234,683.06,288.56c-4.12,23.8-8.58,47.62-14.83,71-4.27,15.94-9,33.12-18.48,46.89-5.41,7.88-14.19,14.73-23.63,8.78-11.22-7.09-16.61-23.25-20.69-35.05-15.82-45.72-22-95.13-29.33-142.75-8.12-52.77-15-106-26.8-158.06-4.23-18.62-8.95-37.59-17-55C528,15.16,521.46,2.93,510.52.61c-10.12-2.15-17.95,6.08-22.91,13.82-9,14.08-13.78,31.06-18,47.07-13.29,50.16-20,102.1-27.72,153.32-7.63,50.29-14.18,101.52-28.15,150.55-3.84,13.5-19.26,68.35-43,47.95-10.83-9.32-15.87-25.67-20.05-38.76-6.8-21.31-11.35-43.35-15.48-65.31C325,255,318,200.21,309,145.76c-4.07-24.6-8.42-49.19-14.25-73.44-4.25-17.7-9-35.94-17.47-52.16C272.86,11.68,265.87.83,255.18.29s-17.84,9.27-22.46,17.46C224,33.21,219.24,51,215,68.12c-6,24.09-10.41,48.58-14.51,73.06-9.1,54.31-16.06,109-26,163.15-4.15,22.54-8.7,45.15-15.42,67.09-4.2,13.74-9.11,30.07-19.58,40.52-23,23-39.14-28.68-43.35-42.81C81.71,320.81,75.23,270,67.68,220.31c-7.85-51.7-14.57-104-27.5-154.77C36,49.3,31.38,32.45,23.08,17.75,18.53,9.69,11.65.41,1.45.26a1.5,1.5,0,0,0,0,3Z"/><path class="cls-2" d="M1.45,47.44c11.27.16,18.19,12.83,22.46,21.61,8.16,16.74,12.85,35.24,17.1,53.29,11.76,49.9,18.62,100.9,26.82,151.47,7.29,45,13.47,91.93,29.47,134.83,6,16.05,22.26,49.69,43.53,30.7,10-9,15.23-23.39,19.49-35.77,6.94-20.17,11.53-41.14,15.7-62C186.31,290,193.28,237.87,202.21,186.1c4.06-23.55,8.4-47.1,14.16-70.3,4.3-17.3,9-35.25,17.69-51,4.48-8.14,12.08-19.26,22.91-17.15,11.25,2.2,17.71,16.28,21.8,25.58,7.8,17.76,12.47,37,16.7,55.82,5.47,24.38,9.76,49,13.85,73.67,8.49,51.25,15.41,102.87,26.47,153.66,4.22,19.39,8.9,39,16.43,57.4,4.23,10.33,9.91,23.23,20.28,28.85,24,13,37.66-29.3,42.5-44.45,14.53-45.52,21-93.77,28.51-140.81C451.4,208,458.16,158,470.89,109.47,475.2,93.08,480,75.81,489,61.3c4.89-7.84,13.12-16.89,23.34-12.87,11.29,4.45,17.29,19.49,21.36,29.81,7.35,18.59,12,38.27,16.16,57.78,10.92,50.93,17.86,102.65,26.42,154,4.08,24.51,8.38,49,13.91,73.26,4.22,18.5,8.93,37.22,16.65,54.62,4.25,9.6,10.37,21.91,20.93,25.85,9.39,3.52,17.82-2.21,23.42-9.46,9.25-11.95,14.16-27.41,18.41-41.7,6.44-21.62,10.94-43.81,15.07-66,9.68-51.88,16.66-104.22,26.08-156.15,4.08-22.52,8.51-45.06,14.67-67.12,4.3-15.41,9.12-32.08,18.6-45.24,5.57-7.73,14.34-14,23.71-8.43,11,6.6,16.6,22,20.73,33.43,15.73,43.38,22,90.55,29.29,135.9,8.14,50.4,15,101.25,26.9,150.94,4.24,17.7,9,35.75,17.05,52.15,4.37,8.89,10.91,20.15,21.48,22.4,10,2.12,17.87-5.49,23-13.1,8.95-13.24,13.77-29.44,18-44.67,13.28-47.61,20-97.09,27.72-145.81,7.63-47.93,14.21-96.81,28.1-143.43,4.13-13.89,19.43-65.28,43.06-46.08,10.68,8.68,15.88,24.33,20.09,36.87,6.84,20.42,11.42,41.61,15.59,62.72,10.18,51.61,17.15,103.8,26.15,155.62,4.07,23.39,8.42,46.78,14.25,69.81,4.26,16.84,9,34.23,17.45,49.54,4.56,8.28,11.59,18.33,22,18.86s17.78-8.67,22.56-16.76c8.55-14.48,13.33-31.3,17.57-47.45,6-22.87,10.42-46.14,14.52-69.42,9.15-51.88,16.13-104.15,26.12-155.89,4.15-21.49,8.71-43,15.41-63.89,4.22-13.17,9.25-28.82,19.58-38.64,22.84-21.72,38.93,26.43,43.45,40.94,14.31,45.9,20.82,94.36,28.37,141.71,7.85,49.2,14.58,99.06,27.49,147.25,4.15,15.47,8.83,31.51,17,45.39,4.69,7.94,11.63,16.64,21.69,16.79a1.5,1.5,0,0,0,0-3c-11.27-.17-18.19-12.84-22.47-21.61-8.15-16.75-12.85-35.25-17.1-53.3-11.75-49.9-18.62-100.9-26.82-151.46-7.29-45-13.47-91.93-29.47-134.84-6-16-22.26-49.69-43.53-30.7-10,9-15.24,23.4-19.49,35.78-6.94,20.16-11.53,41.14-15.7,62-10.3,51.54-17.26,103.67-26.19,155.44-4.06,23.56-8.41,47.1-14.17,70.31-4.29,17.29-9,35.24-17.69,51-4.47,8.13-12.07,19.26-22.9,17.14-11.26-2.19-17.72-16.28-21.81-25.58-7.8-17.76-12.46-36.95-16.7-55.81-5.47-24.39-9.76-49-13.84-73.67-8.5-51.25-15.42-102.87-26.47-153.66-4.22-19.39-8.9-39-16.44-57.4-4.23-10.34-9.91-23.24-20.28-28.85-24-13-37.66,29.29-42.5,44.45-14.53,45.52-21,93.76-28.51,140.81-7.89,49.42-14.65,99.46-27.38,147.94-4.31,16.38-9.09,33.65-18.14,48.16-4.89,7.84-13.13,16.9-23.35,12.87-11.28-4.44-17.28-19.48-21.36-29.8-7.34-18.6-12-38.28-16.15-57.78-10.93-50.94-17.86-102.66-26.42-154-4.08-24.51-8.39-49-13.91-73.25-4.22-18.5-8.93-37.23-16.65-54.63-4.26-9.59-10.37-21.9-20.93-25.85-9.4-3.51-17.83,2.22-23.43,9.46-9.25,12-14.15,27.41-18.41,41.7-6.43,21.62-10.94,43.81-15.07,66-9.67,51.88-16.65,104.23-26.07,156.16-4.09,22.52-8.52,45.05-14.67,67.11-4.3,15.41-9.13,32.09-18.6,45.24-5.57,7.74-14.34,14-23.71,8.44-11.06-6.61-16.6-22.05-20.73-33.43-15.74-43.39-22-90.56-29.3-135.9-8.14-50.4-15-101.26-26.9-151-4.24-17.69-9-35.75-17-52.14-4.37-8.89-10.92-20.16-21.48-22.4-10-2.12-17.88,5.49-23,13.09-8.94,13.25-13.76,29.44-18,44.68-13.28,47.61-20,97.08-27.72,145.8-7.63,47.93-14.21,96.81-28.1,143.43-4.13,13.89-19.43,65.28-43.06,46.08-10.68-8.68-15.88-24.32-20.08-36.86-6.85-20.43-11.43-41.61-15.59-62.72-10.19-51.62-17.16-103.81-26.16-155.63-4.06-23.39-8.42-46.78-14.24-69.8-4.26-16.84-9-34.23-17.46-49.55-4.55-8.27-11.58-18.33-22-18.86s-17.78,8.68-22.55,16.76c-8.56,14.49-13.33,31.3-17.57,47.45-6,22.87-10.43,46.15-14.53,69.42C191.43,230,184.45,282.24,174.46,334c-4.16,21.49-8.71,43-15.41,63.9-4.23,13.17-9.25,28.81-19.58,38.63-22.84,21.72-38.92-26.42-43.45-40.93-14.3-45.91-20.82-94.36-28.37-141.71-7.84-49.21-14.57-99.06-27.49-147.26C36,91.15,31.34,75.1,23.14,61.22,18.45,53.29,11.5,44.58,1.45,44.44c-1.93,0-1.93,3,0,3Z"/><path class="cls-3" d="M1.45,91.61c11.05.16,18,11.87,22.47,20.51,8.17,15.94,12.92,33.71,17.2,51,11.72,47.45,18.61,96,26.83,144.18C75.24,350,81.47,394.76,97.51,435.24c6.37,16.07,22.53,46.28,43.28,28.69,9.85-8.36,15.12-21.94,19.42-33.73,6.91-19,11.51-38.85,15.67-58.6,10.33-49,17.31-98.57,26.23-147.79,4.09-22.53,8.45-45.06,14.24-67.22,4.29-16.45,9.09-33.52,17.64-48.35,4.67-8.11,12.4-18.46,23.13-16.36C268,94,274.51,107,278.71,116c7.84,16.89,12.55,35.28,16.8,53.33,5.45,23.09,9.73,46.44,13.81,69.8,8.5,48.75,15.44,97.88,26.5,146.13C340,403.5,344.68,421.9,352,439.18c4.32,10.14,10.18,22.61,20.53,27.92,23.52,12,37.24-26.84,42.42-42.24,14.51-43.16,21-89.16,28.55-133.92,7.87-46.84,14.64-94.29,27.28-140.14,4.31-15.64,9.14-32.09,18.06-45.82,5.08-7.8,13.41-16.24,23.56-12.4,11.07,4.18,17.17,18.3,21.35,28.35,7.38,17.74,12,36.62,16.23,55.31,10.9,48.44,17.85,97.7,26.44,146.58,4.07,23.19,8.37,46.37,13.88,69.27,4.19,17.38,8.89,35,16.44,51.22,4.35,9.37,10.58,21,21,24.79,9.19,3.31,17.63-1.83,23.36-8.84,9.17-11.2,14.16-25.91,18.45-39.53,6.41-20.4,10.92-41.4,15-62.37,9.7-49.32,16.7-99.13,26.11-148.51,4.11-21.54,8.56-43.1,14.75-64.15,4.3-14.67,9.19-30.56,18.55-42.91,5.78-7.63,14.65-13.35,24-7.94,10.83,6.3,16.48,20.92,20.68,32,15.55,41,21.86,85.83,29.17,128.85,8.15,47.93,15,96.34,26.94,143.52,4.24,16.77,9,33.89,17,49.32,4.49,8.69,11.16,19.27,21.55,21.33,9.72,1.92,17.58-5,22.84-12.36,8.92-12.51,13.83-28,18.11-42.6,13.21-45,19.91-91.88,27.64-138,7.64-45.64,14.27-92.26,28.11-136.54,4.48-14.34,19.79-62.14,43.25-43.85,10.48,8.17,15.8,23,20,35.1,6.8,19.32,11.37,39.43,15.53,59.45,10.19,49.08,17.17,98.75,26.19,148,4.09,22.32,8.47,44.65,14.34,66.58,4.26,15.92,9.07,32.4,17.42,46.73,4.68,8,11.72,17.25,21.86,17.77s17.53-7.86,22.44-15.69c8.57-13.65,13.41-29.74,17.68-45.15,6-21.61,10.4-43.64,14.49-65.67,9.17-49.35,16.16-99.1,26.15-148.29,4.15-20.41,8.7-40.87,15.34-60.63,4.27-12.7,9.45-27.77,19.71-37,22.59-20.38,38.59,24,43.46,38.87,14.28,43.55,20.84,89.76,28.4,134.83,7.85,46.78,14.6,94.25,27.54,140,4.14,14.63,8.85,29.81,16.92,42.81,4.83,7.77,11.83,15.87,21.71,16,1.93,0,1.93-3,0-3-11.06-.16-18-11.87-22.47-20.51-8.18-15.94-12.92-33.7-17.2-51-11.73-47.45-18.62-96-26.84-144.18-7.29-42.67-13.51-87.45-29.56-127.93-6.37-16.07-22.53-46.28-43.28-28.69-9.85,8.36-15.13,21.94-19.42,33.73-6.91,19-11.51,38.85-15.68,58.6-10.33,49-17.31,98.57-26.23,147.79-4.08,22.53-8.45,45.06-14.23,67.22-4.3,16.45-9.09,33.52-17.64,48.35-4.68,8.12-12.4,18.46-23.13,16.36-10.91-2.13-17.4-15.07-21.59-24.1-7.85-16.89-12.55-35.28-16.81-53.33-5.45-23.09-9.73-46.44-13.8-69.8-8.51-48.75-15.45-97.88-26.51-146.13-4.18-18.26-8.86-36.66-16.21-53.94-4.32-10.14-10.17-22.61-20.52-27.92-23.53-12.05-37.25,26.84-42.43,42.24-14.51,43.16-21,89.16-28.55,133.92-7.87,46.84-14.64,94.29-27.28,140.15-4.31,15.63-9.15,32.08-18.07,45.81-5.07,7.81-13.4,16.24-23.55,12.4-11.08-4.18-17.18-18.3-21.36-28.35-7.37-17.74-12-36.62-16.23-55.31C833,333.1,826,283.84,817.43,235c-4.08-23.19-8.37-46.37-13.89-69.27-4.18-17.38-8.88-35-16.43-51.22-4.35-9.37-10.58-21-21-24.79-9.19-3.31-17.62,1.83-23.35,8.84-9.18,11.2-14.17,25.91-18.45,39.53-6.42,20.4-10.92,41.4-15.05,62.37-9.7,49.32-16.69,99.13-26.1,148.51-4.11,21.54-8.57,43.1-14.75,64.15-4.31,14.67-9.19,30.56-18.55,42.91-5.78,7.63-14.65,13.35-24,7.94-10.83-6.3-16.48-20.92-20.67-32-15.56-41-21.86-85.83-29.18-128.85-8.15-47.93-15-96.34-26.94-143.52-4.24-16.77-9-33.89-17-49.32C527.65,101.58,521,91,510.59,88.94c-9.72-1.92-17.58,5-22.83,12.36-8.92,12.51-13.83,28-18.11,42.6-13.21,45-19.91,91.88-27.64,138-7.64,45.64-14.27,92.26-28.11,136.54-4.48,14.34-19.78,62.14-43.25,43.85-10.48-8.17-15.8-23.05-20-35.1-6.8-19.32-11.37-39.43-15.53-59.45-10.19-49.08-17.17-98.75-26.19-148-4.09-22.32-8.47-44.65-14.34-66.58-4.26-15.92-9.06-32.4-17.41-46.73-4.68-8-11.73-17.25-21.87-17.77s-17.52,7.86-22.44,15.69c-8.57,13.65-13.41,29.74-17.68,45.15-6,21.61-10.4,43.64-14.49,65.67-9.17,49.35-16.15,99.1-26.15,148.29-4.14,20.41-8.69,40.87-15.33,60.63-4.27,12.7-9.45,27.78-19.71,37-22.59,20.38-38.58-24-43.45-38.87C81.73,378.68,75.18,332.47,67.61,287.4c-7.85-46.78-14.6-94.25-27.53-140-4.14-14.63-8.85-29.81-16.93-42.81-4.82-7.77-11.82-15.87-21.7-16-1.93,0-1.93,3,0,3Z"/><path class="cls-4" d="M1.45,135.79c10.83.15,17.89,10.91,22.48,19.4,8.19,15.15,13,32.16,17.3,48.74C52.87,248.7,59.76,294.65,68,340.13c7.3,40.49,13.64,83.09,29.61,121.29,6.72,16.06,22.85,43.43,43.18,27.1,9.64-7.75,15-20.49,19.33-31.7,7-18,11.59-36.94,15.79-55.77C186.16,354.85,193.13,308,202,261.51c4.07-21.32,8.43-42.64,14.16-63.58,4.33-15.8,9.19-32.19,17.73-46.3,4.85-8,12.61-17.5,23.15-15.6,10.8,1.94,17.43,14.13,21.77,23,7.84,16.09,12.6,33.74,16.89,51.05,5.4,21.82,9.66,43.92,13.73,66,8.46,46,15.4,92.43,26.42,137.93C340,431.32,344.73,448.71,352,465c4.4,9.83,10.42,21.64,20.62,26.58,22.89,11.09,36.62-24,42.17-39.57,14.56-40.69,21.11-84.41,28.63-126.81,7.89-44.47,14.69-89.58,27.29-133,4.35-15,9.26-30.76,18.19-43.74,5.25-7.65,13.63-15.27,23.59-11.66,10.73,3.88,16.88,16.84,21.16,26.49,7.44,16.8,12.12,34.85,16.36,52.68,10.9,45.91,17.86,92.68,26.47,139,4.06,21.91,8.35,43.81,13.84,65.41,4.21,16.56,8.94,33.35,16.52,48.74,4.47,9.07,10.84,20,21.07,23.43,9,3,17.37-1.7,23.18-8.44,9-10.45,14.06-24.31,18.36-37.21,6.4-19.18,10.9-39,15-58.77,9.73-46.76,16.74-94,26.14-140.87,4.1-20.4,8.55-40.8,14.68-60.7,4.36-14.14,9.36-29.57,18.82-41.26,5.92-7.32,14.73-12.37,23.84-7.36,10.61,5.83,16.4,19.58,20.67,30.21C804.21,207,810.58,250,817.94,291c8.11,45.24,15,91,26.87,135.42,4.24,15.84,9,32,16.92,46.49,4.63,8.48,11.41,18.38,21.63,20.26,24.25,4.45,35.61-35.26,40.72-51.64,13.31-42.7,20-87.48,27.82-131.42,7.62-43.13,14.28-87.24,28-129,4.85-14.76,20.09-58.85,43.34-41.71,10.34,7.62,15.81,21.83,20.1,33.41,6.74,18.22,11.32,37.24,15.47,56.19,10.19,46.53,17.18,93.69,26.23,140.44,4.07,21.08,8.45,42.16,14.29,62.84,4.26,15.07,9.1,30.68,17.33,44.13,4.82,7.86,11.93,16.47,21.9,17s17.41-7.25,22.49-14.9c8.46-12.77,13.34-28,17.61-42.57,6-20.35,10.37-41.14,14.46-61.93,9.19-46.81,16.19-94,26.18-140.69,4.13-19.32,8.68-38.69,15.26-57.35,4.31-12.19,9.59-26.51,19.64-35.26,22.47-19.55,38.58,21.84,43.83,37.1,14.13,41.08,20.73,84.85,28.28,127.48,7.86,44.36,14.64,89.45,27.59,132.69,4.17,13.89,8.94,28.35,17,40.53,4.95,7.47,11.95,14.79,21.53,14.93,1.93,0,1.93-3,0-3-10.83-.16-17.89-10.91-22.48-19.41-8.19-15.14-13-32.16-17.31-48.73-11.63-44.77-18.53-90.72-26.73-136.2-7.3-40.49-13.63-83.1-29.61-121.29-6.72-16.06-22.85-43.44-43.18-27.1-9.64,7.74-15,20.48-19.33,31.7-7,18-11.6,36.94-15.79,55.76-10.29,46.2-17.27,93.07-26.14,139.55-4.08,21.32-8.43,42.64-14.17,63.58-4.33,15.8-9.19,32.19-17.73,46.3-4.84,8-12.61,17.5-23.15,15.6-10.8-1.94-17.42-14.13-21.76-23-7.85-16.09-12.61-33.74-16.89-51.06-5.4-21.82-9.67-43.91-13.74-66-8.46-46-15.39-92.43-26.42-137.94-4.18-17.25-8.87-34.63-16.14-50.88-4.4-9.82-10.42-21.63-20.61-26.57-22.9-11.09-36.63,24.05-42.18,39.56C964.53,215,958,258.7,950.46,301.1c-7.89,44.47-14.69,89.59-27.29,133-4.35,15-9.27,30.75-18.19,43.73-5.26,7.66-13.64,15.27-23.6,11.67-10.72-3.88-16.87-16.84-21.15-26.49-7.44-16.8-12.13-34.85-16.36-52.68-10.9-45.91-17.87-92.68-26.47-139-4.07-21.9-8.36-43.8-13.84-65.4-4.21-16.56-8.95-33.35-16.52-48.74-4.47-9.08-10.84-20-21.07-23.43-9-3-17.38,1.69-23.19,8.43-9,10.45-14.06,24.32-18.36,37.22-6.39,19.18-10.89,39-15,58.77-9.74,46.76-16.74,94-26.15,140.87-4.1,20.39-8.54,40.8-14.67,60.69-4.36,14.15-9.37,29.58-18.82,41.26-5.92,7.33-14.74,12.38-23.84,7.37-10.62-5.84-16.41-19.58-20.67-30.21-15.6-38.91-22-81.85-29.33-122.89-8.11-45.24-15-91-26.87-135.43-4.23-15.84-9-32-16.91-46.49-4.63-8.47-11.41-18.37-21.63-20.25-24.26-4.46-35.61,35.25-40.72,51.64-13.31,42.7-20.05,87.48-27.82,131.42-7.63,43.13-14.28,87.24-28,129-4.85,14.76-20.09,58.84-43.34,41.71-10.34-7.63-15.81-21.83-20.1-33.42-6.74-18.22-11.32-37.24-15.47-56.19-10.19-46.52-17.18-93.68-26.22-140.43-4.08-21.09-8.46-42.17-14.3-62.84-4.26-15.08-9.1-30.68-17.33-44.13-4.82-7.87-11.93-16.47-21.89-17s-17.42,7.25-22.49,14.91c-8.46,12.76-13.34,28-17.61,42.57-6,20.35-10.37,41.14-14.46,61.93-9.2,46.81-16.2,94-26.18,140.69-4.14,19.32-8.68,38.69-15.27,57.35-4.3,12.19-9.58,26.5-19.63,35.25-22.47,19.55-38.58-21.83-43.83-37.1-14.13-41.07-20.73-84.84-28.28-127.47C59.72,276.57,52.94,231.49,40,188.24c-4.16-13.88-8.93-28.34-17-40.52-5-7.47-12-14.8-21.53-14.93-1.93,0-1.93,3,0,3Z"/><path class="cls-5" d="M1.45,180c10.73.15,17.91,10.22,22.68,18.64,8.08,14.27,12.92,30.39,17.23,46.12C53,287.26,60,331,68.23,374.3c3.69,19.29,26.49,174.39,72.69,138.64,9.51-7.36,15-19.52,19.37-30.36,6.88-17,11.52-34.87,15.7-52.68,10.22-43.46,17.19-87.6,26-131.34,4.09-20.26,8.48-40.52,14.26-60.38,4.34-14.89,9.25-30.33,17.72-43.46,5.1-7.91,13.07-16.5,23.46-14.46s17,13.23,21.47,21.87c7.77,15.13,12.54,31.82,16.83,48.21,5.43,20.74,9.72,41.78,13.81,62.82C318.07,356.83,325,401,336.2,444.05c4.15,16,8.82,32.12,15.95,47.07,4.48,9.38,10.61,20.32,20.53,24.84,22.54,10.25,36.33-22.1,42.24-37.81,14.32-38,20.91-79,28.39-118.78,7.94-42.28,14.78-85.25,27.46-126.44,4.7-15.3,17.47-60.84,42-52,10.35,3.74,16.52,15.66,20.89,25,7.47,15.93,12.2,33.18,16.46,50.2C561,299.52,568,343.83,576.64,387.72c4.09,20.77,8.42,41.54,14,62,4.17,15.38,8.89,31,16.31,45.14,4.56,8.72,11,18.84,20.93,22,8.88,2.83,17.28-1.44,23.23-8,8.95-9.8,14.1-23,18.44-35.37,6.41-18.22,10.94-37.1,15.09-55.95,9.62-43.8,16.6-88.12,25.91-132,4.12-19.41,8.6-38.84,14.76-57.73,4.37-13.41,9.46-28,18.79-38.92,6.15-7.18,15-11.69,24.11-6.87,10.51,5.59,16.42,18.77,20.78,29.18,15.26,36.41,21.69,76.84,29,115.4,8.16,43,15.06,86.46,27.07,128.55,4.27,15,9.12,30.32,17.07,43.79,4.71,8,11.41,16.71,21.09,18.48,23.82,4.36,35.44-32.34,40.87-48.79,13.3-40.28,20.07-82.73,27.86-124.32,7.61-40.62,14.3-82.23,27.9-121.38,5.27-15.18,20.55-55.67,43.55-39.48,10.25,7.22,15.87,20.84,20.23,32.09,6.59,17,11.12,34.76,15.23,52.48,10.19,44,17.2,88.63,26.26,132.84,4.11,20,8.52,40,14.41,59.62,4.29,14.27,9.21,29.09,17.48,41.62,4.93,7.46,12,15.1,21.52,15.6s17.13-6.48,22.35-13.84c8.47-11.93,13.43-26.43,17.74-40.27,6-19.29,10.44-39.06,14.55-58.83,9.12-43.85,16.09-88.13,25.95-131.82,4.16-18.45,8.73-36.94,15.32-54.69,4.36-11.73,9.79-25.48,19.78-33.66,22.31-18.28,38.4,19.91,44,35.5,14,38.6,20.6,79.93,28.14,120.13,7.86,41.94,14.67,84.66,27.65,125.41,5.44,17.06,15.47,51.77,38.43,52.1,1.93,0,1.93-3,0-3-10.73-.15-17.91-10.21-22.69-18.64-8.08-14.26-12.91-30.39-17.22-46.12-11.67-42.54-18.6-86.3-26.88-129.58-3.69-19.29-26.49-174.38-72.69-138.64-9.51,7.36-15,19.52-19.37,30.36-6.88,17-11.52,34.88-15.71,52.68-10.22,43.46-17.18,87.61-26,131.35-4.1,20.26-8.48,40.51-14.26,60.37-4.34,14.89-9.25,30.33-17.73,43.47-5.1,7.9-13.06,16.49-23.46,14.45s-17-13.22-21.46-21.87c-7.77-15.13-12.55-31.82-16.84-48.21-5.42-20.74-9.71-41.77-13.8-62.81-8.49-43.68-15.46-87.79-26.63-130.9-4.15-16-8.81-32.11-16-47.06-4.48-9.39-10.6-20.33-20.53-24.84-22.54-10.26-36.33,22.1-42.24,37.8-14.32,38-20.91,79-28.39,118.79-7.94,42.28-14.78,85.24-27.46,126.44-4.71,15.3-17.48,60.84-42,52-10.36-3.73-16.53-15.66-20.89-25-7.48-15.94-12.2-33.19-16.46-50.21-10.88-43.41-17.86-87.72-26.5-131.6-4.09-20.78-8.41-41.55-14-62-4.17-15.38-8.89-31-16.31-45.14-4.56-8.72-11-18.84-20.94-22-8.88-2.84-17.27,1.43-23.23,8-8.95,9.8-14.09,23-18.43,35.37-6.41,18.22-11,37.11-15.09,56-9.63,43.79-16.6,88.11-25.91,132-4.13,19.42-8.6,38.84-14.76,57.73-4.38,13.41-9.46,28-18.79,38.92-6.16,7.18-15,11.69-24.11,6.87-10.51-5.59-16.42-18.77-20.78-29.18-15.26-36.41-21.7-76.84-29-115.4-8.15-43-15-86.45-27.06-128.55-4.27-15-9.12-30.32-17.08-43.79-4.71-8-11.41-16.7-21.09-18.48-23.81-4.36-35.43,32.34-40.86,48.79C456.5,266.34,449.74,308.79,442,350.38c-7.61,40.62-14.3,82.23-27.9,121.38-5.27,15.18-20.55,55.67-43.54,39.48-10.26-7.21-15.88-20.84-20.24-32.09-6.58-17-11.12-34.76-15.23-52.48-10.19-44-17.2-88.62-26.26-132.84-4.11-20-8.51-40-14.41-59.62-4.29-14.27-9.2-29.09-17.48-41.62-4.92-7.46-12-15.1-21.52-15.6s-17.13,6.48-22.35,13.84c-8.46,11.93-13.42,26.43-17.73,40.27-6,19.29-10.44,39.07-14.55,58.84-9.12,43.84-16.1,88.12-26,131.81-4.16,18.45-8.73,36.94-15.32,54.7-4.36,11.73-9.8,25.48-19.78,33.66-22.31,18.27-38.39-19.92-44-35.51-14-38.59-20.59-79.93-28.13-120.12-7.87-42-14.67-84.66-27.66-125.42C34.44,212,24.41,177.29,1.45,177c-1.93,0-1.93,3,0,3Z"/><path class="cls-6" d="M1.45,224.13c10.49.15,17.76,9.31,22.71,17.55C32.15,255,37,270.14,41.34,285c11.6,39.8,18.54,80.9,26.78,121.48C75.39,442.21,81.93,480,97.49,513.33c7.48,16,23.71,38.47,43.32,24.26,9.33-6.76,14.94-18.16,19.38-28.46,6.72-15.61,11.34-32.12,15.49-48.57C186,419.49,193,377.65,201.9,336.26c4.09-19.06,8.46-38.11,14.19-56.75,4.35-14.13,9.3-28.74,17.62-41.09,5.24-7.77,13.21-15.75,23.44-14.06,10.44,1.72,17.29,12.3,21.92,20.84,7.68,14.17,12.48,29.9,16.77,45.37,5.39,19.44,9.67,39.18,13.75,58.94,8.46,41,15.43,82.41,26.53,122.79,4.2,15.32,8.95,30.79,16.2,45,4.58,9,10.79,19,20.44,23.12,21.82,9.3,35.62-19.46,41.95-35.14,14.43-35.73,21.09-74.74,28.6-112.35,7.93-39.7,14.79-80.08,27.35-118.65,5.09-15.63,17.84-57.17,42-49.25,10.39,3.41,16.77,14.82,21.29,24,7.38,15,12.12,31.25,16.38,47.33,10.78,40.7,17.76,82.32,26.38,123.5,4.08,19.49,8.39,39,13.92,58.11,4.23,14.7,9,29.64,16.59,43,4.68,8.3,11.22,17.5,20.85,20.3,8.7,2.53,17-1.34,23-7.57,8.77-9,14-21.44,18.33-33.05,6.38-17,10.92-34.7,15.06-52.36,9.71-41.44,16.72-83.46,26.09-125,4.11-18.22,8.58-36.46,14.71-54.13,4.39-12.68,9.57-26.5,18.76-36.58,6.29-6.91,15.2-11,24.16-6.49,10.15,5.09,16.1,17.09,20.55,26.93,15.52,34.37,22,73.2,29.4,109.93,8.11,40.26,15,81.09,27,120.45,4.27,14,9.15,28.46,17,41,4.9,7.79,11.78,16,21.41,17.45,23.09,3.58,34.74-29.57,40.52-46,13.2-37.63,20-77.52,27.76-116.53,7.66-38.49,14.41-78,28.09-115,5.74-15.51,21.06-51.89,43.6-36.77,10,6.74,15.78,19.54,20.2,30.32,6.68,16.27,11.28,33.39,15.44,50.44,10,41,17,82.75,26,124,4.1,18.78,8.5,37.56,14.36,55.87,4.3,13.43,9.25,27.38,17.39,39,5.13,7.33,12.31,14.46,21.8,14.84,9.24.37,16.63-5.83,21.92-12.79,8.35-11,13.38-24.5,17.71-37.46,6-18,10.44-36.47,14.54-55,9.22-41.51,16.23-83.5,26.12-124.86,4.15-17.36,8.72-34.77,15.24-51.42,4.4-11.21,9.94-24.2,19.7-31.87,21.83-17.16,38,16.88,44.13,32.8,14.05,36.34,20.75,75.62,28.34,113.69,7.84,39.37,14.67,79.51,27.55,117.63,5.72,16.95,16,48.93,38.48,49.26a1.5,1.5,0,0,0,0-3c-10.5-.16-17.76-9.32-22.71-17.55-8-13.29-12.87-28.47-17.19-43.28-11.6-39.8-18.53-80.9-26.78-121.48C1318.5,321,1312,283.18,1296.4,249.88c-7.48-16-23.71-38.48-43.32-24.26-9.34,6.76-14.94,18.16-19.38,28.45-6.73,15.62-11.34,32.12-15.49,48.58-10.35,41.07-17.35,82.91-26.23,124.3-4.09,19.06-8.45,38.11-14.19,56.75-4.34,14.13-9.29,28.73-17.62,41.09-5.24,7.77-13.21,15.75-23.44,14.06-10.44-1.72-17.29-12.3-21.92-20.84-7.68-14.17-12.48-29.9-16.77-45.37-5.39-19.44-9.67-39.18-13.75-58.94-8.46-41-15.43-82.41-26.52-122.79-4.21-15.32-9-30.79-16.21-45-4.57-8.94-10.79-19-20.44-23.11-21.82-9.3-35.62,19.46-42,35.14-14.43,35.73-21.09,74.74-28.6,112.35C942.64,410,935.78,450.39,923.22,489c-5.09,15.63-17.84,57.17-42,49.25-10.39-3.41-16.77-14.83-21.29-24-7.38-15-12.12-31.25-16.38-47.34-10.78-40.69-17.76-82.31-26.38-123.49-4.09-19.49-8.4-39-13.92-58.11-4.24-14.7-9-29.65-16.6-43-4.68-8.3-11.21-17.5-20.84-20.3-8.7-2.53-17,1.34-23,7.57-8.78,9-14,21.43-18.33,33-6.39,17-10.92,34.69-15.06,52.36-9.71,41.44-16.72,83.45-26.09,125-4.12,18.22-8.59,36.46-14.71,54.13-4.39,12.68-9.58,26.5-18.76,36.58-6.3,6.91-15.2,11-24.16,6.49C615.54,532,609.58,520,605.14,510.17c-15.53-34.38-22-73.21-29.41-109.93-8.11-40.26-15-81.09-27-120.45-4.27-14-9.15-28.46-17-41-4.9-7.8-11.79-16-21.41-17.45-23.09-3.58-34.75,29.57-40.52,46C456.6,305,449.81,344.92,442,383.93c-7.65,38.49-14.4,78-28.07,115-5.75,15.51-21.07,51.9-43.61,36.78-10-6.74-15.77-19.55-20.2-30.32-6.68-16.27-11.27-33.39-15.44-50.44-10-41-17-82.75-26-124-4.09-18.78-8.5-37.56-14.36-55.88-4.3-13.42-9.24-27.38-17.39-39-5.13-7.33-12.31-14.46-21.8-14.84-9.24-.37-16.63,5.83-21.92,12.79-8.35,11-13.38,24.5-17.7,37.46-6,18-10.44,36.47-14.55,55-9.21,41.51-16.22,83.49-26.11,124.86-4.15,17.36-8.72,34.77-15.24,51.42-4.4,11.21-9.95,24.2-19.7,31.87-21.83,17.16-38-16.88-44.13-32.8-14-36.34-20.75-75.63-28.33-113.69-7.85-39.37-14.68-79.51-27.55-117.63-5.73-16.95-16-48.93-38.48-49.26a1.5,1.5,0,0,0,0,3Z"/><path class="cls-7" d="M1.45,268.31c10.39.15,17.8,8.64,23,16.78,8,12.58,12.91,27.06,17.26,41.21C53.1,363.48,60.05,402,68.29,439.93c7.24,33.36,13.88,68.8,29.27,99.58,8,15.9,24.31,35.83,43.48,22.5,9-6.3,14.73-16.91,19.2-26.68,6.64-14.52,11.27-29.94,15.41-45.33,10.3-38.29,17.29-77.4,26.12-116,4.11-18,8.51-36.06,14.27-53.65,4.39-13.4,9.42-27.3,17.78-38.8,5.47-7.54,13.54-14.63,23.53-13,10.19,1.69,17.1,11.41,21.87,19.73,16.78,29.23,23.23,65.06,30.39,97.57,8.52,38.67,15.52,77.83,26.74,115.84,4.21,14.26,9,28.67,16.16,41.74,4.65,8.43,10.89,17.55,20.16,21.32,21.29,8.66,35.3-17.24,42-33,14.31-33.36,21.08-70,28.61-105.37,7.9-37.11,14.79-74.92,27.22-110.85,5.5-15.9,18.25-53.51,41.91-46.52,10.29,3,16.87,13.72,21.54,22.64,7.4,14.11,12.2,29.57,16.49,44.86,10.68,38,17.66,76.91,26.26,115.38,7,31.5,13.55,66.36,30.36,94.43,4.81,8,11.44,16.59,20.89,19.22,8.6,2.39,16.88-1.12,23.08-7.09,8.58-8.28,13.84-19.85,18.22-30.74,6.35-15.78,10.89-32.28,15-48.76,9.7-38.66,16.7-77.93,26-116.69,4.15-17.29,8.65-34.59,14.78-51.3,4.45-12.13,9.77-25.3,18.91-34.75,6.43-6.64,15.36-10.27,24.22-6.11,9.91,4.65,16,15.78,20.52,25.18,15.36,31.86,21.94,68.29,29.32,102.61,8.18,38,15.14,76.66,27.2,113.7,4.27,13.13,9.18,26.61,16.92,38.14,5,7.46,11.9,14.9,21.22,16.34,22.25,3.43,34.15-26,40.31-42.18,13.38-35.24,20.23-73,28-109.74,7.66-36.05,14.46-73.14,27.92-107.59,6.14-15.72,21.28-48.78,43.53-35.34,9.87,6,15.72,17.77,20.24,27.91,6.88,15.42,11.55,31.83,15.8,48.14,10,38.49,17,77.69,26,116.42,4.08,17.54,8.48,35.07,14.31,52.13,4.31,12.61,9.3,25.63,17.29,36.43,5.26,7.12,12.52,13.68,21.82,14.06s16.91-5.59,22.4-12.57c8-10.19,13-22.7,17.36-34.83,6-16.77,10.38-34.06,14.47-51.35,9.18-38.76,16.18-78,26-116.61,4.2-16.53,8.82-33.13,15.46-48.87,4.5-10.68,10.23-23,20-29.86,21.53-15.19,37.39,15.55,43.93,31.51,13.85,33.86,20.6,70.71,28.17,106.35,7.89,37.12,14.78,75.09,27.8,110.85,6,16.57,16.57,45.09,38.18,45.4,1.93,0,1.93-3,0-3-10.4-.15-17.8-8.65-23-16.78-8-12.59-12.91-27.06-17.27-41.21-11.44-37.19-18.39-75.67-26.63-113.64-7.24-33.36-13.87-68.8-29.26-99.58-8-15.9-24.32-35.83-43.49-22.49-9,6.29-14.73,16.9-19.2,26.68-6.64,14.52-11.27,29.93-15.41,45.32-10.3,38.3-17.3,77.4-26.12,116.05-4.12,18-8.52,36.06-14.28,53.65-4.38,13.39-9.42,27.29-17.77,38.8-5.48,7.54-13.54,14.62-23.54,13-10.19-1.7-17.09-11.41-21.87-19.73-16.78-29.23-23.22-65.06-30.39-97.58-8.51-38.66-15.52-77.83-26.74-115.84-4.2-14.25-9-28.67-16.16-41.73-4.65-8.44-10.89-17.56-20.16-21.33-21.29-8.65-35.3,17.24-42,32.95-14.31,33.36-21.08,70.05-28.61,105.38-7.9,37.11-14.79,74.92-27.22,110.85-5.5,15.9-18.25,53.51-41.92,46.51-10.29-3-16.87-13.72-21.54-22.63-7.39-14.11-12.19-29.58-16.49-44.86-10.68-38-17.66-76.91-26.26-115.39-7-31.5-13.54-66.36-30.35-94.42-4.82-8-11.44-16.6-20.9-19.23-8.59-2.39-16.88,1.12-23.07,7.1-8.58,8.28-13.84,19.84-18.22,30.73-6.35,15.78-10.89,32.29-15,48.77-9.69,38.65-16.7,77.93-26,116.68-4.14,17.3-8.64,34.59-14.77,51.31-4.45,12.13-9.78,25.3-18.91,34.74-6.43,6.65-15.37,10.27-24.22,6.12-9.91-4.65-16-15.78-20.53-25.19-15.35-31.85-21.94-68.28-29.32-102.6-8.18-38-15.13-76.66-27.19-113.71-4.28-13.12-9.18-26.6-16.93-38.14-5-7.46-11.89-14.9-21.21-16.34-22.25-3.42-34.15,26-40.31,42.19-13.39,35.24-20.24,73-28,109.73-7.65,36-14.45,73.14-27.91,107.59-6.14,15.72-21.28,48.79-43.53,35.34-9.86-6-15.72-17.76-20.24-27.9-6.88-15.42-11.55-31.83-15.79-48.14-10-38.49-17-77.7-26-116.42-4.09-17.54-8.49-35.08-14.31-52.13C290,303.2,285,290.18,277,279.38c-5.27-7.12-12.52-13.68-21.82-14.05s-16.92,5.59-22.41,12.56c-8,10.2-13.05,22.71-17.35,34.84-6,16.76-10.38,34-14.48,51.35-9.17,38.75-16.18,78-26,116.6-4.2,16.54-8.83,33.13-15.46,48.88-4.5,10.67-10.23,23-20,29.86C118,574.6,102.13,543.86,95.6,527.9,81.74,494,75,457.19,67.42,421.56c-7.89-37.12-14.77-75.1-27.8-110.85-6-16.57-16.56-45.09-38.17-45.4-1.93,0-1.93,3,0,3Z"/><path class="cls-8" d="M1.45,312.48c10.3.15,17.86,8,23.22,16,7.73,11.55,12.67,24.92,17,38,11.5,34.89,18.5,71.16,26.82,106.89,7.22,31,14,64,29.15,92.27,8.32,15.48,24.49,32.93,43.12,21.08,8.93-5.68,14.78-15.56,19.34-24.82,6.68-13.53,11.35-28,15.52-42.5,10.31-35.74,17.33-72.34,26.16-108.45,4.11-16.79,8.5-33.57,14.22-49.9,4.35-12.44,9.4-25.33,17.47-35.89,5.68-7.41,13.81-14,23.72-12.53,10.12,1.48,17.23,10.5,22.21,18.67,16.57,27.16,23.2,60.95,30.4,91.52,8.42,35.75,15.41,72,26.47,107.07,4.28,13.59,9.14,27.36,16.47,39.64,4.74,7.95,11,16.21,20,19.6,20.84,7.88,35-15.48,42.14-31.18,13.89-30.48,20.72-64.22,28.14-96.69,8-35,14.95-70.68,27.39-104.41,6-16.17,19.06-50.51,42.42-43.61,9.89,2.92,16.48,12.59,21.25,21.1,7.32,13.07,12.14,27.52,16.44,41.81,10.67,35.44,17.67,71.89,26.29,107.85,7.08,29.53,13.78,62.6,30.64,88.43,10.08,15.44,27.51,25.08,43.36,11,8.67-7.67,14.13-18.76,18.6-29.22,6.16-14.41,10.66-29.49,14.73-44.6,9.8-36.29,16.84-73.26,26.19-109.67,4.09-15.93,8.54-31.86,14.52-47.21,4.52-11.59,10-24.1,19.09-32.9,43.63-42.24,69.72,94.37,74.31,114.32,8.13,35.34,15.11,71.32,27.12,105.61,6.11,17.47,16.18,47.22,37.83,50.55s33.9-23.21,40.47-39.33c13.27-32.59,20.17-67.77,27.94-102,7.7-33.85,14.55-68.84,28-101,6.69-15.92,21.89-45.24,43.68-32.82,9.63,5.49,15.59,16.47,20.18,26.14,6.82,14.31,11.5,29.63,15.75,44.87,10,35.94,17,72.64,26.07,108.82,4.12,16.48,8.56,33,14.44,48.91,4.29,11.63,9.28,23.5,17,33.32,5.47,7,12.91,13,22.15,13.29,8.89.25,16.4-5,21.95-11.51,7.88-9.25,13-20.79,17.27-32,6.1-15.85,10.61-32.3,14.79-48.75,9.13-36,16.13-72.52,25.87-108.36,4.27-15.71,9-31.49,15.72-46.33,4.53-9.95,10.27-21.07,19.61-27.35,21.09-14.18,37.07,13.06,44.16,29.17,14,31.69,20.77,66.64,28.41,100.24,7.81,34.32,14.72,69.49,27.54,102.39,6.38,16.34,17.17,42.25,38.22,42.55,1.93,0,1.93-3,0-3-10.3-.15-17.86-8-23.23-16-7.72-11.55-12.66-24.91-17-38-11.5-34.89-18.5-71.16-26.82-106.89-7.21-31-14-64-29.15-92.27-8.32-15.48-24.49-32.93-43.12-21.08-8.93,5.68-14.78,15.56-19.35,24.82-6.67,13.53-11.34,28-15.51,42.5-10.31,35.74-17.33,72.34-26.16,108.45-4.11,16.79-8.5,33.57-14.22,49.9-4.36,12.44-9.4,25.33-17.48,35.89-5.67,7.42-13.81,14-23.72,12.53-10.12-1.48-17.23-10.5-22.21-18.67-16.56-27.16-23.19-60.95-30.39-91.52-8.42-35.75-15.42-72-26.48-107.07-4.28-13.58-9.14-27.36-16.47-39.64-4.74-7.95-11-16.21-20-19.6-20.84-7.88-35,15.48-42.14,31.18-13.89,30.48-20.72,64.22-28.14,96.69-8,35-15,70.68-27.39,104.41-6,16.17-19.06,50.51-42.43,43.61-9.88-2.92-16.48-12.59-21.24-21.1-7.32-13.07-12.14-27.51-16.44-41.8-10.67-35.45-17.68-71.9-26.3-107.86-7.08-29.53-13.78-62.6-30.63-88.43-10.08-15.44-27.52-25.08-43.36-11.05-8.67,7.67-14.13,18.76-18.61,29.22-6.16,14.41-10.65,29.49-14.73,44.6-9.79,36.3-16.84,73.26-26.19,109.67C679.46,516.06,675,532,669,547.33c-4.52,11.59-10,24.1-19.08,32.9-43.63,42.24-69.72-94.37-74.32-114.32-8.13-35.34-15.1-71.32-27.11-105.61-6.12-17.47-16.18-47.22-37.83-50.55S476.78,333,470.22,349.08c-13.27,32.59-20.17,67.77-27.94,102-7.7,33.85-14.55,68.84-28,101-6.69,15.92-21.89,45.24-43.67,32.82-9.64-5.49-15.59-16.47-20.19-26.14-6.81-14.31-11.5-29.63-15.74-44.87-10-35.94-17-72.64-26.08-108.82-4.12-16.48-8.56-33-14.44-48.91-4.29-11.62-9.28-23.5-17-33.32-5.48-7-12.91-13-22.16-13.29-8.89-.25-16.39,5-21.94,11.51-7.89,9.26-12.95,20.79-17.28,32-6.09,15.86-10.61,32.31-14.78,48.76-9.13,36-16.13,72.51-25.87,108.35-4.27,15.71-9,31.49-15.72,46.33-4.54,9.95-10.27,21.07-19.61,27.35-21.09,14.18-37.06-13.06-44.16-29.17C81.65,523,74.84,488,67.2,454.42,59.39,420.1,52.49,384.93,39.66,352c-6.37-16.35-17.17-42.26-38.21-42.56-1.93,0-1.93,3,0,3Z"/><path class="cls-9" d="M1.45,356.65c23,.33,34,32.69,40.21,50.12,11.42,32.14,18.43,65.76,26.71,98.79C75.67,534.7,82.58,566.1,98,592.27c8.79,15,24.82,29.67,42.76,19.09,8.65-5.1,14.59-14.14,19.22-22.79,6.61-12.35,11.28-25.74,15.45-39.08,10.36-33.15,17.4-67.23,26.22-100.8,4.1-15.58,8.47-31.16,14.12-46.27,4.49-12,9.75-24.54,18.12-34.43,5.8-6.85,13.74-12.35,23.12-11.19,10.06,1.25,17.42,9.61,22.63,17.63,16.32,25.1,23.15,56.82,30.4,85.45,8.41,33.22,15.43,67,26.55,99.45,6.33,18.48,15.59,47,36.26,54.28,20,7,34.2-13.14,41.82-28.52,14-28.18,20.91-59.9,28.38-90.26,8-32.38,14.95-65.51,27.24-96.61,6.44-16.31,19.61-46.87,42.38-40.87,9.93,2.61,16.79,11.75,21.77,20.13,7.09,11.94,11.89,25.19,16.15,38.35,10.66,32.91,17.69,66.88,26.33,100.33,7.08,27.39,14,58.16,30.47,81.73,10.27,14.69,27.47,23.36,43.15,10.68,8.59-7,14.23-17.27,18.78-27.14,6.19-13.38,10.73-27.49,14.84-41.63,9.74-33.52,16.79-67.75,26.07-101.4,4.18-15.18,8.72-30.37,14.88-44.87,4.5-10.58,9.94-21.8,18.54-29.69,6.68-6.13,15.63-9.12,24.38-5.7,9.67,3.79,16.12,13.46,20.93,22.18,15.21,27.55,22.07,60,29.56,90.25,8.08,32.65,15.08,66,27,97.51,6.43,17,16.88,43.83,37.88,46.67s33.57-21.1,40.52-37.14c12.91-29.81,19.87-62.14,27.57-93.57,7.75-31.67,14.66-64.56,28.21-94.38,7.25-16,22.6-41.75,43.83-30.29,9.38,5.07,15.44,15.17,20.13,24.37,6.74,13.21,11.44,27.43,15.68,41.6,10,33.39,17,67.58,26.12,101.22,6.88,25.5,14,55.55,31.47,76.21,12.32,14.54,30.46,16,43.71,1.76,18-19.36,25.18-49.41,32-74.13,9.25-33.65,16.3-67.88,26.08-101.39,4.27-14.63,9-29.32,15.66-43.05,4.6-9.44,10.42-19.76,19.51-25.56,20.66-13.2,36.8,10.72,44.48,26.93,13.89,29.3,20.79,62,28.47,93.34,7.8,31.81,14.77,64.47,27.48,94.78,6.72,16,17.81,39.24,38.19,39.53,1.93,0,1.93-3,0-3-23-.32-34-32.68-40.22-50.11-11.41-32.15-18.43-65.76-26.71-98.8-7.3-29.13-14.2-60.53-29.58-86.7-8.79-15-24.82-29.67-42.76-19.09-8.65,5.1-14.59,14.13-19.22,22.78-6.61,12.36-11.29,25.74-15.46,39.09-10.35,33.14-17.4,67.23-26.22,100.79-4.09,15.59-8.47,31.17-14.12,46.27-4.49,12-9.75,24.55-18.12,34.44-5.8,6.85-13.73,12.35-23.12,11.18-10.06-1.24-17.42-9.61-22.63-17.62-16.32-25.1-23.15-56.82-30.4-85.45-8.4-33.22-15.43-67-26.55-99.45-6.32-18.48-15.59-47.05-36.26-54.28-20-7-34.19,13.14-41.82,28.52-14,28.18-20.91,59.9-28.38,90.25-8,32.39-15,65.52-27.24,96.62-6.45,16.31-19.61,46.86-42.39,40.87-9.93-2.61-16.78-11.75-21.76-20.14-7.09-11.93-11.89-25.19-16.15-38.34C832.68,519.9,825.65,485.93,817,452.48c-7.07-27.39-14-58.16-30.46-81.73-10.28-14.69-27.48-23.37-43.16-10.68-8.59,6.95-14.22,17.27-18.78,27.14-6.18,13.38-10.72,27.49-14.83,41.62C700,462.36,693,496.59,683.7,530.24c-4.19,15.17-8.73,30.36-14.89,44.87-4.49,10.58-9.93,21.79-18.53,29.68-6.68,6.14-15.63,9.13-24.38,5.7-9.68-3.78-16.13-13.46-20.94-22.17-15.2-27.55-22.06-60-29.55-90.25-8.08-32.66-15.08-66-27-97.51-6.43-17-16.88-43.83-37.87-46.67C489.36,351,476.93,375,470,391c-12.91,29.8-19.87,62.14-27.57,93.57-7.75,31.66-14.66,64.55-28.21,94.38-7.25,16-22.59,41.75-43.83,30.29-9.38-5.07-15.44-15.17-20.13-24.37-6.73-13.21-11.44-27.44-15.68-41.61-10-33.39-17.05-67.58-26.12-101.22-6.87-25.5-13.95-55.54-31.46-76.2-12.33-14.54-30.47-16-43.71-1.76-18,19.36-25.18,49.41-32,74.13-9.25,33.65-16.29,67.88-26.07,101.38-4.28,14.64-9,29.32-15.66,43.06-4.6,9.44-10.42,19.75-19.51,25.56-20.66,13.19-36.8-10.73-44.48-26.93C81.69,552,74.79,519.3,67.11,488c-7.79-31.82-14.77-64.48-27.48-94.79-6.72-16-17.8-39.24-38.18-39.53a1.5,1.5,0,0,0,0,3Z"/><path class="cls-10" d="M1.45,400.83C24,401.15,35.34,430.42,42,447.78,53.24,477.37,60.28,508.46,68.58,539c7.26,26.7,14.32,55.6,29.32,79.22,9.23,14.54,25.19,27.26,42.72,17.79,19.5-10.54,28.18-37.77,34.77-57.25,10.24-30.26,17.27-61.51,26-92.23,4.13-14.52,8.52-29,14.17-43,4.5-11.2,9.83-22.8,18-31.85,6.08-6.75,14.22-11.78,23.62-10.62,9.78,1.2,17.2,8.7,22.58,16.39,16,22.86,23.06,52.39,30.33,78.93,8.39,30.61,15.44,61.8,26.51,91.6,6.6,17.77,16.26,43.69,36.34,50.14,19.21,6.18,33.46-11.17,41.56-26.14,13.86-25.61,20.88-55,28.34-82.92,8.09-30.31,15.14-61.5,27.65-90.38,7-16.22,20.3-42.49,42.25-37.12,21.62,5.29,31.58,36,37.94,54.19,10.66,30.47,17.74,62.08,26.46,93.13,7.08,25.25,14.26,53.71,30.46,74.94,10.64,14,27.81,21.09,43.1,9.45,18.59-14.15,26.57-41.66,33.27-62.87,9.75-30.83,16.81-62.44,26-93.42,4.21-14.17,8.78-28.35,14.95-41.8,4.54-9.87,10-20.19,18.35-27.4,17.75-15.34,35.93-1.46,45.79,15.15,15,25.22,22,55.33,29.5,83.39,8.07,30.1,15.12,60.89,27,89.79,6.75,16.43,17.45,40.26,37.58,43,20.44,2.77,33.22-18.3,40.64-34.06,12.81-27.21,19.85-57.08,27.52-86,7.78-29.31,14.78-59.83,28.14-87.22,7.82-16.06,23.35-38.87,44.23-28.34,9.23,4.66,15.44,14.07,20.25,22.87,6.6,12.1,11.3,25.2,15.53,38.28,9.94,30.73,17,62.3,26.06,93.28,6.93,23.69,14.34,51.83,31.63,70.4,12.44,13.37,30.23,14.45,43.41,1.44,17.55-17.33,25.06-45.15,31.89-68,9.32-31.18,16.4-63,26.22-94.05,4.26-13.48,9-27,15.55-39.53,4.72-9,10.69-18.53,19.65-23.79,20-11.77,36.16,8.71,44.39,24.69,13.89,27,20.91,57.52,28.64,86.66,7.81,29.39,14.87,59.63,27.51,87.42,7.1,15.59,18.48,36,38.06,36.26a1.5,1.5,0,0,0,0-3c-22.55-.32-33.9-29.59-40.52-47-11.27-29.59-18.32-60.68-26.62-91.18-7.26-26.71-14.31-55.6-29.32-79.23-9.23-14.53-25.19-27.25-42.72-17.78-19.5,10.53-28.18,37.76-34.77,57.24-10.25,30.27-17.27,61.52-26,92.23-4.12,14.53-8.52,29-14.16,43-4.51,11.19-9.83,22.79-18,31.85-6.08,6.74-14.23,11.77-23.63,10.62-9.77-1.2-17.19-8.71-22.58-16.39-16-22.87-23.06-52.4-30.33-78.93-8.39-30.62-15.44-61.8-26.51-91.61-6.6-17.77-16.26-43.68-36.34-50.14-19.21-6.17-33.46,11.17-41.56,26.14-13.86,25.62-20.88,55-28.34,82.92-8.09,30.31-15.14,61.5-27.65,90.39-7,16.21-20.31,42.49-42.25,37.12-21.63-5.3-31.58-36-37.94-54.2-10.67-30.47-17.74-62.08-26.46-93.13-7.09-25.25-14.27-53.71-30.46-74.93-10.65-13.95-27.81-21.1-43.1-9.46-18.6,14.16-26.57,41.66-33.28,62.88-9.75,30.83-16.8,62.43-26,93.42-4.22,14.16-8.79,28.34-15,41.79-4.53,9.88-10,20.2-18.35,27.41-17.74,15.33-35.92,1.46-45.79-15.16-15-25.21-22-55.33-29.5-83.39-8.06-30.1-15.11-60.89-27-89.79-6.75-16.42-17.44-40.26-37.58-43-20.44-2.78-33.21,18.29-40.63,34.05-12.81,27.22-19.85,57.08-27.52,86-7.78,29.31-14.78,59.82-28.14,87.22-7.82,16-23.35,38.86-44.22,28.33-9.24-4.65-15.45-14.06-20.26-22.87-6.6-12.09-11.3-25.19-15.53-38.27-9.94-30.73-17-62.3-26.06-93.29-6.93-23.68-14.33-51.83-31.63-70.4-12.44-13.36-30.23-14.45-43.4-1.44-17.55,17.34-25.06,45.16-31.9,68-9.31,31.19-16.39,63-26.21,94-4.26,13.48-9,27-15.55,39.54C155,618,149,627.59,140,632.86c-20,11.76-36.15-8.72-44.38-24.7-13.89-27-20.91-57.52-28.64-86.65-7.8-29.39-14.86-59.64-27.51-87.42-7.09-15.59-18.47-36-38-36.26-1.93,0-1.93,3,0,3Z"/><path class="cls-11" d="M1.45,445c21.79.31,33.43,25.94,40.54,43,11.25,27.05,18.34,55.72,26.66,83.75,7.29,24.56,14.55,51.31,29.37,72.6,9.68,13.9,25.56,24.62,42.55,16.19,18.68-9.26,27.76-33.59,34.53-51.81,10.37-27.86,17.47-56.83,26.25-85.21,7.14-23.1,14.65-50.72,32-68.54,14.85-15.23,33.87-11,46.17,4.88,16,20.61,23.24,48.2,30.58,72.76,8.4,28.12,15.49,56.85,26.57,84.08,6.88,16.91,17,40.12,36.3,45.76,18.51,5.4,32.82-9.41,41.4-23.92,13.73-23.22,20.9-50.35,28.38-76,8.08-27.73,15.17-56.35,27.51-82.59,7.6-16.15,21.16-39.2,42.54-34.29,21,4.82,31.38,32.56,38.09,50.26,10.51,27.76,17.6,56.68,26.29,85,7.11,23.16,14.53,49.14,30.2,68.2,10.93,13.3,28.09,19.49,43.24,8.9,17.88-12.51,26.22-37.34,33-57,9.8-28.24,16.89-57.33,26.08-85.76,6.94-21.47,14.89-49.2,33.38-63.89,17.36-13.8,35.56-2.22,45.92,13.78,14.7,22.71,21.88,50.37,29.4,76.07,8.08,27.64,15.22,55.95,26.94,82.34,7.11,16,18.24,37.43,37.8,39.81s32.39-15.55,40.29-30.77c12.8-24.66,19.92-52.19,27.6-78.74,7.82-27,14.94-55.28,28.18-80.3,8.39-15.87,24-35.51,44.27-26.27,20.09,9.15,29.27,37.23,36,56.27,10,28.38,17.11,57.67,26.31,86.31,7,21.68,14.68,47.37,31.48,63.74,12.58,12.25,30.07,13,43.2,1.14,17.13-15.48,25-41.13,31.89-62.36,9.26-28.43,16.35-57.53,26.07-85.81,6.76-19.67,15.58-47.8,35.35-58.44s35.91,7.28,44.7,23.09c13.6,24.49,20.73,52.57,28.47,79.3s14.88,54.51,27.34,79.65c7.52,15.18,19.18,33.14,38.11,33.41a1.5,1.5,0,0,0,0-3c-21.79-.31-33.44-25.94-40.54-43-11.26-27.05-18.34-55.72-26.67-83.75-7.29-24.56-14.54-51.31-29.37-72.6-9.68-13.9-25.56-24.62-42.55-16.19-18.69,9.26-27.76,33.59-34.54,51.81-10.37,27.86-17.46,56.83-26.24,85.21-7.15,23.1-14.66,50.72-32,68.54-14.85,15.23-33.88,11-46.17-4.88-16-20.61-23.25-48.2-30.59-72.76-8.39-28.12-15.49-56.85-26.57-84.08-6.87-16.91-17-40.12-36.3-45.76-18.51-5.4-32.81,9.41-41.4,23.92-13.73,23.22-20.9,50.35-28.38,76.05-8.08,27.73-15.18,56.35-27.52,82.59C916,641.82,902.42,664.87,881,660c-21-4.82-31.38-32.56-38.08-50.26-10.51-27.76-17.6-56.68-26.3-85-7.1-23.16-14.53-49.14-30.19-68.2-10.94-13.3-28.1-19.49-43.24-8.9-17.89,12.51-26.22,37.34-33,57-9.81,28.24-16.89,57.33-26.09,85.76-6.94,21.47-14.89,49.2-33.37,63.89-17.37,13.8-35.57,2.22-45.92-13.78-14.71-22.71-21.89-50.37-29.4-76.07-8.09-27.64-15.22-55.95-26.95-82.34-7.1-16-18.23-37.43-37.8-39.81S478.27,457.77,470.38,473c-12.8,24.66-19.92,52.19-27.6,78.74C435,578.77,427.84,607,414.6,632c-8.39,15.87-24,35.51-44.26,26.27-20.1-9.15-29.28-37.23-36-56.27-10-28.38-17.12-57.67-26.31-86.31-7-21.68-14.69-47.37-31.49-63.74-12.58-12.25-30.07-13-43.2-1.14-17.12,15.48-25,41.13-31.88,62.36-9.27,28.43-16.35,57.53-26.07,85.81-6.76,19.67-15.58,47.8-35.35,58.44s-35.91-7.28-44.7-23.09c-13.6-24.49-20.73-52.57-28.47-79.3S52,500.55,39.56,475.41C32,460.23,20.38,442.27,1.45,442c-1.93,0-1.93,3,0,3Z"/><path class="cls-12" d="M1.45,489.18c20.92.29,32.84,22.3,40.47,38.88,11.39,24.76,18.56,51.33,27,77.17,8.74,26.69,29.22,99,71.55,79.92,17.82-8,27.28-29.45,34.27-46.38,10.42-25.25,17.56-51.72,26.32-77.55,7.26-21.41,15.16-46.86,32.11-62.83C248,484.46,267,488,279.61,502.73c15.81,18.53,23.36,44.19,30.81,66.9,8.24,25.17,15.34,50.89,26.09,75.15,7.17,16.18,17.63,36.89,36.22,42,17.7,4.89,32.14-7.31,41.3-21.17,13.67-20.68,21-45.55,28.5-68.94,8.14-25.38,15.34-51.64,27.57-75.45,8.15-15.87,21.86-35.64,42.48-31.55,20.46,4.06,31.28,28.73,38.41,45.83,10.5,25.2,17.62,51.66,26.35,77.49,7.17,21.21,14.87,45,30.23,61.86,11.22,12.35,28.25,17.4,43,8,17.29-11.05,26-33.43,33-51.72,9.81-25.66,16.94-52.25,26.14-78.13,7.08-19.88,15.54-45.4,33.62-58.19,17.16-12.15,35.24-2.19,46,13.07,14.46,20.53,21.83,46,29.42,69.66,8,25,15.19,50.64,26.8,74.26,7.52,15.31,19,33.9,37.73,35.93,18.45,2,31.49-13,39.87-27.49,12.76-22.08,20-47.29,27.69-71.45C958.76,564,966,538,979.1,515.37c9-15.62,24.74-32.26,44.49-24.1,19.6,8.1,29.27,33.71,36.27,51.89,9.78,25.43,16.86,51.79,25.93,77.47,7.06,20,15.1,43.52,31.44,58.06,12.56,11.18,29.74,12.12,42.94,1.41,16.71-13.55,24.94-36.79,32-56.34,9.32-25.86,16.44-52.46,26.13-78.19,7-18.55,16.19-43.75,35.15-53.37s35.69,5.35,45.15,20.86c27.11,44.42,31,99.26,56,144.76,8,14.5,19.85,29.82,37.91,30.07,1.93,0,1.93-3,0-3-20.92-.29-32.84-22.3-40.47-38.89-11.4-24.76-18.57-51.32-27-77.16-8.75-26.7-29.22-99.05-71.56-79.93-17.82,8-27.28,29.45-34.27,46.39-10.42,25.25-17.57,51.71-26.33,77.55-7.26,21.4-15.15,46.86-32.1,62.82-14.8,13.94-33.81,10.44-46.42-4.33-15.81-18.54-23.36-44.19-30.8-66.91-8.25-25.16-15.35-50.89-26.1-75.14-7.17-16.18-17.63-36.89-36.22-42-17.7-4.88-32.14,7.31-41.3,21.18-13.67,20.68-21,45.55-28.5,68.93C943.21,602.76,936,629,923.78,652.83c-8.15,15.87-21.86,35.64-42.48,31.55-20.47-4.06-31.29-28.73-38.42-45.84-10.49-25.19-17.62-51.66-26.34-77.48-7.18-21.21-14.88-45-30.24-61.86-11.22-12.35-28.24-17.4-43-7.95-17.29,11-26,33.43-33,51.71-9.81,25.67-16.94,52.26-26.15,78.13-7.07,19.89-15.53,45.4-33.61,58.2-17.17,12.15-35.25,2.19-46-13.07-14.46-20.53-21.82-46-29.41-69.66-8-25-15.19-50.64-26.8-74.26-7.53-15.32-19-33.91-37.73-35.94-18.45-2-31.5,13-39.87,27.49-12.77,22.09-20,47.3-27.69,71.46-7.89,24.78-15.14,50.73-28.23,73.39-9,15.61-24.74,32.26-44.49,24.1S341,649.09,334,630.91c-9.78-25.43-16.87-51.8-25.93-77.48-7.07-20-15.11-43.51-31.45-58.06-12.56-11.18-29.74-12.11-42.94-1.41-16.71,13.55-24.94,36.79-32,56.35-9.32,25.85-16.45,52.45-26.13,78.18-7,18.55-16.19,43.76-35.15,53.37S104.76,676.51,95.3,661c-27.11-44.43-30.95-99.26-55.94-144.76-8-14.51-19.85-29.82-37.91-30.07-1.93,0-1.93,3,0,3Z"/><path class="cls-13" d="M1.45,533.35c20.13.28,32.4,19.08,40.6,35.17C53.32,590.66,60.56,614.67,69,638c10,27.33,30.58,88.33,71.37,71.8,17.22-7,27.14-26,34.41-42,10.28-22.51,17.47-46.28,26.17-69.41,7.37-19.59,15.67-42.65,32.09-56.66,14.79-12.6,33.83-9.69,46.7,4C295.17,562,303,585.35,310.56,606c8.27,22.76,15.45,46.13,26.25,67.87,7.52,15.16,18.36,33,36.05,37.33,16.88,4.12,31.26-5.78,40.92-18.81,13.43-18.15,20.94-40.57,28.46-61.61,8.18-22.94,15.48-46.72,27.48-68,8.82-15.64,22.88-32.6,43-29,19.43,3.51,30.56,24.56,38.11,40.75,10.71,23,18,47.37,26.89,71,7.23,19.15,15.21,40.51,30.18,55.1,11.54,11.25,28.18,15.19,42.65,6.94,16.81-9.58,26-29.9,33.19-46.9,9.61-22.71,16.72-46.37,25.74-69.3,7.29-18.57,16.25-41.83,33.9-53.07,16.63-10.6,34.58-2.74,45.84,11.48,14.44,18.2,22,41.71,29.74,63.31,8,22.43,15.24,45.58,26.71,66.56,7.93,14.49,19.6,30.34,37.35,32.25s31-10.6,40-24.43c12.59-19.47,20-42.22,27.64-63.93,7.94-22.44,15.32-46,28.13-66.2,9.59-15.15,25.27-29.11,44.42-22.37s29.22,29.36,36.57,46.45c10,23.22,17.17,47.5,26.44,71,7.19,18.21,15.59,39.11,31.41,51.64,12.76,10.1,29.79,10.57,42.89.79,15.83-11.81,24.32-32.23,31.46-50,9.32-23.17,16.47-47.16,26.06-70.23,7.28-17.51,17-40.31,35.45-48.67s35.31,4,45.4,19.07c26.49,39.46,31.05,89.65,55.8,130.07,8.45,13.8,20.55,26.75,37.82,27,1.93,0,1.93-3,0-3-20.14-.28-32.41-19.08-40.6-35.17-11.28-22.13-18.52-46.15-27-69.42-10-27.34-30.58-88.34-71.37-71.81-17.22,7-27.14,26.05-34.42,42-10.27,22.51-17.46,46.28-26.16,69.41-7.37,19.59-15.67,42.66-32.1,56.66-14.78,12.61-33.82,9.7-46.69-4-15.4-16.35-23.26-39.67-30.79-60.36-8.27-22.75-15.45-46.13-26.24-67.87-7.53-15.16-18.37-33-36.06-37.33-16.87-4.12-31.26,5.78-40.92,18.81-13.43,18.15-20.94,40.57-28.46,61.62-8.18,22.93-15.48,46.71-27.49,68-8.81,15.65-22.87,32.6-43,29-19.43-3.52-30.56-24.57-38.12-40.76-10.71-23-18-47.37-26.88-71C809,577.78,801,556.42,786,541.82c-11.54-11.25-28.19-15.19-42.65-6.94-16.81,9.58-26,29.9-33.19,46.9-9.61,22.71-16.73,46.37-25.74,69.31-7.3,18.56-16.25,41.82-33.9,53.06-16.64,10.6-34.58,2.74-45.85-11.47-14.43-18.21-22-41.72-29.74-63.31-8-22.44-15.23-45.59-26.71-66.57-7.93-14.48-19.6-30.34-37.34-32.25s-31,10.6-40,24.43c-12.6,19.47-20,42.22-27.64,63.93-7.94,22.44-15.32,46-28.13,66.2-9.59,15.15-25.27,29.11-44.42,22.37S341.51,678.13,334.16,661c-10-23.21-17.17-47.5-26.44-71-7.19-18.21-15.58-39.11-31.4-51.64-12.76-10.1-29.8-10.57-42.9-.79-15.82,11.82-24.31,32.23-31.45,50-9.32,23.17-16.48,47.16-26.06,70.23-7.28,17.52-17,40.31-35.45,48.67s-35.31-4-45.4-19.07C68.58,648,64,597.76,39.27,557.34c-8.45-13.8-20.55-26.75-37.82-27-1.93,0-1.93,3,0,3Z"/><path class="cls-14" d="M1.45,577.52c19.53.27,32.22,16.36,41.05,32C53.68,629.28,61,651,69.68,671.92c11.28,27.33,32.43,76.74,71.06,62.28,16.48-6.18,26.73-22.85,34.34-37.77,10.08-19.75,17.25-40.82,25.89-61.21,7.56-17.84,16.32-38.71,32.45-50.57,15-11,33.9-8.32,46.93,4.33,14.67,14.24,22.79,34.88,30.38,53.45,8.31,20.35,15.59,41.4,26.43,60.6,8,14.2,19.34,29.36,36.34,32.75,16.14,3.21,30.41-4.93,40.42-17.09,13-15.79,20.68-35.64,28.22-54.42,8.29-20.61,15.75-42.11,27.76-60.94,9.5-14.88,23.84-28.51,42.92-25.37,18.81,3.1,30.37,21.44,38.44,37,10.4,20.06,17.67,41.58,26.48,62.34,7.32,17.26,15.62,36.36,30.11,48.92,11.86,10.29,28.23,13.48,42.55,6.28,16.21-8.15,25.86-26.15,33.32-41.84,9.56-20.12,16.71-41.27,25.73-61.62,7.56-17,16.9-37.43,33.85-47,41.09-23.29,64.78,39.27,75.82,66.83,8,20.08,15.41,40.94,26.92,59.37,8.51,13.64,20.56,26.79,37.55,28.17,39.12,3.18,55.71-50.34,66.93-78.53,11.1-27.85,30.67-92.09,72.79-78.75,18.27,5.79,28.87,25.51,36.62,41.6,9.86,20.46,17.1,42,26.3,62.79,7.28,16.41,15.93,34.61,30.85,45.48a37.7,37.7,0,0,0,43.29,1.12c15.55-10.34,24.53-28.89,31.92-45.38,9.11-20.33,16.26-41.49,25.72-61.66,7.68-16.36,17.93-36.47,35.94-43.33,18.22-6.94,34.87,3.51,45.51,17.93,25.57,34.65,30.94,80.2,55.61,115.41,8.93,12.75,21.12,23.22,37.38,23.44,1.93,0,1.93-3,0-3-19.54-.26-32.23-16.35-41.06-32-11.17-19.77-18.53-41.48-27.17-62.41-11.29-27.34-32.44-76.74-71.07-62.28-16.48,6.17-26.73,22.85-34.34,37.76-10.08,19.75-17.26,40.83-25.9,61.21-7.56,17.84-16.32,38.72-32.45,50.58-15,11-33.9,8.32-46.92-4.33-14.68-14.25-22.8-34.88-30.39-53.45-8.31-20.36-15.58-41.4-26.43-60.6-8-14.2-19.34-29.36-36.34-32.75C1004.24,572,990,580.17,980,592.33c-13,15.79-20.68,35.64-28.22,54.42C943.45,667.36,936,688.86,924,707.69c-9.5,14.88-23.84,28.51-42.92,25.37-18.82-3.1-30.37-21.44-38.45-37-10.4-20-17.66-41.57-26.47-62.33-7.33-17.26-15.63-36.36-30.11-48.92-11.87-10.3-28.23-13.48-42.55-6.28-16.21,8.15-25.87,26.15-33.32,41.84-9.57,20.12-16.71,41.27-25.74,61.62-7.55,17-16.89,37.43-33.85,47-41.09,23.3-64.77-39.26-75.82-66.82-8-20.08-15.4-40.94-26.91-59.37-8.52-13.64-20.57-26.79-37.56-28.17-39.11-3.19-55.7,50.34-66.92,78.53-11.1,27.85-30.67,92.09-72.79,78.75-18.27-5.79-28.87-25.51-36.62-41.61-9.85-20.45-17.09-42-26.29-62.78-7.28-16.42-15.94-34.62-30.86-45.48a37.7,37.7,0,0,0-43.29-1.12C218,591.28,209,609.83,201.6,626.32c-9.11,20.33-16.26,41.49-25.72,61.66-7.68,16.36-17.93,36.46-35.94,43.32-18.22,6.94-34.87-3.5-45.51-17.92C68.86,678.72,63.49,633.18,38.83,598c-8.93-12.75-21.12-23.23-37.38-23.45a1.5,1.5,0,0,0,0,3Z"/><path class="cls-15" d="M1.45,621.7c18.91.25,32.08,13.74,41.62,28.77,10.63,16.74,18,35.35,26.38,53.24,12.8,27.23,34.35,67.16,71.19,55.1,15.57-5.1,26.12-19,34.1-32.59,10.13-17.22,17.42-35.92,26.1-53.86,7.74-16,16.78-34,32-44.11s34.2-8,47.75,3.67c14.08,12.09,22.46,30.13,30.16,46.62,8.35,17.86,15.71,36.45,26.47,53.05,8.57,13.22,20.24,25.87,36.49,28.62,15.49,2.62,29.77-3.93,40.25-15.14,26.35-28.17,33.19-69.22,55.4-100.21,10.36-14.44,25.43-25.72,44.1-22.68,17.69,2.88,29.46,18.11,38,32.61,10.13,17.21,17.42,35.92,26.1,53.86,7.58,15.67,16.31,32.6,30.52,43.33,12.06,9.11,28.14,11.51,42.11,5.37,15.2-6.68,25.14-21.6,32.87-35.63C692.9,704,700.2,685,709.35,666.9c7.86-15.55,17.63-33.22,33.9-41.28,39.24-19.45,62.86,30,75.68,57.94,12.69,27.65,28,74.18,64.3,77.1,37.41,3,54.78-41.29,67.34-68.89,12.78-28.1,32.59-80.06,72.93-68.66,17.25,4.88,28.21,21.34,36.38,36.18,9.9,18,17.25,37.16,26.54,55.41,7.51,14.76,16.61,30.67,31,39.71a41.73,41.73,0,0,0,42.37,1.07c14.88-8.36,24.3-24.3,31.91-39,9.33-18,16.63-37,26.21-54.9,8-15,18.62-32,35.62-37.85s33.67,1.56,45,14.49c25.81,29.36,32.08,71,56.15,101.57,9.46,12,22,20.79,37.7,21a1.5,1.5,0,0,0,0-3c-18.92-.26-32.08-13.75-41.62-28.78-10.63-16.74-18-35.35-26.38-53.24-12.8-27.23-34.36-67.16-71.2-55.09-15.57,5.09-26.12,19-34.11,32.59-10.12,17.21-17.42,35.91-26.1,53.86-7.73,16-16.77,34-32,44.1-15.11,10-34.19,8-47.75-3.66-14.07-12.1-22.45-30.14-30.16-46.63-8.34-17.86-15.71-36.44-26.47-53-8.57-13.23-20.23-25.87-36.48-28.62-15.5-2.62-29.78,3.93-40.26,15.13-26.35,28.17-33.18,69.23-55.41,100.21-10.36,14.44-25.42,25.72-44.1,22.68-17.68-2.87-29.46-18.1-38-32.61-10.14-17.21-17.42-35.91-26.1-53.86-7.59-15.67-16.32-32.6-30.52-43.33-12.07-9.1-28.14-11.51-42.11-5.37-15.2,6.68-25.14,21.61-32.87,35.63-9.79,17.76-17.1,36.74-26.24,54.82-7.87,15.55-17.64,33.22-33.91,41.29-39.23,19.44-62.86-30-75.67-58-12.7-27.65-28-74.18-64.31-77.1-37.4-3-54.77,41.3-67.33,68.9-12.78,28.09-32.59,80-72.93,68.65C353.13,751.5,342.18,735,334,720.21c-9.9-18-17.25-37.16-26.54-55.42-7.51-14.76-16.61-30.66-31-39.7A41.69,41.69,0,0,0,234.08,624c-14.88,8.36-24.31,24.31-31.92,39-9.32,18-16.62,37-26.2,54.89-8.06,15.05-18.62,32-35.62,37.85s-33.67-1.55-45-14.49c-25.81-29.35-32.07-71-56.14-101.56-9.47-12-22-20.79-37.7-21-1.93,0-1.93,3,0,3Z"/><path class="cls-16" d="M1.45,665.87c37.41.49,53.3,43.53,68.47,71,14.41,26.13,36.31,56,70.52,46.52,32-8.84,45.6-48,60.18-73.86,8.16-14.49,17.75-30.12,32.74-38.38,14.81-8.16,33.2-6.68,46.85,3.07,14,10,22.83,26,30.86,40.71,8.37,15.39,15.9,31.47,26.56,45.45,8.88,11.64,20.44,21.59,35.3,24S402.32,782,413.49,772c26-23.29,33.84-60.32,56.08-86.56,10.87-12.82,25.5-21.22,42.74-19.33s29.89,14.42,39.28,28.11c10.15,14.82,17.61,31.27,26.47,46.85,7.74,13.63,16.76,27.81,30.19,36.5A47.21,47.21,0,0,0,650.67,782c14.07-5.51,24.13-17.63,32.13-30,9.67-14.92,17-31.19,26-46.52,8.33-14.25,18.59-29.48,34.34-36.19,37.71-16.06,61.49,22.73,76.36,50.58,13.78,25.8,29.7,62.46,63.31,65.1,35.13,2.77,53.32-31.93,67.37-58.37,14.74-27.76,34.92-69,73.51-59.46,16.48,4.07,27.87,17.78,36.6,31.49,9.56,15,16.91,31.28,26,46.58,7.85,13.27,17.35,27,31.28,34.44a47.14,47.14,0,0,0,42.47.79c13.93-6.8,23.58-20,31.43-32.93,9.25-15.2,16.59-31.49,25.94-46.63,8.55-13.84,19.52-28.16,35.75-33.11,16.85-5.15,33.85.64,46,12.78,24.69,24.61,32.32,61.35,55.92,86.86,9.94,10.74,22.57,17.52,37.38,17.71a1.5,1.5,0,0,0,0-3c-37.41-.48-53.3-43.52-68.47-71-14.41-26.14-36.32-56-70.53-46.53-32,8.84-45.6,48-60.19,73.86-8.15,14.49-17.74,30.12-32.74,38.38-14.8,8.16-33.19,6.68-46.85-3.07-14-10-22.83-26-30.86-40.71-8.36-15.39-15.9-31.47-26.56-45.45-8.87-11.64-20.44-21.59-35.29-24s-29.4,2.43-40.57,12.44c-26,23.29-33.84,60.32-56.08,86.56-10.87,12.82-25.5,21.22-42.75,19.33s-29.88-14.42-39.27-28.11c-10.16-14.82-17.62-31.27-26.47-46.85-7.75-13.63-16.77-27.81-30.19-36.5A47.21,47.21,0,0,0,743.21,666c-14.07,5.51-24.13,17.63-32.13,30-9.67,14.92-17,31.19-26,46.52-8.33,14.25-18.58,29.48-34.33,36.19C613,794.76,589.25,756,574.38,728.12c-13.78-25.8-29.69-62.46-63.3-65.1-35.14-2.76-53.33,31.93-67.37,58.37-14.74,27.76-34.92,69-73.5,59.46-16.49-4.07-27.88-17.77-36.61-31.49-9.56-15-16.91-31.28-26-46.58-7.85-13.27-17.35-27-31.27-34.44a47.19,47.19,0,0,0-42.48-.79c-13.93,6.8-23.57,20-31.43,32.93-9.25,15.2-16.58,31.49-25.93,46.63C168,761,157,775.27,140.77,780.22c-16.85,5.15-33.85-.64-46-12.78-24.69-24.61-32.31-61.35-55.92-86.86-9.94-10.74-22.56-17.52-37.37-17.71a1.5,1.5,0,0,0,0,3Z"/><path class="cls-17" d="M1.45,710c65.78.82,65.84,114.4,138.73,98,30-6.74,44.53-38.09,60.16-61.3,8.49-12.61,18.39-25.42,32.48-32.07a51.47,51.47,0,0,1,47.53,2.39c26.67,16,36.93,49.21,57.11,71.49,19.76,21.82,51.57,28.29,76.07,9.83s34.14-50.29,55.63-71.71c11.67-11.62,26.59-17.92,43.18-16.43,16.19,1.45,29.06,11,39.16,23.21,18.74,22.59,29.77,55.2,56.9,69.71a54.7,54.7,0,0,0,42.05,3.66c13.54-4.4,24-14.34,32.53-25.4,17.82-23.08,30.35-58,60-68.55a51.69,51.69,0,0,1,46.33,6.24c12.93,9,21.8,22.71,30.15,35.74,15.3,23.87,31.94,52.4,63.48,54.4,32.58,2.07,51.38-24,67.06-48.54,16.9-26.5,37.59-57.26,73.88-49.62,31.84,6.71,45.83,41.91,62.91,65.69,8.15,11.35,17.83,22.24,30.82,28.05a54.72,54.72,0,0,0,42.26.66c27.93-11.42,40.4-43.27,57.16-66,9.21-12.49,20.66-24,36.16-27.93a52.05,52.05,0,0,1,46.16,10.79c23.83,19.87,33,52.07,56.13,72.58a55.74,55.74,0,0,0,37,14.45c1.93,0,1.93-3,0-3-65.78-.81-65.85-114.39-138.74-98-30,6.74-44.54,38.09-60.16,61.3-8.49,12.61-18.39,25.42-32.48,32.06a51.49,51.49,0,0,1-47.53-2.38c-26.67-16-36.94-49.21-57.12-71.49-19.76-21.82-51.57-28.29-76.07-9.83s-34.14,50.28-55.64,71.71c-11.66,11.62-26.58,17.91-43.18,16.43-16.18-1.46-29.06-11-39.15-23.21-18.75-22.6-29.78-55.21-56.9-69.71a54.7,54.7,0,0,0-42.05-3.67c-13.55,4.41-24,14.35-32.53,25.41-17.83,23.08-30.36,58-60,68.55a51.72,51.72,0,0,1-46.34-6.25c-12.92-9-21.79-22.7-30.14-35.73-15.3-23.87-31.94-52.4-63.48-54.41-32.59-2.07-51.39,24-67.06,48.55C427,782.2,406.27,813,370,805.32c-31.83-6.71-45.83-41.9-62.91-65.68-8.15-11.35-17.82-22.24-30.82-28.06a54.67,54.67,0,0,0-42.26-.65c-27.93,11.41-40.4,43.27-57.16,66-9.2,12.49-20.65,24-36.15,27.93a52,52,0,0,1-46.16-10.8C70.69,774.2,61.58,742,38.4,721.5A55.8,55.8,0,0,0,1.45,707a1.5,1.5,0,0,0,0,3Z"/><path class="cls-18" d="M1.45,754.22A62,62,0,0,1,43.13,770.5c10.1,9,18,20.16,26.55,30.57,8.27,10,17.4,19.77,29.1,25.82,12.47,6.45,27.08,8.2,40.86,5.84,28-4.81,43.4-28.68,60.38-48.88,9.19-10.93,19.71-21.22,33.4-26.15A62.42,62.42,0,0,1,280.73,760c25.1,12.16,36.9,39.75,57.29,57.43,20.76,18,51.6,21.91,75.49,7.44,23.13-14,34.47-40.28,55.15-57,25.28-20.47,60.5-16.77,83.25,5.4,18.81,18.35,31.25,44.5,56.44,55.4,26.22,11.35,54.72,3,74-16.82,18.94-19.41,32.4-47.18,60.26-55.26,15.39-4.45,32.91-2.87,46.93,5,12.27,6.9,21.47,17.84,30.15,28.67,17,21.15,34.32,42,63.49,43.36,30,1.41,49.36-17.13,66.81-39,8.54-10.71,17.09-21.85,28.44-29.76a61.64,61.64,0,0,1,45.53-9.76c29.53,5,44.37,31.75,62.65,52.26,18.71,21,45.26,32.5,73.24,23.23,26.12-8.64,39.55-33.85,57.17-52.91,9.77-10.56,21.41-19.18,35.74-22.15,15.75-3.26,32.56-.61,46.09,8.19,22.83,14.85,34,41.73,55.79,57.77,11.11,8.18,24,12.07,37.76,12.22,1.93,0,1.93-3,0-3a62.05,62.05,0,0,1-41.69-16.27c-10.09-9-18-20.17-26.55-30.58-8.27-10-17.4-19.77-29.1-25.82-12.47-6.45-27.07-8.19-40.86-5.83-28,4.8-43.4,28.67-60.38,48.87-9.19,10.93-19.71,21.22-33.41,26.15a62.47,62.47,0,0,1-47.31-2.3c-25.1-12.17-36.9-39.75-57.28-57.44-20.76-18-51.61-21.91-75.5-7.44-23.13,14-34.47,40.28-55.15,57-25.28,20.46-60.5,16.76-83.25-5.41-18.81-18.34-31.25-44.5-56.44-55.39-26.23-11.35-54.73-3-74,16.81-18.94,19.41-32.41,47.19-60.27,55.26-15.39,4.46-32.9,2.87-46.92-5-12.27-6.89-21.47-17.84-30.16-28.67-16.94-21.15-34.31-42-63.49-43.35-30-1.41-49.35,17.12-66.81,39-8.53,10.7-17.08,21.84-28.43,29.75a61.59,61.59,0,0,1-45.53,9.76c-29.53-5-44.37-31.74-62.64-52.26-18.72-21-45.27-32.49-73.25-23.23-26.11,8.65-39.54,33.86-57.17,52.92-9.76,10.56-21.4,19.18-35.73,22.14-15.75,3.26-32.56.61-46.09-8.19-22.82-14.85-34-41.73-55.78-57.77-11.12-8.18-24-12.06-37.76-12.22a1.5,1.5,0,0,0,0,3Z"/><path class="cls-19" d="M1.45,798.39c14.73.15,28.67,3.63,41.07,11.73,10.24,6.69,18.68,15.61,27.7,23.78,19.65,17.81,42.6,26.86,69.45,23.36,25.64-3.35,41.84-20.19,60.15-36.57,22.06-19.73,51.24-28.25,80.09-18.28,23.62,8.16,37.57,29.67,57.72,43.07,21.77,14.48,51.72,16.73,75.57,6,21.82-9.82,35.24-30.71,55.41-42.89,25.09-15.14,58.92-13.39,82.64,3.53,19.21,13.7,33,33.79,56.11,41.76a80.74,80.74,0,0,0,74.84-12.22c19.76-15.17,34.53-35.76,60.18-41.44,15.5-3.44,32.77-2.43,47.45,3.78,11.5,4.86,20.95,12.94,30,21.38,8.41,7.88,16.71,16,26.64,22a75.66,75.66,0,0,0,36.22,10.54c13.68.56,27.44-1.77,39.68-8.06,10.19-5.24,18.75-12.89,27-20.68,8.77-8.23,17.51-16.63,28.17-22.39,13.73-7.4,29.68-9.56,45.09-7.92,14.12,1.51,26.93,7.22,38.05,16,9.3,7.3,17.31,16.07,26.38,23.64,20.38,17,46.57,23.63,72.65,17.22,24-5.91,38.68-24.61,57-39.55,22.92-18.69,55.89-23.85,82.82-10.37,21.43,10.73,34.85,32.07,55.87,43.41,11.46,6.18,24.09,8.69,37,8.82a1.5,1.5,0,0,0,0-3c-14.73-.15-28.68-3.63-41.08-11.73-10.24-6.69-18.67-15.62-27.69-23.78-19.66-17.81-42.61-26.86-69.46-23.36-25.64,3.35-41.84,20.19-60.15,36.57C1172,852.44,1142.82,861,1114,851c-23.61-8.16-37.57-29.67-57.72-43.07-21.77-14.48-51.72-16.74-75.57-6-21.82,9.82-35.24,30.71-55.41,42.88-25.09,15.14-58.92,13.4-82.65-3.52-19.21-13.7-33-33.79-56.11-41.76a80.72,80.72,0,0,0-74.83,12.22c-19.76,15.17-34.53,35.76-60.18,41.44-15.5,3.44-32.77,2.43-47.45-3.78-11.5-4.86-21-12.94-30-21.39-8.42-7.87-16.72-16-26.65-22a75.69,75.69,0,0,0-36.21-10.53c-13.68-.56-27.44,1.77-39.68,8.06-10.19,5.24-18.75,12.89-27,20.68-8.77,8.23-17.51,16.63-28.17,22.39-13.73,7.4-29.68,9.56-45.08,7.92-14.13-1.51-26.94-7.23-38.05-16-9.3-7.3-17.32-16.07-26.38-23.64-20.39-17-46.58-23.63-72.66-17.22-24,5.91-38.67,24.61-57,39.55-22.92,18.69-55.89,23.85-82.82,10.37-21.43-10.73-34.85-32.07-55.87-43.41-11.45-6.18-24.09-8.69-37-8.82a1.5,1.5,0,0,0,0,3Z"/><path class="cls-20" d="M1.45,842.57c14.49.11,28.78,2.23,42.08,8.19,9.47,4.25,18,10.14,26.87,15.5C92,879.32,115.76,884.19,141,881.69a98.1,98.1,0,0,0,33.22-9.24c9.28-4.5,17.71-10.47,26.59-15.67C224.52,842.85,253.18,839,280,845.26c22,5.1,38.28,20.29,58.55,29,23,9.93,51.4,10.87,75.24,3.43,20.6-6.43,36.57-21.68,56.65-29.15,25.49-9.49,57-8.47,81.54,3.43,19.07,9.25,34.9,23,56.08,27.69,24.65,5.48,52,3.12,74.49-8.57,9.12-4.73,17.49-10.74,26.43-15.77a96.3,96.3,0,0,1,34.36-11.73c27.67-3.77,52.87,2.17,76.32,16.76,19.78,12.3,38.56,21.07,62.35,21.84,13.71.44,27.66-.94,40.66-5.52,9.75-3.43,18.58-8.65,27.31-14.12,9.35-5.86,18.74-11.57,29.28-15.07,13.68-4.54,28.38-5.62,42.69-4.68a96.41,96.41,0,0,1,38.45,10.48c9.12,4.72,17.49,10.74,26.43,15.77,21.85,12.28,47.29,15.64,72,11.79,22.54-3.51,39-16.47,58.5-26.89,24.15-12.9,54.8-15.1,80.87-7,20.58,6.42,36.58,21.68,56.66,29.15,12.05,4.48,24.79,6,37.58,6.13a1.5,1.5,0,0,0,0-3c-14.49-.11-28.79-2.24-42.08-8.2-9.48-4.24-18-10.14-26.87-15.49-21.62-13.07-45.37-17.94-70.57-15.43a97.81,97.81,0,0,0-33.22,9.24c-9.28,4.5-17.71,10.47-26.59,15.67-23.76,13.92-52.42,17.75-79.27,11.52-22-5.1-38.29-20.3-58.56-29.06-23-9.93-51.4-10.86-75.24-3.42-20.6,6.42-36.58,21.68-56.66,29.15-25.48,9.48-57,8.47-81.54-3.43-19.06-9.25-34.9-23-56.07-27.69-24.65-5.48-52-3.12-74.5,8.56-9.12,4.73-17.48,10.75-26.43,15.78a96.21,96.21,0,0,1-34.36,11.72c-27.66,3.78-52.87-2.16-76.32-16.75-19.78-12.3-38.56-21.07-62.34-21.84-13.71-.44-27.67.94-40.66,5.51-9.75,3.44-18.59,8.66-27.31,14.12-9.35,5.86-18.74,11.58-29.28,15.08-13.67,4.54-28.37,5.62-42.69,4.68a96.74,96.74,0,0,1-38.45-10.48c-9.12-4.73-17.48-10.74-26.43-15.77-21.85-12.29-47.29-15.64-72-11.8-22.54,3.52-39,16.47-58.51,26.9-24.14,12.89-54.79,15.1-80.86,7C75.11,868.43,59.1,853.16,39,845.69c-12-4.48-24.78-6-37.57-6.12a1.5,1.5,0,0,0,0,3Z"/><path class="cls-21" d="M1.45,886.74c23.91.1,45.44,4.59,68.12,11.53,23.37,7.15,47.37,9.27,71.76,8,20.83-1.08,39.69-6.75,59.53-12.52,25.3-7.36,52.38-8.65,78.5-5.77,20.08,2.22,38.41,9.89,58,14.31,24.66,5.58,51.38,5.89,76.31,2,19.33-3,37.32-10.92,56.49-14.54,26.06-4.91,54.73-4.66,80.59,1.33,18.89,4.37,36.68,11.69,56.07,14,25.44,3.06,52.22,2.19,77.05-4.48,20-5.38,38.68-12,59.57-13.39,25.71-1.73,51,.5,75.63,8.11,21.11,6.53,41.49,10.9,63.73,11.2a211.86,211.86,0,0,0,67.48-10,212.78,212.78,0,0,1,72.81-9.7c22.13.82,41.84,6.72,62.88,12.76,24.11,6.93,49.67,8.28,74.59,6.08,20.08-1.77,38.26-8.52,57.58-13.55,25.63-6.67,53.81-7.33,79.92-3.3,19.33,3,37.32,10.93,56.49,14.54a208.73,208.73,0,0,0,37.94,3.16,1.5,1.5,0,0,0,0-3c-23.91-.1-45.45-4.59-68.12-11.53-23.37-7.15-47.38-9.27-71.77-8-20.84,1.08-39.69,6.75-59.54,12.52-25.29,7.36-52.38,8.66-78.49,5.77-20.09-2.22-38.42-9.88-58-14.31-24.66-5.58-51.38-5.89-76.31-2-19.33,3-37.32,10.93-56.49,14.54-26.06,4.92-54.74,4.66-80.6-1.33-18.89-4.37-36.67-11.69-56.07-14-25.43-3.06-52.22-2.19-77,4.49-20,5.37-38.68,12-59.57,13.38-25.71,1.73-51-.5-75.64-8.11-21.11-6.53-41.48-10.9-63.72-11.2a212,212,0,0,0-67.49,10,212.69,212.69,0,0,1-72.8,9.7c-22.13-.82-41.84-6.71-62.87-12.76-24.11-6.93-49.68-8.27-74.6-6.08-20.07,1.77-38.26,8.52-57.57,13.55-25.63,6.67-53.8,7.33-79.92,3.3-19.32-3-37.31-10.93-56.48-14.54a209.71,209.71,0,0,0-37.94-3.16,1.5,1.5,0,0,0,0,3Z"/><path class="cls-22" d="M1.45,930.91H1336c18,0,36.09.39,54.1,0h2.37a1.5,1.5,0,0,0,0-3H57.91c-18,0-36.08-.38-54.1,0-.78,0-1.57,0-2.36,0a1.5,1.5,0,0,0,0,3Z"/></g></g></svg>