<svg xmlns="http://www.w3.org/2000/svg" viewBox="0 0 418.22 415.58"><defs><style>.cls-1,.cls-10,.cls-11,.cls-12,.cls-13,.cls-14,.cls-18,.cls-19,.cls-2,.cls-3,.cls-4,.cls-5,.cls-6,.cls-7,.cls-8,.cls-9{fill:none;}.cls-1,.cls-10,.cls-11,.cls-12,.cls-13,.cls-2,.cls-3,.cls-4,.cls-5,.cls-6,.cls-7,.cls-8{stroke:#fff;}.cls-1,.cls-12,.cls-14,.cls-17,.cls-18,.cls-19,.cls-2,.cls-3,.cls-4,.cls-5,.cls-6,.cls-7,.cls-8{stroke-miterlimit:10;}.cls-1{stroke-width:0.22px;stroke-dasharray:4 4;}.cls-2{stroke-width:0.26px;stroke-dasharray:3.75 3.75;}.cls-3{stroke-width:0.3px;stroke-dasharray:3.5 3.5;}.cls-4{stroke-width:0.34px;stroke-dasharray:3.26 3.26;}.cls-5{stroke-width:0.38px;stroke-dasharray:3.02 3.02;}.cls-6{stroke-width:0.42px;stroke-dasharray:2.76 2.76;}.cls-7{stroke-width:0.46px;stroke-dasharray:2.49 2.49;}.cls-8{stroke-width:0.49px;stroke-dasharray:2.27 2.27;}.cls-14,.cls-17,.cls-9{stroke:#00bbce;}.cls-10,.cls-11,.cls-13,.cls-9{stroke-linecap:round;stroke-linejoin:round;}.cls-12,.cls-9{stroke-width:2px;}.cls-10,.cls-19{stroke-width:0.5px;}.cls-11{stroke-width:0.25px;}.cls-12{opacity:0.99;}.cls-13{stroke-width:4px;}.cls-15{fill:#ff4851;}.cls-16{fill:#041127;}.cls-17{fill:#fff;}.cls-18,.cls-19{stroke:#ff4851;}</style></defs><title>Asset 1</title><g id="Layer_2" data-name="Layer 2"><g id="Icons_and_Form_Fields" data-name="Icons and Form Fields"><ellipse class="cls-1" cx="209.11" cy="100.72" rx="209" ry="51.78"/><ellipse class="cls-2" cx="209.11" cy="120.83" rx="180.36" ry="44.68"/><ellipse class="cls-3" cx="209.11" cy="140.94" rx="151.71" ry="37.59"/><path class="cls-4" d="M332.18,161.05c0,16.84-55.1,30.49-123.07,30.49S86,177.89,86,161.05s55.1-30.49,123.07-30.49S332.18,144.21,332.18,161.05Z"/><ellipse class="cls-5" cx="209.11" cy="181.16" rx="94.43" ry="23.4"/><ellipse class="cls-6" cx="209.11" cy="201.27" rx="65.79" ry="16.3"/><path class="cls-7" d="M246.25,221.38c0,5.08-16.63,9.2-37.14,9.2S172,226.46,172,221.38s16.63-9.21,37.14-9.21S246.25,216.29,246.25,221.38Z"/><ellipse class="cls-8" cx="209.11" cy="241.48" rx="8.5" ry="2.11"/><path class="cls-9" d="M265.74,293.34c31.48,12,31.65,31.46.37,43.46s-82.16,12-113.64,0-31.64-31.46-.36-43.46S234.26,281.33,265.74,293.34Z"/><path class="cls-9" d="M289.46,315.22l-.12,29.49c0,7.82-7.82,15.62-23.35,21.59-31.28,12-82.16,12-113.65,0-15.84-6-23.74-14-23.71-21.88l.13-29.49c0,7.91,7.87,15.84,23.71,21.87,31.48,12,82.36,12,113.64,0C281.65,330.84,289.43,323,289.46,315.22Z"/><path class="cls-10" d="M290.52,318.79c.54.19,1.08.4,1.61.6,46.15,17.59,46.39,46.12.54,63.72s-120.44,17.6-166.59,0S79.7,337,125.55,319.4c.63-.25,1.26-.48,1.9-.72"/><path class="cls-11" d="M284.17,304.17a232.55,232.55,0,0,1,34.35,9.92c60.82,23.18,61.14,60.78.71,84s-158.72,23.19-219.54,0-61.12-60.78-.69-84A233.16,233.16,0,0,1,134.26,304"/><rect class="cls-12" x="193.97" y="208.96" width="30.27" height="66.12" rx="15.14" ry="15.14"/><path class="cls-13" d="M232.79,261.1a23.68,23.68,0,0,1-23.68,23.68h0a23.69,23.69,0,0,1-23.69-23.68"/><line class="cls-13" x1="209.11" y1="286.12" x2="209.11" y2="308.45"/><polyline class="cls-14" points="134.25 47.5 134.25 133.99 208.75 176.87 283.25 133.47 283.25 47.5"/><polyline class="cls-14" points="171.75 111.34 208.75 133.3 245.75 111.34 245.75 68.5 208.75 48.24 208.75 5"/><circle class="cls-15" cx="208.75" cy="90" r="17.5"/><circle class="cls-16" cx="183.46" cy="44.61" r="2.39"/><circle class="cls-16" cx="234.74" cy="44.61" r="2.39"/><circle class="cls-16" cx="183.46" cy="133.95" r="2.39"/><circle class="cls-16" cx="157.19" cy="90.82" r="2.39"/><circle class="cls-16" cx="258.66" cy="90.82" r="2.39"/><circle class="cls-16" cx="234.74" cy="133.95" r="2.39"/><line class="cls-14" x1="208.25" y1="89.5" x2="134.25" y2="47.5"/><line class="cls-14" x1="134.75" y1="47" x2="208.75" y2="5"/><line class="cls-14" x1="282.75" y1="47" x2="208.75" y2="5"/><circle class="cls-17" cx="208.75" cy="5" r="4.5"/><circle class="cls-17" cx="208.75" cy="48.24" r="4.5"/><circle class="cls-17" cx="134.25" cy="47.5" r="4.5"/><circle class="cls-17" cx="171.25" cy="26.2" r="4.5"/><circle class="cls-17" cx="171.25" cy="26.2" r="4.5"/><circle class="cls-17" cx="283.25" cy="47.5" r="4.5"/><circle class="cls-17" cx="246.25" cy="26.2" r="4.5"/><circle class="cls-17" cx="208.75" cy="90" r="4.5"/><polyline class="cls-14" points="134.25 133.99 171.75 111.34 171.75 68.7"/><circle class="cls-17" cx="171.75" cy="68.7" r="4.5"/><circle class="cls-17" cx="134.25" cy="90.82" r="4.5"/><circle class="cls-17" cx="134.25" cy="133.3" r="4.5"/><circle class="cls-17" cx="171.75" cy="111.56" r="4.5"/><circle class="cls-17" cx="171.75" cy="155.09" r="4.5"/><line class="cls-14" x1="208.75" y1="133.3" x2="208.75" y2="176.87"/><circle class="cls-17" cx="208.75" cy="132.92" r="4.5"/><circle class="cls-17" cx="208.75" cy="176.44" r="4.5"/><circle class="cls-17" cx="245.75" cy="111.15" r="4.5"/><circle class="cls-17" cx="245.75" cy="154.68" r="4.5"/><circle class="cls-17" cx="282.75" cy="90.42" r="4.5"/><circle class="cls-17" cx="245.75" cy="68.7" r="4.5"/><circle class="cls-17" cx="282.75" cy="133.95" r="4.5"/><circle class="cls-18" cx="283.25" cy="48" r="17.5"/><circle class="cls-19" cx="283.25" cy="48" r="42"/></g></g></svg>