<?xml version="1.0" encoding="utf-8"?>
<!-- Generator: Adobe Illustrator 22.1.0, SVG Export Plug-In . SVG Version: 6.00 Build 0)  -->
<svg version="1.1" id="Layer_1" xmlns="http://www.w3.org/2000/svg" xmlns:xlink="http://www.w3.org/1999/xlink" x="0px" y="0px"
	 viewBox="0 0 418.2 415.6" style="enable-background:new 0 0 418.2 415.6;" xml:space="preserve">
<style type="text/css">
	.st0{opacity:0.7;}
	.st1{enable-background:new    ;}
	.st2{fill:#570A91;}
	.st3{fill:#FFFFFF;}
	.st4{opacity:0.2;}
	.st5{fill:#D3C5EA;}
	.st6{fill:#734794;}
	.st7{fill:#CCC9E2;}
	.st8{fill:#9D9DED;}
	.st9{fill:#C594E3;}
	.st10{fill:#ED69AF;}
	.st11{opacity:0.9;}
	.st12{fill:#B19BC4;}
	.st13{fill:#D7C3E3;}
	.st14{opacity:0.6;}
	.st15{fill:#AB93C1;}
	.st16{opacity:0.8;}
	.st17{fill:#C0A4D8;}
	.st18{fill:#662D91;}
	.st19{opacity:0.4;}
	.st20{clip-path:url(#SVGID_2_);fill:#FFFFFF;}
	.st21{fill:url(#SVGID_3_);}
	.st22{clip-path:url(#SVGID_5_);fill:#FFFFFF;}
	.st23{fill:url(#SVGID_6_);}
</style>
<title>Asset 1</title>
<g>
	<g>
		<g class="st0">
			<g class="st1">
				<g>
					<g>
						<g>
							<path class="st2" d="M261.7,121.4c0,0-0.1,0-0.1,0c-0.1,0-0.1-0.1-0.1-0.2l-0.2-60.1c0-0.1,0-0.2,0.1-0.2l52.3-30.2
								c0.1,0,0.2,0,0.2,0c0.1,0,0.1,0.1,0.1,0.2l0.2,60.1c0,0.1,0,0.2-0.1,0.2l-52.3,30.2C261.8,121.4,261.7,121.4,261.7,121.4z
								 M261.8,61.2l0.2,59.6l51.8-29.9l-0.2-59.6L261.8,61.2z"/>
						</g>
					</g>
				</g>
				<g>
					<g>
						<g>
							<path class="st2" d="M261.7,121.4c0,0-0.1,0-0.1,0l-51.8-30.1c-0.1,0-0.1-0.1-0.1-0.2L209.5,31c0-0.1,0-0.2,0.1-0.2
								s0.2,0,0.3,0l51.8,30.1c0.1,0,0.1,0.1,0.1,0.2l0.2,60.1c0,0.1,0,0.2-0.1,0.2C261.8,121.4,261.7,121.4,261.7,121.4z
								 M210.1,90.9l51.3,29.8l-0.2-59.6L210,31.4L210.1,90.9z"/>
						</g>
					</g>
				</g>
				<g>
					<g>
						<g>
							<path class="st2" d="M261.5,61.3c0,0-0.1,0-0.1,0l-51.8-30.1c-0.1,0-0.1-0.1-0.1-0.2c0-0.1,0-0.2,0.1-0.2l52.3-30.2
								c0.1,0,0.2,0,0.3,0L314,30.6c0.1,0,0.1,0.1,0.1,0.2c0,0.1,0,0.2-0.1,0.2l-52.3,30.2C261.6,61.3,261.6,61.3,261.5,61.3z
								 M210.2,31l51.3,29.8l51.8-29.9L262.1,1L210.2,31z"/>
						</g>
					</g>
				</g>
			</g>
		</g>
		<g class="st0">
			<g class="st1">
				<g>
					<g>
						<g>
							<path class="st2" d="M365.9,121.4c0,0-0.1,0-0.1,0c-0.1,0-0.1-0.1-0.1-0.2l-0.2-60.1c0-0.1,0-0.2,0.1-0.2l52.3-30.2
								c0.1,0,0.2,0,0.2,0c0.1,0,0.1,0.1,0.1,0.2l0.2,60.1c0,0.1,0,0.2-0.1,0.2L366,121.4C366,121.4,365.9,121.4,365.9,121.4z
								 M366,61.2l0.2,59.6L418,90.8l-0.2-59.6L366,61.2z"/>
						</g>
					</g>
				</g>
				<g>
					<g>
						<g>
							<path class="st2" d="M365.9,121.4c0,0-0.1,0-0.1,0l-51.8-30.1c-0.1,0-0.1-0.1-0.1-0.2L313.6,31c0-0.1,0-0.2,0.1-0.2
								c0.1,0,0.2,0,0.3,0l51.8,30.1c0.1,0,0.1,0.1,0.1,0.2l0.2,60.1c0,0.1,0,0.2-0.1,0.2C366,121.4,365.9,121.4,365.9,121.4z
								 M314.3,90.9l51.3,29.8l-0.2-59.6l-51.3-29.8L314.3,90.9z"/>
						</g>
					</g>
				</g>
				<g>
					<g>
						<g>
							<path class="st2" d="M365.7,61.3c0,0-0.1,0-0.1,0l-51.8-30.1c-0.1,0-0.1-0.1-0.1-0.2c0-0.1,0-0.2,0.1-0.2l52.3-30.2
								c0.1,0,0.2,0,0.3,0l51.8,30.1c0.1,0,0.1,0.1,0.1,0.2c0,0.1,0,0.2-0.1,0.2l-52.3,30.2C365.8,61.3,365.7,61.3,365.7,61.3z
								 M314.4,31l51.3,29.8l51.8-29.9L366.2,1L314.4,31z"/>
						</g>
					</g>
				</g>
			</g>
		</g>
		<g class="st0">
			<g class="st1">
				<g>
					<g>
						<g>
							<path class="st2" d="M313.9,212c0,0-0.1,0-0.1,0c-0.1,0-0.1-0.1-0.1-0.2l-0.2-60.1c0-0.1,0-0.2,0.1-0.2l52.3-30.2
								c0.1,0,0.2,0,0.2,0c0.1,0,0.1,0.1,0.1,0.2l0.2,60.1c0,0.1,0,0.2-0.1,0.2L314,212C314,212,313.9,212,313.9,212z M313.9,151.8
								l0.2,59.6l51.8-29.9l-0.2-59.6L313.9,151.8z"/>
						</g>
					</g>
				</g>
				<g>
					<g>
						<g>
							<path class="st2" d="M313.9,212c0,0-0.1,0-0.1,0l-51.8-30.1c-0.1,0-0.1-0.1-0.1-0.2l-0.2-60.1c0-0.1,0-0.2,0.1-0.2
								c0.1,0,0.2,0,0.3,0l51.8,30.1c0.1,0,0.1,0.1,0.1,0.2l0.2,60.1c0,0.1,0,0.2-0.1,0.2C314,212,313.9,212,313.9,212z
								 M262.3,181.5l51.3,29.8l-0.2-59.6l-51.3-29.8L262.3,181.5z"/>
						</g>
					</g>
				</g>
				<g>
					<g>
						<g>
							<path class="st2" d="M313.7,151.9c0,0-0.1,0-0.1,0l-51.8-30.1c-0.1,0-0.1-0.1-0.1-0.2c0-0.1,0-0.2,0.1-0.2l52.3-30.2
								c0.1,0,0.2,0,0.3,0l51.8,30.1c0.1,0,0.1,0.1,0.1,0.2c0,0.1,0,0.2-0.1,0.2l-52.3,30.2C313.8,151.9,313.7,151.9,313.7,151.9z
								 M262.4,121.5l51.3,29.8l51.8-29.9l-51.3-29.8L262.4,121.5z"/>
						</g>
					</g>
				</g>
			</g>
		</g>
		<g class="st0">
			<g class="st1">
				<g>
					<g>
						<g>
							<path class="st2" d="M53.4,121.4c0,0-0.1,0-0.1,0c-0.1,0-0.1-0.1-0.1-0.2l-0.2-60.1c0-0.1,0-0.2,0.1-0.2l52.3-30.2
								c0.1,0,0.2,0,0.2,0c0.1,0,0.1,0.1,0.1,0.2L106,91c0,0.1,0,0.2-0.1,0.2l-52.3,30.2C53.5,121.4,53.4,121.4,53.4,121.4z
								 M53.4,61.2l0.2,59.6l51.8-29.9l-0.2-59.6L53.4,61.2z"/>
						</g>
					</g>
				</g>
				<g>
					<g>
						<g>
							<path class="st2" d="M53.4,121.4c0,0-0.1,0-0.1,0L1.4,91.3c-0.1,0-0.1-0.1-0.1-0.2L1.1,31c0-0.1,0-0.2,0.1-0.2
								c0.1,0,0.2,0,0.3,0l51.8,30.1c0.1,0,0.1,0.1,0.1,0.2l0.2,60.1c0,0.1,0,0.2-0.1,0.2C53.5,121.4,53.4,121.4,53.4,121.4z
								 M1.8,90.9l51.3,29.8l-0.2-59.6L1.6,31.4L1.8,90.9z"/>
						</g>
					</g>
				</g>
				<g>
					<g>
						<g>
							<path class="st2" d="M53.2,61.3c0,0-0.1,0-0.1,0L1.3,31.2c-0.1,0-0.1-0.1-0.1-0.2c0-0.1,0-0.2,0.1-0.2L53.6,0.5
								c0.1,0,0.2,0,0.3,0l51.8,30.1c0.1,0,0.1,0.1,0.1,0.2c0,0.1,0,0.2-0.1,0.2L53.3,61.3C53.3,61.3,53.2,61.3,53.2,61.3z M1.9,31
								l51.3,29.8L105,30.8L53.7,1L1.9,31z"/>
						</g>
					</g>
				</g>
			</g>
		</g>
		<g class="st0">
			<g class="st1">
				<g>
					<g>
						<g>
							<path class="st2" d="M157.5,121.4c0,0-0.1,0-0.1,0c-0.1,0-0.1-0.1-0.1-0.2l-0.2-60.1c0-0.1,0-0.2,0.1-0.2l52.3-30.2
								c0.1,0,0.2,0,0.2,0c0.1,0,0.1,0.1,0.1,0.2l0.2,60.1c0,0.1,0,0.2-0.1,0.2l-52.3,30.2C157.6,121.4,157.6,121.4,157.5,121.4z
								 M157.6,61.2l0.2,59.6l51.8-29.9l-0.2-59.6L157.6,61.2z"/>
						</g>
					</g>
				</g>
				<g>
					<g>
						<g>
							<path class="st2" d="M157.5,121.4c0,0-0.1,0-0.1,0l-51.8-30.1c-0.1,0-0.1-0.1-0.1-0.2L105.3,31c0-0.1,0-0.2,0.1-0.2
								c0.1,0,0.2,0,0.3,0l51.8,30.1c0.1,0,0.1,0.1,0.1,0.2l0.2,60.1c0,0.1,0,0.2-0.1,0.2C157.6,121.4,157.6,121.4,157.5,121.4z
								 M106,90.9l51.3,29.8l-0.2-59.6l-51.3-29.8L106,90.9z"/>
						</g>
					</g>
				</g>
				<g>
					<g>
						<g>
							<path class="st2" d="M157.4,61.3c0,0-0.1,0-0.1,0l-51.8-30.1c-0.1,0-0.1-0.1-0.1-0.2c0-0.1,0-0.2,0.1-0.2l52.3-30.2
								c0.1,0,0.2,0,0.3,0l51.8,30.1c0.1,0,0.1,0.1,0.1,0.2c0,0.1,0,0.2-0.1,0.2l-52.3,30.2C157.5,61.3,157.4,61.3,157.4,61.3z
								 M106.1,31l51.3,29.8l51.8-29.9L157.9,1L106.1,31z"/>
						</g>
					</g>
				</g>
			</g>
		</g>
		<g class="st0">
			<g class="st1">
				<g>
					<g>
						<g>
							<path class="st2" d="M105.5,212c0,0-0.1,0-0.1,0c-0.1,0-0.1-0.1-0.1-0.2l-0.2-60.1c0-0.1,0-0.2,0.1-0.2l52.3-30.2
								c0.1,0,0.2,0,0.2,0c0.1,0,0.1,0.1,0.1,0.2l0.2,60.1c0,0.1,0,0.2-0.1,0.2L105.7,212C105.6,212,105.6,212,105.5,212z
								 M105.6,151.8l0.2,59.6l51.8-29.9l-0.2-59.6L105.6,151.8z"/>
						</g>
					</g>
				</g>
				<g>
					<g>
						<g>
							<path class="st2" d="M105.5,212c0,0-0.1,0-0.1,0l-51.8-30.1c-0.1,0-0.1-0.1-0.1-0.2l-0.2-60.1c0-0.1,0-0.2,0.1-0.2
								c0.1,0,0.2,0,0.3,0l51.8,30.1c0.1,0,0.1,0.1,0.1,0.2l0.2,60.1c0,0.1,0,0.2-0.1,0.2C105.6,212,105.6,212,105.5,212z M54,181.5
								l51.3,29.8l-0.2-59.6l-51.3-29.8L54,181.5z"/>
						</g>
					</g>
				</g>
				<g>
					<g>
						<g>
							<path class="st2" d="M105.4,151.9c0,0-0.1,0-0.1,0l-51.8-30.1c-0.1,0-0.1-0.1-0.1-0.2c0-0.1,0-0.2,0.1-0.2l52.3-30.2
								c0.1,0,0.2,0,0.3,0l51.8,30.1c0.1,0,0.1,0.1,0.1,0.2c0,0.1,0,0.2-0.1,0.2l-52.3,30.2C105.4,151.9,105.4,151.9,105.4,151.9z
								 M54,121.5l51.3,29.8l51.8-29.9l-51.3-29.8L54,121.5z"/>
						</g>
					</g>
				</g>
			</g>
		</g>
		<g class="st0">
			<g class="st1">
				<g>
					<g>
						<g>
							<path class="st2" d="M209.5,212c0,0-0.1,0-0.1,0c-0.1,0-0.1-0.1-0.1-0.2l-0.2-60.1c0-0.1,0-0.2,0.1-0.2l52.3-30.2
								c0.1,0,0.2,0,0.2,0c0.1,0,0.1,0.1,0.1,0.2l0.2,60.1c0,0.1,0,0.2-0.1,0.2L209.7,212C209.6,212,209.6,212,209.5,212z
								 M209.6,151.8l0.2,59.6l51.8-29.9l-0.2-59.6L209.6,151.8z"/>
						</g>
					</g>
				</g>
				<g>
					<g>
						<g>
							<path class="st2" d="M209.5,212c0,0-0.1,0-0.1,0l-51.8-30.1c-0.1,0-0.1-0.1-0.1-0.2l-0.2-60.1c0-0.1,0-0.2,0.1-0.2
								c0.1,0,0.2,0,0.3,0l51.8,30.1c0.1,0,0.1,0.1,0.1,0.2l0.2,60.1c0,0.1,0,0.2-0.1,0.2C209.6,212,209.6,212,209.5,212z
								 M158,181.5l51.3,29.8l-0.2-59.6l-51.3-29.8L158,181.5z"/>
						</g>
					</g>
				</g>
				<g>
					<g>
						<g>
							<path class="st2" d="M209.4,151.9c0,0-0.1,0-0.1,0l-51.8-30.1c-0.1,0-0.1-0.1-0.1-0.2c0-0.1,0-0.2,0.1-0.2l52.3-30.2
								c0.1,0,0.2,0,0.3,0l51.8,30.1c0.1,0,0.1,0.1,0.1,0.2c0,0.1,0,0.2-0.1,0.2l-52.3,30.2C209.5,151.9,209.4,151.9,209.4,151.9z
								 M158.1,121.5l51.3,29.8l51.8-29.9l-51.3-29.8L158.1,121.5z"/>
						</g>
					</g>
				</g>
			</g>
		</g>
		<g class="st0">
			<g class="st1">
				<g>
					<g>
						<g>
							<path class="st2" d="M261.7,302.5c0,0-0.1,0-0.1,0c-0.1,0-0.1-0.1-0.1-0.2l-0.2-60.1c0-0.1,0-0.2,0.1-0.2l52.3-30.2
								c0.1,0,0.2,0,0.2,0c0.1,0,0.1,0.1,0.1,0.2l0.2,60.1c0,0.1,0,0.2-0.1,0.2l-52.3,30.2C261.8,302.5,261.7,302.5,261.7,302.5z
								 M261.8,242.3l0.2,59.6l51.8-29.9l-0.2-59.6L261.8,242.3z"/>
						</g>
					</g>
				</g>
				<g>
					<g>
						<g>
							<path class="st2" d="M261.7,302.5c0,0-0.1,0-0.1,0l-51.8-30.1c-0.1,0-0.1-0.1-0.1-0.2l-0.2-60.1c0-0.1,0-0.2,0.1-0.2
								c0.1,0,0.2,0,0.3,0l51.8,30.1c0.1,0,0.1,0.1,0.1,0.2l0.2,60.1c0,0.1,0,0.2-0.1,0.2C261.8,302.5,261.7,302.5,261.7,302.5z
								 M210.1,272l51.3,29.8l-0.2-59.5L210,212.5L210.1,272z"/>
						</g>
					</g>
				</g>
				<g>
					<g>
						<g>
							<path class="st2" d="M261.5,242.4c0,0-0.1,0-0.1,0l-51.8-30.1c-0.1,0-0.1-0.1-0.1-0.2c0-0.1,0-0.2,0.1-0.2l52.3-30.2
								c0.1,0,0.2,0,0.3,0l51.8,30.1c0.1,0,0.1,0.1,0.1,0.2c0,0.1,0,0.2-0.1,0.2l-52.3,30.2C261.6,242.4,261.6,242.4,261.5,242.4z
								 M210.2,212.1l51.3,29.8l51.8-29.9l-51.3-29.8L210.2,212.1z"/>
						</g>
					</g>
				</g>
			</g>
		</g>
		<g class="st0">
			<g class="st1">
				<g>
					<g>
						<g>
							<path class="st2" d="M365.9,302.5c0,0-0.1,0-0.1,0c-0.1,0-0.1-0.1-0.1-0.2l-0.2-60.1c0-0.1,0-0.2,0.1-0.2l52.3-30.2
								c0.1,0,0.2,0,0.2,0c0.1,0,0.1,0.1,0.1,0.2l0.2,60.1c0,0.1,0,0.2-0.1,0.2L366,302.5C366,302.5,365.9,302.5,365.9,302.5z
								 M366,242.3l0.2,59.6l51.8-29.9l-0.2-59.6L366,242.3z"/>
						</g>
					</g>
				</g>
				<g>
					<g>
						<g>
							<path class="st2" d="M365.9,302.5c0,0-0.1,0-0.1,0l-51.8-30.1c-0.1,0-0.1-0.1-0.1-0.2l-0.2-60.1c0-0.1,0-0.2,0.1-0.2
								c0.1,0,0.2,0,0.3,0l51.8,30.1c0.1,0,0.1,0.1,0.1,0.2l0.2,60.1c0,0.1,0,0.2-0.1,0.2C366,302.5,365.9,302.5,365.9,302.5z
								 M314.3,272l51.3,29.8l-0.2-59.5l-51.3-29.8L314.3,272z"/>
						</g>
					</g>
				</g>
				<g>
					<g>
						<g>
							<path class="st2" d="M365.7,242.4c0,0-0.1,0-0.1,0l-51.8-30.1c-0.1,0-0.1-0.1-0.1-0.2c0-0.1,0-0.2,0.1-0.2l52.3-30.2
								c0.1,0,0.2,0,0.3,0l51.8,30.1c0.1,0,0.1,0.1,0.1,0.2c0,0.1,0,0.2-0.1,0.2l-52.3,30.2C365.8,242.4,365.7,242.4,365.7,242.4z
								 M314.4,212.1l51.3,29.8l51.8-29.9l-51.3-29.8L314.4,212.1z"/>
						</g>
					</g>
				</g>
			</g>
		</g>
		<g class="st0">
			<g class="st1">
				<g>
					<g>
						<g>
							<path class="st2" d="M313.5,393.1c0,0-0.1,0-0.1,0c-0.1,0-0.1-0.1-0.1-0.2l-0.2-60.1c0-0.1,0-0.2,0.1-0.2l52.3-30.2
								c0.1,0,0.2,0,0.2,0c0.1,0,0.1,0.1,0.1,0.2l0.2,60.1c0,0.1,0,0.2-0.1,0.2l-52.3,30.2C313.5,393.1,313.5,393.1,313.5,393.1z
								 M313.5,332.9l0.2,59.6l51.8-29.9l-0.2-59.6L313.5,332.9z"/>
						</g>
					</g>
				</g>
				<g>
					<g>
						<g>
							<path class="st2" d="M313.5,393.1c0,0-0.1,0-0.1,0L261.5,363c-0.1,0-0.1-0.1-0.1-0.2l-0.2-60.1c0-0.1,0-0.2,0.1-0.2
								c0.1,0,0.2,0,0.3,0l51.8,30.1c0.1,0,0.1,0.1,0.1,0.2l0.2,60.1c0,0.1,0,0.2-0.1,0.2C313.5,393.1,313.5,393.1,313.5,393.1z
								 M261.9,362.6l51.3,29.8l-0.2-59.5L261.7,303L261.9,362.6z"/>
						</g>
					</g>
				</g>
				<g>
					<g>
						<g>
							<path class="st2" d="M313.3,333c0,0-0.1,0-0.1,0l-51.8-30.1c-0.1,0-0.1-0.1-0.1-0.2c0-0.1,0-0.2,0.1-0.2l52.3-30.2
								c0.1,0,0.2,0,0.3,0l51.8,30.1c0.1,0,0.1,0.1,0.1,0.2c0,0.1,0,0.2-0.1,0.2l-52.3,30.2C313.4,333,313.3,333,313.3,333z
								 M262,302.6l51.3,29.8l51.8-29.9l-51.3-29.8L262,302.6z"/>
						</g>
					</g>
				</g>
			</g>
		</g>
		<g class="st0">
			<g class="st1">
				<g>
					<g>
						<g>
							<path class="st2" d="M53.4,302.5c0,0-0.1,0-0.1,0c-0.1,0-0.1-0.1-0.1-0.2l-0.2-60.1c0-0.1,0-0.2,0.1-0.2l52.3-30.2
								c0.1,0,0.2,0,0.2,0c0.1,0,0.1,0.1,0.1,0.2l0.2,60.1c0,0.1,0,0.2-0.1,0.2l-52.3,30.2C53.5,302.5,53.4,302.5,53.4,302.5z
								 M53.4,242.3l0.2,59.6l51.8-29.9l-0.2-59.6L53.4,242.3z"/>
						</g>
					</g>
				</g>
				<g>
					<g>
						<g>
							<path class="st2" d="M53.4,302.5c0,0-0.1,0-0.1,0L1.4,272.4c-0.1,0-0.1-0.1-0.1-0.2l-0.2-60.1c0-0.1,0-0.2,0.1-0.2
								c0.1,0,0.2,0,0.3,0l51.8,30.1c0.1,0,0.1,0.1,0.1,0.2l0.2,60.1c0,0.1,0,0.2-0.1,0.2C53.5,302.5,53.4,302.5,53.4,302.5z
								 M1.8,272l51.3,29.8l-0.2-59.5L1.6,212.5L1.8,272z"/>
						</g>
					</g>
				</g>
				<g>
					<g>
						<g>
							<path class="st2" d="M53.2,242.4c0,0-0.1,0-0.1,0L1.3,212.3c-0.1,0-0.1-0.1-0.1-0.2c0-0.1,0-0.2,0.1-0.2l52.3-30.2
								c0.1,0,0.2,0,0.3,0l51.8,30.1c0.1,0,0.1,0.1,0.1,0.2c0,0.1,0,0.2-0.1,0.2l-52.3,30.2C53.3,242.4,53.2,242.4,53.2,242.4z
								 M1.9,212.1l51.3,29.8l51.8-29.9l-51.3-29.8L1.9,212.1z"/>
						</g>
					</g>
				</g>
			</g>
		</g>
		<g class="st0">
			<g class="st1">
				<g>
					<g>
						<g>
							<path class="st2" d="M157.3,302.5c0,0-0.1,0-0.1,0c-0.1,0-0.1-0.1-0.1-0.2l-0.2-60.1c0-0.1,0-0.2,0.1-0.2l52.3-30.2
								c0.1,0,0.2,0,0.2,0c0.1,0,0.1,0.1,0.1,0.2l0.2,60.1c0,0.1,0,0.2-0.1,0.2l-52.3,30.2C157.4,302.5,157.3,302.5,157.3,302.5z
								 M157.4,242.3l0.2,59.6l51.8-29.9l-0.2-59.6L157.4,242.3z"/>
						</g>
					</g>
				</g>
				<g>
					<g>
						<g>
							<path class="st2" d="M157.3,302.5c0,0-0.1,0-0.1,0l-51.8-30.1c-0.1,0-0.1-0.1-0.1-0.2l-0.2-60.1c0-0.1,0-0.2,0.1-0.2
								c0.1,0,0.2,0,0.3,0l51.8,30.1c0.1,0,0.1,0.1,0.1,0.2l0.2,60.1c0,0.1,0,0.2-0.1,0.2C157.4,302.5,157.3,302.5,157.3,302.5z
								 M105.7,272l51.3,29.8l-0.2-59.5l-51.3-29.8L105.7,272z"/>
						</g>
					</g>
				</g>
				<g>
					<g>
						<g>
							<path class="st2" d="M157.1,242.4c0,0-0.1,0-0.1,0l-51.8-30.1c-0.1,0-0.1-0.1-0.1-0.2c0-0.1,0-0.2,0.1-0.2l52.3-30.2
								c0.1,0,0.2,0,0.3,0l51.8,30.1c0.1,0,0.1,0.1,0.1,0.2c0,0.1,0,0.2-0.1,0.2l-52.3,30.2C157.2,242.4,157.1,242.4,157.1,242.4z
								 M105.8,212.1l51.3,29.8l51.8-29.9l-51.3-29.8L105.8,212.1z"/>
						</g>
					</g>
				</g>
			</g>
		</g>
		<g class="st0">
			<g class="st1">
				<g>
					<g>
						<g>
							<path class="st2" d="M105.1,393.1c0,0-0.1,0-0.1,0c-0.1,0-0.1-0.1-0.1-0.2l-0.2-60.1c0-0.1,0-0.2,0.1-0.2l52.3-30.2
								c0.1,0,0.2,0,0.2,0c0.1,0,0.1,0.1,0.1,0.2l0.2,60.1c0,0.1,0,0.2-0.1,0.2l-52.3,30.2C105.2,393.1,105.2,393.1,105.1,393.1z
								 M105.2,332.9l0.2,59.6l51.8-29.9l-0.2-59.6L105.2,332.9z"/>
						</g>
					</g>
				</g>
				<g>
					<g>
						<g>
							<path class="st2" d="M105.1,393.1c0,0-0.1,0-0.1,0L53.2,363c-0.1,0-0.1-0.1-0.1-0.2l-0.2-60.1c0-0.1,0-0.2,0.1-0.2
								c0.1,0,0.2,0,0.3,0l51.8,30.1c0.1,0,0.1,0.1,0.1,0.2l0.2,60.1c0,0.1,0,0.2-0.1,0.2C105.2,393.1,105.2,393.1,105.1,393.1z
								 M53.6,362.6l51.3,29.8l-0.2-59.5L53.4,303L53.6,362.6z"/>
						</g>
					</g>
				</g>
				<g>
					<g>
						<g>
							<path class="st2" d="M104.9,333c0,0-0.1,0-0.1,0L53,302.8c-0.1,0-0.1-0.1-0.1-0.2c0-0.1,0-0.2,0.1-0.2l52.3-30.2
								c0.1,0,0.2,0,0.3,0l51.8,30.1c0.1,0,0.1,0.1,0.1,0.2c0,0.1,0,0.2-0.1,0.2l-52.3,30.2C105,333,105,333,104.9,333z M53.6,302.6
								l51.3,29.8l51.8-29.9l-51.3-29.8L53.6,302.6z"/>
						</g>
					</g>
				</g>
			</g>
		</g>
		<g class="st0">
			<g class="st1">
				<g>
					<g>
						<g>
							<path class="st2" d="M209.3,393.1c0,0-0.1,0-0.1,0c-0.1,0-0.1-0.1-0.1-0.2l-0.2-60.1c0-0.1,0-0.2,0.1-0.2l52.3-30.2
								c0.1,0,0.2,0,0.2,0c0.1,0,0.1,0.1,0.1,0.2l0.2,60.1c0,0.1,0,0.2-0.1,0.2l-52.3,30.2C209.4,393.1,209.3,393.1,209.3,393.1z
								 M209.4,332.9l0.2,59.6l51.8-29.9l-0.2-59.6L209.4,332.9z"/>
						</g>
					</g>
				</g>
				<g>
					<g>
						<g>
							<path class="st2" d="M209.3,393.1c0,0-0.1,0-0.1,0L157.3,363c-0.1,0-0.1-0.1-0.1-0.2l-0.2-60.1c0-0.1,0-0.2,0.1-0.2
								c0.1,0,0.2,0,0.3,0l51.8,30.1c0.1,0,0.1,0.1,0.1,0.2l0.2,60.1c0,0.1,0,0.2-0.1,0.2C209.4,393.1,209.3,393.1,209.3,393.1z
								 M157.7,362.6l51.3,29.8l-0.2-59.5L157.6,303L157.7,362.6z"/>
						</g>
					</g>
				</g>
				<g>
					<g>
						<g>
							<path class="st2" d="M209.1,333c0,0-0.1,0-0.1,0l-51.8-30.1c-0.1,0-0.1-0.1-0.1-0.2c0-0.1,0-0.2,0.1-0.2l52.3-30.2
								c0.1,0,0.2,0,0.3,0l51.8,30.1c0.1,0,0.1,0.1,0.1,0.2c0,0.1,0,0.2-0.1,0.2l-52.3,30.2C209.2,333,209.2,333,209.1,333z
								 M157.8,302.6l51.3,29.8l51.8-29.9l-51.3-29.8L157.8,302.6z"/>
						</g>
					</g>
				</g>
			</g>
		</g>
	</g>
	<g>
		<g>
			<g class="st1">
				<g>
					<g>
						<g>
							<path class="st3" d="M105.9,187.5c-0.1,0-0.2,0-0.2-0.1c-0.2-0.1-0.2-0.3-0.3-0.4l-0.1-35.3c0-0.2,0.1-0.3,0.2-0.4l30.7-17.8
								c0.2-0.1,0.3-0.1,0.5,0s0.2,0.3,0.3,0.4l0.1,35.3c0,0.2-0.1,0.3-0.2,0.4l-30.7,17.8C106.1,187.5,106,187.5,105.9,187.5z
								 M106.3,152l0.1,34.2l29.7-17.2l-0.1-34.2L106.3,152z"/>
						</g>
					</g>
				</g>
				<g>
					<g>
						<g>
							<path class="st3" d="M105.9,187.5c-0.1,0-0.2,0-0.3-0.1l-30.4-17.7c-0.2-0.1-0.2-0.3-0.2-0.4L74.9,134c0-0.2,0.1-0.3,0.2-0.4
								c0.2-0.1,0.3-0.1,0.5,0l30.4,17.7c0.2,0.1,0.2,0.3,0.2,0.4l0.1,35.3c0,0.2-0.1,0.3-0.2,0.4
								C106.1,187.5,106,187.5,105.9,187.5z M76,169l29.4,17.1l-0.1-34.2l-29.4-17.1L76,169z"/>
						</g>
					</g>
				</g>
				<g>
					<g>
						<g>
							<path class="st3" d="M105.8,152.2c-0.1,0-0.2,0-0.3-0.1l-30.4-17.7c-0.2-0.1-0.2-0.3-0.2-0.4c0-0.2,0.1-0.3,0.2-0.4
								l30.7-17.8c0.2-0.1,0.3-0.1,0.5,0l30.4,17.7c0.2,0.1,0.2,0.3,0.2,0.4c0,0.2-0.1,0.3-0.2,0.4l-30.7,17.8
								C106,152.1,105.9,152.2,105.8,152.2z M76.4,134l29.4,17.1l29.7-17.2l-29.4-17.1L76.4,134z"/>
						</g>
					</g>
				</g>
			</g>
		</g>
		<g class="st4">
			<g class="st1">
				<g>
					<g>
						<g>
							<polygon class="st3" points="136.6,133.9 136.7,169.2 105.9,187 105.8,151.7 							"/>
						</g>
					</g>
				</g>
				<g>
					<g>
						<g>
							<polygon class="st3" points="105.9,187 75.5,169.3 75.4,134 105.8,151.7 							"/>
						</g>
					</g>
				</g>
				<g>
					<g>
						<g>
							<polygon class="st3" points="105.8,151.7 75.4,134 106.1,116.2 136.6,133.9 							"/>
						</g>
					</g>
				</g>
			</g>
		</g>
	</g>
	<g>
		<g>
			<circle class="st3" cx="106" cy="153.5" r="20.4"/>
		</g>
		<g>
			<g>
				<g>
					<path class="st5" d="M120.5,155c0,4.7-2.3,8.9-5.8,11.6c-2.4,1.8-15.1,1.8-17.6-0.1c-3.4-2.6-5.6-6.8-5.6-11.4
						c0-8,6.5-14.5,14.5-14.5S120.5,147,120.5,155z"/>
				</g>
				<g>
					<path class="st6" d="M106.2,168.4c-4,0-8-0.5-9.4-1.6C93.2,164,91,159.7,91,155c0-8.2,6.7-14.9,14.9-14.9
						c8.2,0,14.9,6.7,14.9,14.9c0,4.7-2.2,9.1-6,11.9C113.7,168,110,168.4,106.2,168.4z M106,141c-7.7,0-14,6.3-14,14
						c0,4.4,2,8.4,5.4,11.1c1,0.8,4.4,1.3,8.5,1.4c4.1,0,7.5-0.5,8.5-1.2c3.5-2.7,5.6-6.8,5.6-11.2C120,147.3,113.7,141,106,141z"/>
				</g>
			</g>
			<g>
				<g>
					<g>
						<path class="st3" d="M115.5,153.8h2.2c2.1,0,3.7-1.7,3.7-3.7v-1c0-2.1-1.7-3.7-3.7-3.7h-2.2V153.8z"/>
					</g>
					<g>
						<path class="st6" d="M117.7,154.2H115v-9.4h2.7c2.3,0,4.2,1.9,4.2,4.2v1C121.9,152.3,120,154.2,117.7,154.2z M116,153.3h1.7
							c1.8,0,3.3-1.5,3.3-3.3v-1c0-1.8-1.5-3.3-3.3-3.3H116V153.3z"/>
					</g>
				</g>
				<g>
					<g>
						<path class="st3" d="M96.5,153.8h-2.2c-2.1,0-3.7-1.7-3.7-3.7v-1c0-2.1,1.7-3.7,3.7-3.7h2.2V153.8z"/>
					</g>
					<g>
						<path class="st6" d="M96.9,154.2h-2.7c-2.3,0-4.2-1.9-4.2-4.2v-1c0-2.3,1.9-4.2,4.2-4.2h2.7V154.2z M94.3,145.8
							c-1.8,0-3.3,1.5-3.3,3.3v1c0,1.8,1.5,3.3,3.3,3.3H96v-7.5H94.3z"/>
					</g>
				</g>
			</g>
			<g>
				<g>
					<path class="st3" d="M109.5,158.9h-7c-4.8,0-8.7-3.9-8.7-8.7v-3.6c0-4.8,3.9-8.7,8.7-8.7h7c4.8,0,8.7,3.9,8.7,8.7v3.6
						C118.2,155,114.3,158.9,109.5,158.9z"/>
				</g>
				<g>
					<path class="st6" d="M109.5,159.3h-7c-5.1,0-9.2-4.1-9.2-9.2v-3.6c0-5.1,4.1-9.2,9.2-9.2h7c5.1,0,9.2,4.1,9.2,9.2v3.6
						C118.7,155.2,114.6,159.3,109.5,159.3z M102.5,138.2c-4.6,0-8.3,3.7-8.3,8.3v3.6c0,4.6,3.7,8.3,8.3,8.3h7
						c4.6,0,8.3-3.7,8.3-8.3v-3.6c0-4.6-3.7-8.3-8.3-8.3H102.5z"/>
				</g>
			</g>
			<g>
				<g>
					<path class="st7" d="M102.3,155.9c-3.1,0-5.6-2.5-5.6-5.6V148c0-3.1,2.5-5.6,5.6-5.6h7.4c3.1,0,5.6,2.5,5.6,5.6v2.3
						c0,3.1-2.5,5.6-5.6,5.6H102.3z"/>
				</g>
				<g>
					<path class="st6" d="M109.7,156.4h-7.4c-3.4,0-6.1-2.7-6.1-6.1V148c0-3.4,2.7-6.1,6.1-6.1h7.4c3.4,0,6.1,2.7,6.1,6.1v2.3
						C115.8,153.7,113.1,156.4,109.7,156.4z M102.3,142.8c-2.8,0-5.2,2.3-5.2,5.2v2.3c0,2.8,2.3,5.2,5.2,5.2h7.4
						c2.8,0,5.2-2.3,5.2-5.2V148c0-2.8-2.3-5.2-5.2-5.2H102.3z"/>
				</g>
			</g>
			<g>
				<g>
					<line class="st3" x1="106" y1="138.2" x2="106" y2="133.8"/>
				</g>
				<g>
					<rect x="105.5" y="133.8" class="st6" width="0.9" height="4.4"/>
				</g>
			</g>
			<g>
				<g>
					
						<ellipse transform="matrix(0.1595 -0.9872 0.9872 0.1595 -42.1073 216.3325)" class="st8" cx="106" cy="132.9" rx="2.2" ry="2.2"/>
				</g>
				<g>
					<path class="st6" d="M106,135.5c-1.4,0-2.6-1.2-2.6-2.6c0-1.4,1.2-2.6,2.6-2.6s2.6,1.2,2.6,2.6
						C108.6,134.3,107.4,135.5,106,135.5z M106,131.2c-0.9,0-1.7,0.8-1.7,1.7s0.8,1.7,1.7,1.7c0.9,0,1.7-0.8,1.7-1.7
						S106.9,131.2,106,131.2z"/>
				</g>
			</g>
			<g>
				<g>
					<path class="st6" d="M101.5,147.1c-0.6,0-1,0.5-1,1c0,0.6,0.5,1,1,1c0.6,0,1-0.5,1-1C102.6,147.6,102.1,147.1,101.5,147.1z"/>
				</g>
				<g>
					<path class="st6" d="M110.4,147.1c-0.6,0-1,0.5-1,1c0,0.6,0.5,1,1,1c0.6,0,1-0.5,1-1C111.4,147.6,111,147.1,110.4,147.1z"/>
				</g>
			</g>
			<g>
				<path class="st6" d="M106,152.9c-1.1,0-2.1-0.6-2.5-1.5c-0.1-0.2,0-0.5,0.2-0.6c0.2-0.1,0.5,0,0.6,0.2c0.3,0.6,0.9,1,1.7,1
					s1.4-0.4,1.7-1c0.1-0.2,0.4-0.3,0.6-0.2c0.2,0.1,0.3,0.4,0.2,0.6C108.1,152.3,107.1,152.9,106,152.9z"/>
			</g>
			<g>
				<g>
					<path class="st3" d="M109.3,160.9h-6.6c-3,0-5.4,2.4-5.4,5.4v0.3c2.4,1.8,5.4,2.9,8.7,2.9s6.3-1.1,8.7-2.9v-0.3
						C114.7,163.3,112.3,160.9,109.3,160.9z"/>
				</g>
				<g>
					<path class="st6" d="M106,170c-3.3,0-6.4-1-9-3l-0.2-0.1v-0.5c0-3.2,2.6-5.9,5.9-5.9h6.6c3.2,0,5.9,2.6,5.9,5.9v0.5L115,167
						C112.4,168.9,109.3,170,106,170z M97.7,166.4c2.4,1.8,5.3,2.7,8.2,2.7c3,0,5.8-0.9,8.2-2.7v-0.1c0-2.7-2.2-4.9-4.9-4.9h-6.6
						C100,161.4,97.7,163.6,97.7,166.4L97.7,166.4z"/>
				</g>
			</g>
		</g>
	</g>
	<g>
		<g>
			<g class="st1">
				<g>
					<g>
						<g>
							<path class="st3" d="M261.8,278.1c-0.1,0-0.2,0-0.2-0.1c-0.2-0.1-0.2-0.3-0.3-0.4l-0.1-35.3c0-0.2,0.1-0.3,0.2-0.4l30.7-17.8
								c0.2-0.1,0.3-0.1,0.5,0c0.2,0.1,0.2,0.3,0.3,0.4l0.1,35.3c0,0.2-0.1,0.3-0.2,0.4L262,278C262,278,261.9,278.1,261.8,278.1z
								 M262.2,242.5l0.1,34.2l29.7-17.2l-0.1-34.2L262.2,242.5z"/>
						</g>
					</g>
				</g>
				<g>
					<g>
						<g>
							<path class="st3" d="M261.8,278.1c-0.1,0-0.2,0-0.3-0.1l-30.4-17.7c-0.2-0.1-0.2-0.3-0.2-0.4l-0.1-35.3
								c0-0.2,0.1-0.3,0.2-0.4c0.2-0.1,0.3-0.1,0.5,0l30.4,17.7c0.2,0.1,0.2,0.3,0.2,0.4l0.1,35.3c0,0.2-0.1,0.3-0.2,0.4
								C262,278,261.9,278.1,261.8,278.1z M231.9,259.6l29.4,17.1l-0.1-34.2l-29.4-17.1L231.9,259.6z"/>
						</g>
					</g>
				</g>
				<g>
					<g>
						<g>
							<path class="st3" d="M261.7,242.7c-0.1,0-0.2,0-0.3-0.1L231,225c-0.2-0.1-0.2-0.3-0.2-0.4c0-0.2,0.1-0.3,0.2-0.4l30.7-17.8
								c0.2-0.1,0.3-0.1,0.5,0l30.4,17.7c0.2,0.1,0.2,0.3,0.2,0.4c0,0.2-0.1,0.3-0.2,0.4l-30.7,17.8
								C261.9,242.7,261.8,242.7,261.7,242.7z M232.2,224.6l29.4,17.1l29.7-17.2L262,207.4L232.2,224.6z"/>
						</g>
					</g>
				</g>
			</g>
		</g>
		<g class="st4">
			<g class="st1">
				<g>
					<g>
						<g>
							<polygon class="st3" points="292.4,224.5 292.5,259.8 261.8,277.6 261.7,242.2 							"/>
						</g>
					</g>
				</g>
				<g>
					<g>
						<g>
							<polygon class="st3" points="261.8,277.6 231.4,259.9 231.3,224.6 261.7,242.2 							"/>
						</g>
					</g>
				</g>
				<g>
					<g>
						<g>
							<polygon class="st3" points="261.7,242.2 231.3,224.6 262,206.8 292.4,224.5 							"/>
						</g>
					</g>
				</g>
			</g>
		</g>
	</g>
	<g>
		<g>
			<circle class="st3" cx="261.8" cy="244.1" r="20.4"/>
		</g>
		<g>
			<g>
				<g>
					<path class="st9" d="M276.3,245.6c0,4.7-2.3,8.9-5.8,11.6c-2.4,1.8-15.1,1.8-17.6-0.1c-3.4-2.6-5.6-6.8-5.6-11.4
						c0-8,6.5-14.5,14.5-14.5C269.8,231.1,276.3,237.6,276.3,245.6z"/>
				</g>
				<g>
					<path class="st6" d="M262.1,259c-4,0-8-0.5-9.4-1.6c-3.7-2.9-5.8-7.2-5.8-11.8c0-8.2,6.7-14.9,14.9-14.9
						c8.2,0,14.9,6.7,14.9,14.9c0,4.7-2.2,9.1-6,11.9C269.5,258.5,265.8,259,262.1,259z M261.8,231.6c-7.7,0-14,6.3-14,14
						c0,4.4,2,8.4,5.4,11.1c1,0.8,4.4,1.3,8.5,1.4c4.1,0,7.5-0.5,8.5-1.2c3.5-2.7,5.6-6.8,5.6-11.2
						C275.9,237.9,269.6,231.6,261.8,231.6z"/>
				</g>
			</g>
			<g>
				<g>
					<g>
						<path class="st3" d="M271.4,244.3h2.2c2.1,0,3.7-1.7,3.7-3.7v-1c0-2.1-1.7-3.7-3.7-3.7h-2.2V244.3z"/>
					</g>
					<g>
						<path class="st6" d="M273.6,244.8h-2.7v-9.4h2.7c2.3,0,4.2,1.9,4.2,4.2v1C277.7,242.9,275.9,244.8,273.6,244.8z M271.8,243.9
							h1.7c1.8,0,3.3-1.5,3.3-3.3v-1c0-1.8-1.5-3.3-3.3-3.3h-1.7V243.9z"/>
					</g>
				</g>
				<g>
					<g>
						<path class="st3" d="M252.3,244.3h-2.2c-2.1,0-3.7-1.7-3.7-3.7v-1c0-2.1,1.7-3.7,3.7-3.7h2.2V244.3z"/>
					</g>
					<g>
						<path class="st6" d="M252.8,244.8h-2.7c-2.3,0-4.2-1.9-4.2-4.2v-1c0-2.3,1.9-4.2,4.2-4.2h2.7V244.8z M250.1,236.4
							c-1.8,0-3.3,1.5-3.3,3.3v1c0,1.8,1.5,3.3,3.3,3.3h1.7v-7.5H250.1z"/>
					</g>
				</g>
			</g>
			<g>
				<g>
					<path class="st3" d="M265.3,249.5h-7c-4.8,0-8.7-3.9-8.7-8.7v-3.6c0-4.8,3.9-8.7,8.7-8.7h7c4.8,0,8.7,3.9,8.7,8.7v3.6
						C274.1,245.5,270.2,249.5,265.3,249.5z"/>
				</g>
				<g>
					<path class="st6" d="M265.3,249.9h-7c-5.1,0-9.2-4.1-9.2-9.2v-3.6c0-5.1,4.1-9.2,9.2-9.2h7c5.1,0,9.2,4.1,9.2,9.2v3.6
						C274.5,245.8,270.4,249.9,265.3,249.9z M258.3,228.8c-4.6,0-8.3,3.7-8.3,8.3v3.6c0,4.6,3.7,8.3,8.3,8.3h7
						c4.6,0,8.3-3.7,8.3-8.3v-3.6c0-4.6-3.7-8.3-8.3-8.3H258.3z"/>
				</g>
			</g>
			<g>
				<g>
					<path class="st7" d="M258.1,246.5c-3.1,0-5.6-2.5-5.6-5.6v-2.3c0-3.1,2.5-5.6,5.6-5.6h7.4c3.1,0,5.6,2.5,5.6,5.6v2.3
						c0,3.1-2.5,5.6-5.6,5.6H258.1z"/>
				</g>
				<g>
					<path class="st6" d="M265.6,247h-7.4c-3.4,0-6.1-2.7-6.1-6.1v-2.3c0-3.4,2.7-6.1,6.1-6.1h7.4c3.4,0,6.1,2.7,6.1,6.1v2.3
						C271.6,244.2,268.9,247,265.6,247z M258.1,233.4c-2.8,0-5.2,2.3-5.2,5.2v2.3c0,2.8,2.3,5.2,5.2,5.2h7.4c2.8,0,5.2-2.3,5.2-5.2
						v-2.3c0-2.8-2.3-5.2-5.2-5.2H258.1z"/>
				</g>
			</g>
			<g>
				<g>
					<line class="st3" x1="261.8" y1="228.8" x2="261.8" y2="224.4"/>
				</g>
				<g>
					<rect x="261.4" y="224.4" class="st6" width="0.9" height="4.4"/>
				</g>
			</g>
			<g>
				<g>
					
						<ellipse transform="matrix(0.1595 -0.9872 0.9872 0.1595 -0.5226 446.3233)" class="st10" cx="261.8" cy="223.5" rx="2.2" ry="2.2"/>
				</g>
				<g>
					<path class="st6" d="M261.8,226.1c-1.4,0-2.6-1.2-2.6-2.6s1.2-2.6,2.6-2.6c1.4,0,2.6,1.2,2.6,2.6S263.3,226.1,261.8,226.1z
						 M261.8,221.8c-0.9,0-1.7,0.8-1.7,1.7c0,0.9,0.8,1.7,1.7,1.7c0.9,0,1.7-0.8,1.7-1.7C263.5,222.5,262.8,221.8,261.8,221.8z"/>
				</g>
			</g>
			<g>
				<g>
					<path class="st6" d="M257.4,237.7c-0.6,0-1,0.5-1,1c0,0.6,0.5,1,1,1c0.6,0,1-0.5,1-1C258.4,238.1,258,237.7,257.4,237.7z"/>
				</g>
				<g>
					<path class="st6" d="M266.3,237.7c-0.6,0-1,0.5-1,1c0,0.6,0.5,1,1,1c0.6,0,1-0.5,1-1C267.3,238.1,266.8,237.7,266.3,237.7z"/>
				</g>
			</g>
			<g>
				<path class="st6" d="M263.8,241.2h-4c-0.2,0-0.4,0.2-0.4,0.4c0,1.3,1.1,2.4,2.4,2.4c1.3,0,2.4-1.1,2.4-2.4
					C264.2,241.4,264,241.2,263.8,241.2z"/>
			</g>
			<g>
				<g>
					<path class="st3" d="M265.1,251.5h-6.6c-3,0-5.4,2.4-5.4,5.4v0.3c2.4,1.8,5.4,2.9,8.7,2.9s6.3-1.1,8.7-2.9v-0.3
						C270.5,253.9,268.1,251.5,265.1,251.5z"/>
				</g>
				<g>
					<path class="st6" d="M261.8,260.6c-3.3,0-6.4-1-9-3l-0.2-0.1v-0.5c0-3.2,2.6-5.9,5.9-5.9h6.6c3.2,0,5.9,2.6,5.9,5.9v0.5
						l-0.2,0.1C268.2,259.5,265.1,260.6,261.8,260.6z M253.6,256.9c2.4,1.8,5.3,2.7,8.2,2.7c3,0,5.8-0.9,8.2-2.7v-0.1
						c0-2.7-2.2-4.9-4.9-4.9h-6.6C255.8,251.9,253.6,254.2,253.6,256.9L253.6,256.9z"/>
				</g>
			</g>
		</g>
	</g>
	<g>
		<g>
			<g class="st1">
				<g>
					<g>
						<g>
							<path class="st3" d="M209.5,167.6c-0.1,0-0.2,0-0.2-0.1c-0.2-0.1-0.2-0.3-0.3-0.4l0-15.7c0-0.2,0.1-0.3,0.2-0.4l13.7-7.9
								c0.2-0.1,0.3-0.1,0.5,0c0.2,0.1,0.2,0.3,0.3,0.4l0,15.7c0,0.2-0.1,0.3-0.2,0.4l-13.7,7.9
								C209.7,167.6,209.6,167.6,209.5,167.6z M210,151.7l0,14.5l12.7-7.3l0-14.5L210,151.7z"/>
						</g>
					</g>
				</g>
				<g>
					<g>
						<g>
							<path class="st3" d="M209.5,167.6c-0.1,0-0.2,0-0.3-0.1l-13.5-7.9c-0.2-0.1-0.2-0.3-0.2-0.4l0-15.7c0-0.2,0.1-0.3,0.2-0.4
								c0.2-0.1,0.3-0.1,0.5,0l13.5,7.9c0.2,0.1,0.2,0.3,0.2,0.4l0,15.7c0,0.2-0.1,0.3-0.2,0.4C209.7,167.6,209.6,167.6,209.5,167.6
								z M196.5,159l12.5,7.3l0-14.5l-12.5-7.3L196.5,159z"/>
						</g>
					</g>
				</g>
				<g>
					<g>
						<g>
							<path class="st3" d="M209.5,152c-0.1,0-0.2,0-0.3-0.1l-13.5-7.9c-0.2-0.1-0.2-0.3-0.2-0.4c0-0.2,0.1-0.3,0.2-0.4l13.7-7.9
								c0.2-0.1,0.3-0.1,0.5,0l13.5,7.9c0.2,0.1,0.2,0.3,0.2,0.4c0,0.2-0.1,0.3-0.2,0.4l-13.7,7.9C209.6,151.9,209.5,152,209.5,152z
								 M196.9,143.6l12.5,7.3l12.7-7.3l-12.5-7.3L196.9,143.6z"/>
						</g>
					</g>
				</g>
			</g>
		</g>
		<g class="st4">
			<g class="st1">
				<g>
					<g>
						<g>
							<polygon class="st3" points="223.1,143.6 223.2,159.3 209.5,167.1 209.5,151.5 							"/>
						</g>
					</g>
				</g>
				<g>
					<g>
						<g>
							<polygon class="st3" points="209.5,167.1 196,159.3 195.9,143.6 209.5,151.5 							"/>
						</g>
					</g>
				</g>
				<g>
					<g>
						<g>
							<polygon class="st3" points="209.5,151.5 195.9,143.6 209.6,135.7 223.1,143.6 							"/>
						</g>
					</g>
				</g>
			</g>
		</g>
	</g>
	<g>
		<g>
			<g class="st1">
				<g>
					<g>
						<g>
							<path class="st3" d="M332.8,140.9c-0.1,0-0.2,0-0.2-0.1c-0.2-0.1-0.2-0.3-0.3-0.4l0-15.7c0-0.2,0.1-0.3,0.2-0.4l13.7-7.9
								c0.2-0.1,0.3-0.1,0.5,0c0.2,0.1,0.2,0.3,0.3,0.4l0,15.7c0,0.2-0.1,0.3-0.2,0.4l-13.7,7.9C333,140.9,332.9,140.9,332.8,140.9z
								 M333.2,125l0,14.5l12.7-7.3l0-14.5L333.2,125z"/>
						</g>
					</g>
				</g>
				<g>
					<g>
						<g>
							<path class="st3" d="M332.8,140.9c-0.1,0-0.2,0-0.3-0.1L319,133c-0.2-0.1-0.2-0.3-0.2-0.4l0-15.7c0-0.2,0.1-0.3,0.2-0.4
								c0.2-0.1,0.3-0.1,0.5,0l13.5,7.9c0.2,0.1,0.2,0.3,0.2,0.4l0,15.7c0,0.2-0.1,0.3-0.2,0.4C333,140.9,332.9,140.9,332.8,140.9z
								 M319.8,132.3l12.5,7.3l0-14.5l-12.5-7.3L319.8,132.3z"/>
						</g>
					</g>
				</g>
				<g>
					<g>
						<g>
							<path class="st3" d="M332.7,125.2c-0.1,0-0.2,0-0.3-0.1l-13.5-7.9c-0.2-0.1-0.2-0.3-0.2-0.4c0-0.2,0.1-0.3,0.2-0.4l13.7-7.9
								c0.2-0.1,0.3-0.1,0.5,0l13.5,7.9c0.2,0.1,0.2,0.3,0.2,0.4c0,0.2-0.1,0.3-0.2,0.4l-13.7,7.9
								C332.9,125.2,332.8,125.2,332.7,125.2z M320.2,116.9l12.5,7.3l12.7-7.3l-12.5-7.3L320.2,116.9z"/>
						</g>
					</g>
				</g>
			</g>
		</g>
		<g class="st4">
			<g class="st1">
				<g>
					<g>
						<g>
							<polygon class="st3" points="346.4,116.8 346.5,132.5 332.8,140.4 332.7,124.7 							"/>
						</g>
					</g>
				</g>
				<g>
					<g>
						<g>
							<polygon class="st3" points="332.8,140.4 319.3,132.6 319.2,116.9 332.7,124.7 							"/>
						</g>
					</g>
				</g>
				<g>
					<g>
						<g>
							<polygon class="st3" points="332.7,124.7 319.2,116.9 332.9,109 346.4,116.8 							"/>
						</g>
					</g>
				</g>
			</g>
		</g>
	</g>
	<g>
		<g>
			<g class="st1">
				<g>
					<g>
						<g>
							<path class="st3" d="M352,310.8c-0.1,0-0.2,0-0.2-0.1c-0.2-0.1-0.2-0.3-0.3-0.4l0-15.7c0-0.2,0.1-0.3,0.2-0.4l13.7-7.9
								c0.2-0.1,0.3-0.1,0.5,0c0.2,0.1,0.2,0.3,0.3,0.4l0,15.7c0,0.2-0.1,0.3-0.2,0.4l-13.7,7.9C352.1,310.8,352,310.8,352,310.8z
								 M352.4,294.9l0,14.5l12.7-7.3l0-14.5L352.4,294.9z"/>
						</g>
					</g>
				</g>
				<g>
					<g>
						<g>
							<path class="st3" d="M352,310.8c-0.1,0-0.2,0-0.3-0.1l-13.5-7.9c-0.2-0.1-0.2-0.3-0.2-0.4l0-15.7c0-0.2,0.1-0.3,0.2-0.4
								c0.2-0.1,0.3-0.1,0.5,0l13.5,7.9c0.2,0.1,0.2,0.3,0.2,0.4l0,15.7c0,0.2-0.1,0.3-0.2,0.4C352.1,310.8,352,310.8,352,310.8z
								 M338.9,302.2l12.5,7.3l0-14.5l-12.5-7.3L338.9,302.2z"/>
						</g>
					</g>
				</g>
				<g>
					<g>
						<g>
							<path class="st3" d="M351.9,295.1c-0.1,0-0.2,0-0.3-0.1l-13.5-7.9c-0.2-0.1-0.2-0.3-0.2-0.4c0-0.2,0.1-0.3,0.2-0.4l13.7-7.9
								c0.2-0.1,0.3-0.1,0.5,0l13.5,7.9c0.2,0.1,0.2,0.3,0.2,0.4c0,0.2-0.1,0.3-0.2,0.4l-13.7,7.9
								C352.1,295.1,352,295.1,351.9,295.1z M339.4,286.8l12.5,7.3l12.7-7.3l-12.5-7.3L339.4,286.8z"/>
						</g>
					</g>
				</g>
			</g>
		</g>
		<g class="st4">
			<g class="st1">
				<g>
					<g>
						<g>
							<polygon class="st3" points="365.6,286.7 365.6,302.4 352,310.3 351.9,294.6 							"/>
						</g>
					</g>
				</g>
				<g>
					<g>
						<g>
							<polygon class="st3" points="352,310.3 338.4,302.5 338.4,286.8 351.9,294.6 							"/>
						</g>
					</g>
				</g>
				<g>
					<g>
						<g>
							<polygon class="st3" points="351.9,294.6 338.4,286.8 352.1,278.9 365.6,286.7 							"/>
						</g>
					</g>
				</g>
			</g>
		</g>
	</g>
	<g class="st11">
		<g>
			<circle class="st3" cx="209.5" cy="152.3" r="9.1"/>
		</g>
		<g>
			<g>
				<g>
					<path class="st12" d="M216,153c0,2.1-1,4-2.6,5.1c-1.1,0.8-6.7,0.8-7.8-0.1c-1.5-1.2-2.5-3-2.5-5.1c0-3.6,2.9-6.4,6.4-6.4
						C213.1,146.5,216,149.4,216,153z"/>
				</g>
				<g>
					<path class="st6" d="M209.6,158.9c-1.8,0-3.6-0.2-4.2-0.7c-1.6-1.3-2.6-3.2-2.6-5.3c0-3.7,3-6.6,6.6-6.6c3.7,0,6.6,3,6.6,6.6
						c0,2.1-1,4-2.6,5.3C212.9,158.7,211.3,158.9,209.6,158.9z M209.5,146.7c-3.4,0-6.2,2.8-6.2,6.2c0,1.9,0.9,3.7,2.4,4.9
						c0.5,0.4,2,0.6,3.8,0.6c1.8,0,3.3-0.2,3.8-0.6c1.6-1.2,2.5-3,2.5-5C215.8,149.5,213,146.7,209.5,146.7z"/>
				</g>
			</g>
			<g>
				<g>
					<g>
						<path class="st3" d="M213.8,152.4h1c0.9,0,1.7-0.7,1.7-1.7v-0.4c0-0.9-0.7-1.7-1.7-1.7h-1V152.4z"/>
					</g>
					<g>
						<path class="st6" d="M214.7,152.6h-1.2v-4.2h1.2c1,0,1.9,0.8,1.9,1.9v0.4C216.6,151.8,215.8,152.6,214.7,152.6z M214,152.2
							h0.8c0.8,0,1.4-0.6,1.4-1.4v-0.4c0-0.8-0.6-1.4-1.4-1.4H214V152.2z"/>
					</g>
				</g>
				<g>
					<g>
						<path class="st3" d="M205.3,152.4h-1c-0.9,0-1.7-0.7-1.7-1.7v-0.4c0-0.9,0.7-1.7,1.7-1.7h1V152.4z"/>
					</g>
					<g>
						<path class="st6" d="M205.5,152.6h-1.2c-1,0-1.9-0.8-1.9-1.9v-0.4c0-1,0.8-1.9,1.9-1.9h1.2V152.6z M204.3,148.8
							c-0.8,0-1.4,0.6-1.4,1.4v0.4c0,0.8,0.6,1.4,1.4,1.4h0.8v-3.3H204.3z"/>
					</g>
				</g>
			</g>
			<g>
				<g>
					<path class="st3" d="M211.1,154.7H208c-2.1,0-3.9-1.7-3.9-3.9v-1.6c0-2.1,1.7-3.9,3.9-3.9h3.1c2.1,0,3.9,1.7,3.9,3.9v1.6
						C215,152.9,213.2,154.7,211.1,154.7z"/>
				</g>
				<g>
					<path class="st6" d="M211.1,154.9H208c-2.3,0-4.1-1.8-4.1-4.1v-1.6c0-2.3,1.8-4.1,4.1-4.1h3.1c2.3,0,4.1,1.8,4.1,4.1v1.6
						C215.2,153,213.3,154.9,211.1,154.9z M208,145.5c-2,0-3.7,1.6-3.7,3.7v1.6c0,2,1.6,3.7,3.7,3.7h3.1c2,0,3.7-1.6,3.7-3.7v-1.6
						c0-2-1.6-3.7-3.7-3.7H208z"/>
				</g>
			</g>
			<g>
				<g>
					<path class="st13" d="M207.9,153.3c-1.4,0-2.5-1.1-2.5-2.5v-1c0-1.4,1.1-2.5,2.5-2.5h3.3c1.4,0,2.5,1.1,2.5,2.5v1
						c0,1.4-1.1,2.5-2.5,2.5H207.9z"/>
				</g>
				<g>
					<path class="st6" d="M211.2,153.6h-3.3c-1.5,0-2.7-1.2-2.7-2.7v-1c0-1.5,1.2-2.7,2.7-2.7h3.3c1.5,0,2.7,1.2,2.7,2.7v1
						C213.9,152.3,212.7,153.6,211.2,153.6z M207.9,147.5c-1.3,0-2.3,1-2.3,2.3v1c0,1.3,1,2.3,2.3,2.3h3.3c1.3,0,2.3-1,2.3-2.3v-1
						c0-1.3-1-2.3-2.3-2.3H207.9z"/>
				</g>
			</g>
			<g>
				<g>
					<line class="st3" x1="209.5" y1="145.5" x2="209.5" y2="143.5"/>
				</g>
				<g>
					<rect x="209.3" y="143.5" class="st6" width="0.4" height="2"/>
				</g>
			</g>
			<g>
				<g>
					<circle class="st8" cx="209.5" cy="143.1" r="1"/>
				</g>
				<g>
					<path class="st6" d="M209.5,144.3c-0.6,0-1.2-0.5-1.2-1.2s0.5-1.2,1.2-1.2c0.6,0,1.2,0.5,1.2,1.2S210.2,144.3,209.5,144.3z
						 M209.5,142.4c-0.4,0-0.7,0.3-0.7,0.7s0.3,0.7,0.7,0.7c0.4,0,0.7-0.3,0.7-0.7S209.9,142.4,209.5,142.4z"/>
				</g>
			</g>
			<g>
				<g>
					<path class="st6" d="M207.6,149.4c-0.3,0-0.5,0.2-0.5,0.5c0,0.3,0.2,0.5,0.5,0.5c0.3,0,0.5-0.2,0.5-0.5
						C208,149.6,207.8,149.4,207.6,149.4z"/>
				</g>
				<g>
					<path class="st6" d="M211.5,149.4c-0.3,0-0.5,0.2-0.5,0.5c0,0.3,0.2,0.5,0.5,0.5c0.3,0,0.5-0.2,0.5-0.5
						C212,149.6,211.7,149.4,211.5,149.4z"/>
				</g>
			</g>
			<g>
				<path class="st6" d="M209.5,152c-0.5,0-0.9-0.3-1.1-0.7c0-0.1,0-0.2,0.1-0.3c0.1,0,0.2,0,0.3,0.1c0.1,0.3,0.4,0.4,0.7,0.4
					c0.3,0,0.6-0.2,0.7-0.4c0-0.1,0.2-0.1,0.3-0.1c0.1,0,0.1,0.2,0.1,0.3C210.4,151.7,210,152,209.5,152z"/>
			</g>
			<g>
				<g>
					<path class="st3" d="M211,155.6h-2.9c-1.3,0-2.4,1.1-2.4,2.4v0.1c1.1,0.8,2.4,1.3,3.9,1.3c1.5,0,2.8-0.5,3.9-1.3V158
						C213.4,156.6,212.3,155.6,211,155.6z"/>
				</g>
				<g>
					<path class="st6" d="M209.5,159.6c-1.5,0-2.8-0.5-4-1.3l-0.1-0.1V158c0-1.4,1.2-2.6,2.6-2.6h2.9c1.4,0,2.6,1.2,2.6,2.6v0.2
						l-0.1,0.1C212.4,159.1,211,159.6,209.5,159.6z M205.9,158c1.1,0.8,2.3,1.2,3.7,1.2c1.3,0,2.6-0.4,3.7-1.2v0
						c0-1.2-1-2.2-2.2-2.2h-2.9C206.8,155.8,205.9,156.7,205.9,158L205.9,158z"/>
				</g>
			</g>
		</g>
	</g>
	<g>
		<g>
			<g class="st1">
				<g>
					<g>
						<g>
							<path class="st3" d="M53.1,258.4c-0.1,0-0.2,0-0.2-0.1c-0.2-0.1-0.2-0.3-0.3-0.4l0-15.7c0-0.2,0.1-0.3,0.2-0.4l13.7-7.9
								c0.2-0.1,0.3-0.1,0.5,0c0.2,0.1,0.2,0.3,0.3,0.4l0,15.7c0,0.2-0.1,0.3-0.2,0.4l-13.7,7.9C53.3,258.4,53.2,258.4,53.1,258.4z
								 M53.5,242.5l0,14.5l12.7-7.3l0-14.5L53.5,242.5z"/>
						</g>
					</g>
				</g>
				<g>
					<g>
						<g>
							<path class="st3" d="M53.1,258.4c-0.1,0-0.2,0-0.3-0.1l-13.5-7.9c-0.2-0.1-0.2-0.3-0.2-0.4l0-15.7c0-0.2,0.1-0.3,0.2-0.4
								c0.2-0.1,0.3-0.1,0.5,0l13.5,7.9c0.2,0.1,0.2,0.3,0.2,0.4l0,15.7c0,0.2-0.1,0.3-0.2,0.4C53.3,258.4,53.2,258.4,53.1,258.4z
								 M40.1,249.7l12.5,7.3l0-14.5L40,235.2L40.1,249.7z"/>
						</g>
					</g>
				</g>
				<g>
					<g>
						<g>
							<path class="st3" d="M53,242.7c-0.1,0-0.2,0-0.3-0.1l-13.5-7.9c-0.2-0.1-0.2-0.3-0.2-0.4c0-0.2,0.1-0.3,0.2-0.4l13.7-7.9
								c0.2-0.1,0.3-0.1,0.5,0l13.5,7.9c0.2,0.1,0.2,0.3,0.2,0.4c0,0.2-0.1,0.3-0.2,0.4l-13.7,7.9C53.2,242.7,53.1,242.7,53,242.7z
								 M40.5,234.3l12.5,7.3l12.7-7.3L53.2,227L40.5,234.3z"/>
						</g>
					</g>
				</g>
			</g>
		</g>
		<g class="st4">
			<g class="st1">
				<g>
					<g>
						<g>
							<polygon class="st3" points="66.7,234.3 66.8,250 53.1,257.9 53,242.2 							"/>
						</g>
					</g>
				</g>
				<g>
					<g>
						<g>
							<polygon class="st3" points="53.1,257.9 39.6,250 39.5,234.3 53,242.2 							"/>
						</g>
					</g>
				</g>
				<g>
					<g>
						<g>
							<polygon class="st3" points="53,242.2 39.5,234.3 53.2,226.4 66.7,234.3 							"/>
						</g>
					</g>
				</g>
			</g>
		</g>
	</g>
	<g class="st14">
		<g>
			<circle class="st3" cx="53.1" cy="243" r="9.1"/>
		</g>
		<g>
			<g>
				<g>
					<path class="st15" d="M59.5,243.7c0,2.1-1,4-2.6,5.1c-1.1,0.8-6.7,0.8-7.8-0.1c-1.5-1.2-2.5-3-2.5-5.1c0-3.6,2.9-6.4,6.4-6.4
						C56.7,237.3,59.5,240.1,59.5,243.7z"/>
				</g>
				<g>
					<path class="st6" d="M53.2,249.6c-1.8,0-3.6-0.2-4.2-0.7c-1.6-1.3-2.6-3.2-2.6-5.3c0-3.7,3-6.6,6.6-6.6c3.7,0,6.6,3,6.6,6.6
						c0,2.1-1,4-2.6,5.3C56.5,249.4,54.9,249.6,53.2,249.6z M53.1,237.5c-3.4,0-6.2,2.8-6.2,6.2c0,1.9,0.9,3.7,2.4,4.9
						c0.5,0.4,2,0.6,3.8,0.6c1.8,0,3.3-0.2,3.8-0.6c1.6-1.2,2.5-3,2.5-5C59.3,240.3,56.5,237.5,53.1,237.5z"/>
				</g>
			</g>
			<g>
				<g>
					<g>
						<path class="st3" d="M57.3,243.1h1c0.9,0,1.7-0.7,1.7-1.7V241c0-0.9-0.7-1.7-1.7-1.7h-1V243.1z"/>
					</g>
					<g>
						<path class="st6" d="M58.3,243.3h-1.2v-4.2h1.2c1,0,1.9,0.8,1.9,1.9v0.4C60.2,242.5,59.3,243.3,58.3,243.3z M57.6,242.9h0.8
							c0.8,0,1.4-0.6,1.4-1.4V241c0-0.8-0.6-1.4-1.4-1.4h-0.8V242.9z"/>
					</g>
				</g>
				<g>
					<g>
						<path class="st3" d="M48.9,243.1h-1c-0.9,0-1.7-0.7-1.7-1.7V241c0-0.9,0.7-1.7,1.7-1.7h1V243.1z"/>
					</g>
					<g>
						<path class="st6" d="M49.1,243.3h-1.2c-1,0-1.9-0.8-1.9-1.9V241c0-1,0.8-1.9,1.9-1.9h1.2V243.3z M47.9,239.6
							c-0.8,0-1.4,0.6-1.4,1.4v0.4c0,0.8,0.6,1.4,1.4,1.4h0.8v-3.3H47.9z"/>
					</g>
				</g>
			</g>
			<g>
				<g>
					<path class="st3" d="M54.7,245.4h-3.1c-2.1,0-3.9-1.7-3.9-3.9v-1.6c0-2.1,1.7-3.9,3.9-3.9h3.1c2.1,0,3.9,1.7,3.9,3.9v1.6
						C58.5,243.7,56.8,245.4,54.7,245.4z"/>
				</g>
				<g>
					<path class="st6" d="M54.7,245.6h-3.1c-2.3,0-4.1-1.8-4.1-4.1v-1.6c0-2.3,1.8-4.1,4.1-4.1h3.1c2.3,0,4.1,1.8,4.1,4.1v1.6
						C58.8,243.8,56.9,245.6,54.7,245.6z M51.6,236.2c-2,0-3.7,1.6-3.7,3.7v1.6c0,2,1.6,3.7,3.7,3.7h3.1c2,0,3.7-1.6,3.7-3.7v-1.6
						c0-2-1.6-3.7-3.7-3.7H51.6z"/>
				</g>
			</g>
			<g>
				<g>
					<path class="st7" d="M51.5,244.1c-1.4,0-2.5-1.1-2.5-2.5v-1c0-1.4,1.1-2.5,2.5-2.5h3.3c1.4,0,2.5,1.1,2.5,2.5v1
						c0,1.4-1.1,2.5-2.5,2.5H51.5z"/>
				</g>
				<g>
					<path class="st6" d="M54.8,244.3h-3.3c-1.5,0-2.7-1.2-2.7-2.7v-1c0-1.5,1.2-2.7,2.7-2.7h3.3c1.5,0,2.7,1.2,2.7,2.7v1
						C57.5,243.1,56.3,244.3,54.8,244.3z M51.5,238.3c-1.3,0-2.3,1-2.3,2.3v1c0,1.3,1,2.3,2.3,2.3h3.3c1.3,0,2.3-1,2.3-2.3v-1
						c0-1.3-1-2.3-2.3-2.3H51.5z"/>
				</g>
			</g>
			<g>
				<g>
					<line class="st3" x1="53.1" y1="236.2" x2="53.1" y2="234.2"/>
				</g>
				<g>
					<rect x="52.9" y="234.2" class="st6" width="0.4" height="2"/>
				</g>
			</g>
			<g>
				<g>
					<circle class="st10" cx="53.1" cy="233.8" r="1"/>
				</g>
				<g>
					<path class="st6" d="M53.1,235c-0.6,0-1.2-0.5-1.2-1.2s0.5-1.2,1.2-1.2s1.2,0.5,1.2,1.2S53.8,235,53.1,235z M53.1,233.1
						c-0.4,0-0.7,0.3-0.7,0.7s0.3,0.7,0.7,0.7c0.4,0,0.7-0.3,0.7-0.7S53.5,233.1,53.1,233.1z"/>
				</g>
			</g>
			<g>
				<g>
					<path class="st6" d="M51.1,240.2c-0.3,0-0.5,0.2-0.5,0.5c0,0.3,0.2,0.5,0.5,0.5c0.3,0,0.5-0.2,0.5-0.5
						C51.6,240.4,51.4,240.2,51.1,240.2z"/>
				</g>
				<g>
					<path class="st6" d="M55.1,240.2c-0.3,0-0.5,0.2-0.5,0.5c0,0.3,0.2,0.5,0.5,0.5c0.3,0,0.5-0.2,0.5-0.5
						C55.5,240.4,55.3,240.2,55.1,240.2z"/>
				</g>
			</g>
			<g>
				<path class="st6" d="M53.1,242.7c-0.5,0-0.9-0.3-1.1-0.7c0-0.1,0-0.2,0.1-0.3c0.1,0,0.2,0,0.3,0.1c0.1,0.3,0.4,0.4,0.7,0.4
					s0.6-0.2,0.7-0.4c0-0.1,0.2-0.1,0.3-0.1c0.1,0,0.1,0.2,0.1,0.3C54,242.5,53.6,242.7,53.1,242.7z"/>
			</g>
			<g>
				<g>
					<path class="st3" d="M54.6,246.3h-2.9c-1.3,0-2.4,1.1-2.4,2.4v0.1c1.1,0.8,2.4,1.3,3.9,1.3s2.8-0.5,3.9-1.3v-0.1
						C57,247.4,55.9,246.3,54.6,246.3z"/>
				</g>
				<g>
					<path class="st6" d="M53.1,250.3c-1.5,0-2.8-0.5-4-1.3l-0.1-0.1v-0.2c0-1.4,1.2-2.6,2.6-2.6h2.9c1.4,0,2.6,1.2,2.6,2.6v0.2
						l-0.1,0.1C55.9,249.9,54.6,250.3,53.1,250.3z M49.4,248.7c1.1,0.8,2.3,1.2,3.7,1.2c1.3,0,2.6-0.4,3.7-1.2v0
						c0-1.2-1-2.2-2.2-2.2h-2.9C50.4,246.5,49.4,247.5,49.4,248.7L49.4,248.7z"/>
				</g>
			</g>
		</g>
	</g>
	<g>
		<g>
			<g class="st1">
				<g>
					<g>
						<g>
							<path class="st3" d="M157.1,318.5c-0.1,0-0.2,0-0.2-0.1c-0.2-0.1-0.2-0.3-0.3-0.4l0-15.7c0-0.2,0.1-0.3,0.2-0.4l13.7-7.9
								c0.2-0.1,0.3-0.1,0.5,0c0.2,0.1,0.2,0.3,0.3,0.4l0,15.7c0,0.2-0.1,0.3-0.2,0.4l-13.7,7.9
								C157.2,318.5,157.1,318.5,157.1,318.5z M157.5,302.6l0,14.5l12.7-7.3l0-14.5L157.5,302.6z"/>
						</g>
					</g>
				</g>
				<g>
					<g>
						<g>
							<path class="st3" d="M157.1,318.5c-0.1,0-0.2,0-0.3-0.1l-13.5-7.9c-0.2-0.1-0.2-0.3-0.2-0.4l0-15.7c0-0.2,0.1-0.3,0.2-0.4
								c0.2-0.1,0.3-0.1,0.5,0l13.5,7.9c0.2,0.1,0.2,0.3,0.2,0.4l0,15.7c0,0.2-0.1,0.3-0.2,0.4C157.2,318.5,157.1,318.5,157.1,318.5
								z M144,309.9l12.5,7.3l0-14.5l-12.5-7.3L144,309.9z"/>
						</g>
					</g>
				</g>
				<g>
					<g>
						<g>
							<path class="st3" d="M157,302.8c-0.1,0-0.2,0-0.3-0.1l-13.5-7.9c-0.2-0.1-0.2-0.3-0.2-0.4c0-0.2,0.1-0.3,0.2-0.4l13.7-7.9
								c0.2-0.1,0.3-0.1,0.5,0l13.5,7.9c0.2,0.1,0.2,0.3,0.2,0.4c0,0.2-0.1,0.3-0.2,0.4l-13.7,7.9
								C157.2,302.8,157.1,302.8,157,302.8z M144.5,294.5l12.5,7.3l12.7-7.3l-12.5-7.3L144.5,294.5z"/>
						</g>
					</g>
				</g>
			</g>
		</g>
		<g class="st4">
			<g class="st1">
				<g>
					<g>
						<g>
							<polygon class="st3" points="170.7,294.4 170.7,310.1 157.1,318 157,302.3 							"/>
						</g>
					</g>
				</g>
				<g>
					<g>
						<g>
							<polygon class="st3" points="157.1,318 143.5,310.2 143.5,294.5 157,302.3 							"/>
						</g>
					</g>
				</g>
				<g>
					<g>
						<g>
							<polygon class="st3" points="157,302.3 143.5,294.5 157.1,286.6 170.7,294.4 							"/>
						</g>
					</g>
				</g>
			</g>
		</g>
	</g>
	<g class="st16">
		<g>
			<circle class="st3" cx="157.1" cy="303.1" r="9.1"/>
		</g>
		<g>
			<g>
				<g>
					<path class="st17" d="M163.5,303.8c0,2.1-1,4-2.6,5.1c-1.1,0.8-6.7,0.8-7.8-0.1c-1.5-1.2-2.5-3-2.5-5.1c0-3.6,2.9-6.4,6.4-6.4
						C160.6,297.4,163.5,300.3,163.5,303.8z"/>
				</g>
				<g>
					<path class="st6" d="M157.2,309.8c-1.8,0-3.6-0.2-4.2-0.7c-1.6-1.3-2.6-3.2-2.6-5.3c0-3.7,3-6.6,6.6-6.6c3.7,0,6.6,3,6.6,6.6
						c0,2.1-1,4-2.6,5.3C160.5,309.6,158.9,309.8,157.2,309.8z M157.1,297.6c-3.4,0-6.2,2.8-6.2,6.2c0,1.9,0.9,3.7,2.4,4.9
						c0.5,0.4,2,0.6,3.8,0.6c1.8,0,3.3-0.2,3.8-0.6c1.6-1.2,2.5-3,2.5-5C163.3,300.4,160.5,297.6,157.1,297.6z"/>
				</g>
			</g>
			<g>
				<g>
					<g>
						<path class="st3" d="M161.3,303.2h1c0.9,0,1.7-0.7,1.7-1.7v-0.4c0-0.9-0.7-1.7-1.7-1.7h-1V303.2z"/>
					</g>
					<g>
						<path class="st6" d="M162.3,303.5h-1.2v-4.2h1.2c1,0,1.9,0.8,1.9,1.9v0.4C164.1,302.6,163.3,303.5,162.3,303.5z M161.5,303
							h0.8c0.8,0,1.4-0.6,1.4-1.4v-0.4c0-0.8-0.6-1.4-1.4-1.4h-0.8V303z"/>
					</g>
				</g>
				<g>
					<g>
						<path class="st3" d="M152.8,303.2h-1c-0.9,0-1.7-0.7-1.7-1.7v-0.4c0-0.9,0.7-1.7,1.7-1.7h1V303.2z"/>
					</g>
					<g>
						<path class="st6" d="M153.1,303.5h-1.2c-1,0-1.9-0.8-1.9-1.9v-0.4c0-1,0.8-1.9,1.9-1.9h1.2V303.5z M151.9,299.7
							c-0.8,0-1.4,0.6-1.4,1.4v0.4c0,0.8,0.6,1.4,1.4,1.4h0.8v-3.3H151.9z"/>
					</g>
				</g>
			</g>
			<g>
				<g>
					<path class="st3" d="M158.6,305.5h-3.1c-2.1,0-3.9-1.7-3.9-3.9V300c0-2.1,1.7-3.9,3.9-3.9h3.1c2.1,0,3.9,1.7,3.9,3.9v1.6
						C162.5,303.8,160.8,305.5,158.6,305.5z"/>
				</g>
				<g>
					<path class="st6" d="M158.6,305.7h-3.1c-2.3,0-4.1-1.8-4.1-4.1V300c0-2.3,1.8-4.1,4.1-4.1h3.1c2.3,0,4.1,1.8,4.1,4.1v1.6
						C162.7,303.9,160.9,305.7,158.6,305.7z M155.5,296.4c-2,0-3.7,1.6-3.7,3.7v1.6c0,2,1.6,3.7,3.7,3.7h3.1c2,0,3.7-1.6,3.7-3.7
						V300c0-2-1.6-3.7-3.7-3.7H155.5z"/>
				</g>
			</g>
			<g>
				<g>
					<path class="st7" d="M155.4,304.2c-1.4,0-2.5-1.1-2.5-2.5v-1c0-1.4,1.1-2.5,2.5-2.5h3.3c1.4,0,2.5,1.1,2.5,2.5v1
						c0,1.4-1.1,2.5-2.5,2.5H155.4z"/>
				</g>
				<g>
					<path class="st6" d="M158.7,304.4h-3.3c-1.5,0-2.7-1.2-2.7-2.7v-1c0-1.5,1.2-2.7,2.7-2.7h3.3c1.5,0,2.7,1.2,2.7,2.7v1
						C161.4,303.2,160.2,304.4,158.7,304.4z M155.4,298.4c-1.3,0-2.3,1-2.3,2.3v1c0,1.3,1,2.3,2.3,2.3h3.3c1.3,0,2.3-1,2.3-2.3v-1
						c0-1.3-1-2.3-2.3-2.3H155.4z"/>
				</g>
			</g>
			<g>
				<g>
					<line class="st3" x1="157.1" y1="296.3" x2="157.1" y2="294.4"/>
				</g>
				<g>
					<rect x="156.9" y="294.4" class="st6" width="0.4" height="2"/>
				</g>
			</g>
			<g>
				<g>
					<circle class="st8" cx="157.1" cy="294" r="1"/>
				</g>
				<g>
					<path class="st6" d="M157.1,295.1c-0.6,0-1.2-0.5-1.2-1.2s0.5-1.2,1.2-1.2c0.6,0,1.2,0.5,1.2,1.2S157.7,295.1,157.1,295.1z
						 M157.1,293.2c-0.4,0-0.7,0.3-0.7,0.7c0,0.4,0.3,0.7,0.7,0.7c0.4,0,0.7-0.3,0.7-0.7C157.8,293.6,157.5,293.2,157.1,293.2z"/>
				</g>
			</g>
			<g>
				<g>
					<path class="st6" d="M155.1,300.3c-0.3,0-0.5,0.2-0.5,0.5c0,0.3,0.2,0.5,0.5,0.5c0.3,0,0.5-0.2,0.5-0.5
						C155.6,300.5,155.4,300.3,155.1,300.3z"/>
				</g>
				<g>
					<path class="st6" d="M159.1,300.3c-0.3,0-0.5,0.2-0.5,0.5c0,0.3,0.2,0.5,0.5,0.5c0.3,0,0.5-0.2,0.5-0.5
						C159.5,300.5,159.3,300.3,159.1,300.3z"/>
				</g>
			</g>
			<g>
				<path class="st6" d="M157.1,302.9c-0.5,0-0.9-0.3-1.1-0.7c0-0.1,0-0.2,0.1-0.3c0.1,0,0.2,0,0.3,0.1c0.1,0.3,0.4,0.4,0.7,0.4
					c0.3,0,0.6-0.2,0.7-0.4c0-0.1,0.2-0.1,0.3-0.1c0.1,0,0.1,0.2,0.1,0.3C158,302.6,157.6,302.9,157.1,302.9z"/>
			</g>
			<g>
				<g>
					<path class="st3" d="M158.5,306.4h-2.9c-1.3,0-2.4,1.1-2.4,2.4v0.1c1.1,0.8,2.4,1.3,3.9,1.3c1.5,0,2.8-0.5,3.9-1.3v-0.1
						C160.9,307.5,159.9,306.4,158.5,306.4z"/>
				</g>
				<g>
					<path class="st6" d="M157.1,310.5c-1.5,0-2.8-0.5-4-1.3l-0.1-0.1v-0.2c0-1.4,1.2-2.6,2.6-2.6h2.9c1.4,0,2.6,1.2,2.6,2.6v0.2
						l-0.1,0.1C159.9,310,158.5,310.5,157.1,310.5z M153.4,308.9c1.1,0.8,2.3,1.2,3.7,1.2c1.3,0,2.6-0.4,3.7-1.2v0
						c0-1.2-1-2.2-2.2-2.2h-2.9C154.4,306.6,153.4,307.6,153.4,308.9L153.4,308.9z"/>
				</g>
			</g>
		</g>
	</g>
	<g>
		<g>
			<circle class="st3" cx="236.9" cy="153.5" r="1.2"/>
		</g>
		<g>
			<circle class="st3" cx="242" cy="153.5" r="1.2"/>
		</g>
		<g>
			<circle class="st3" cx="247.1" cy="153.5" r="1.2"/>
		</g>
	</g>
	<g>
		<g>
			<circle class="st3" cx="160.2" cy="213.3" r="2"/>
		</g>
		<g>
			<circle class="st3" cx="168.5" cy="213.3" r="2"/>
		</g>
		<g>
			<circle class="st3" cx="176.8" cy="213.3" r="2"/>
		</g>
	</g>
	<g>
		<g>
			<circle class="st3" cx="296.6" cy="303.5" r="1.2"/>
		</g>
		<g>
			<circle class="st3" cx="301.7" cy="303.5" r="1.2"/>
		</g>
		<g>
			<circle class="st3" cx="306.8" cy="303.5" r="1.2"/>
		</g>
	</g>
	<g>
		<g>
			<circle class="st3" cx="22.3" cy="264.6" r="1.2"/>
		</g>
		<g>
			<circle class="st3" cx="27.4" cy="264.6" r="1.2"/>
		</g>
		<g>
			<circle class="st3" cx="32.5" cy="264.6" r="1.2"/>
		</g>
	</g>
	<g>
		<g>
			<circle class="st3" cx="71.2" cy="84" r="2.1"/>
		</g>
		<g>
			<circle class="st3" cx="80.1" cy="84" r="2.1"/>
		</g>
		<g>
			<circle class="st3" cx="88.9" cy="84" r="2.1"/>
		</g>
	</g>
	<g>
		<polygon class="st3" points="292.8,225.1 292.3,224.2 332.3,201.1 332.3,141 333.3,141 333.3,201.6 		"/>
	</g>
	<g>
		<g>
			<g class="st1">
				<g>
					<g>
						<g>
							<path class="st3" d="M157.3,77.2c-0.1,0-0.2,0-0.2-0.1c-0.2-0.1-0.2-0.3-0.3-0.4l0-15.7c0-0.2,0.1-0.3,0.2-0.4l13.7-7.9
								c0.2-0.1,0.3-0.1,0.5,0c0.2,0.1,0.2,0.3,0.3,0.4l0,15.7c0,0.2-0.1,0.3-0.2,0.4l-13.7,7.9C157.5,77.2,157.4,77.2,157.3,77.2z
								 M157.8,61.3l0,14.5l12.7-7.3l0-14.5L157.8,61.3z"/>
						</g>
					</g>
				</g>
				<g>
					<g>
						<g>
							<path class="st3" d="M157.3,77.2c-0.1,0-0.2,0-0.3-0.1l-13.5-7.9c-0.2-0.1-0.2-0.3-0.2-0.4l0-15.7c0-0.2,0.1-0.3,0.2-0.4
								c0.2-0.1,0.3-0.1,0.5,0l13.5,7.9c0.2,0.1,0.2,0.3,0.2,0.4l0,15.7c0,0.2-0.1,0.3-0.2,0.4C157.5,77.2,157.4,77.2,157.3,77.2z
								 M144.3,68.5l12.5,7.3l0-14.5L144.3,54L144.3,68.5z"/>
						</g>
					</g>
				</g>
				<g>
					<g>
						<g>
							<path class="st3" d="M157.3,61.5c-0.1,0-0.2,0-0.3-0.1l-13.5-7.9c-0.2-0.1-0.2-0.3-0.2-0.4c0-0.2,0.1-0.3,0.2-0.4l13.7-7.9
								c0.2-0.1,0.3-0.1,0.5,0l13.5,7.9c0.2,0.1,0.2,0.3,0.2,0.4c0,0.2-0.1,0.3-0.2,0.4l-13.7,7.9C157.5,61.5,157.4,61.5,157.3,61.5
								z M144.8,53.1l12.5,7.3l12.7-7.3l-12.5-7.3L144.8,53.1z"/>
						</g>
					</g>
				</g>
			</g>
		</g>
		<g class="st4">
			<g class="st1">
				<g>
					<g>
						<g>
							<polygon class="st3" points="171,53.1 171,68.8 157.3,76.7 157.3,61 							"/>
						</g>
					</g>
				</g>
				<g>
					<g>
						<g>
							<polygon class="st3" points="157.3,76.7 143.8,68.8 143.8,53.1 157.3,61 							"/>
						</g>
					</g>
				</g>
				<g>
					<g>
						<g>
							<polygon class="st3" points="157.3,61 143.8,53.1 157.4,45.2 171,53.1 							"/>
						</g>
					</g>
				</g>
			</g>
		</g>
	</g>
	<g>
		<polygon class="st3" points="136.8,134.4 136.3,133.5 156.9,121.4 156.9,76.6 157.9,76.6 157.9,122 		"/>
	</g>
	<g>
		
			<rect x="321.7" y="242.8" transform="matrix(0.5056 -0.8628 0.8628 0.5056 -79.8609 415.0672)" class="st3" width="1" height="68.8"/>
	</g>
	<g>
		<g>
			<g class="st1">
				<g>
					<g>
						<g>
							<path class="st3" d="M157.8,190.6c-0.1,0-0.2,0-0.2-0.1c-0.2-0.1-0.2-0.3-0.3-0.4l0-8.3c0-0.2,0.1-0.3,0.2-0.4l7.3-4.2
								c0.2-0.1,0.3-0.1,0.5,0c0.2,0.1,0.2,0.3,0.3,0.4l0,8.3c0,0.2-0.1,0.3-0.2,0.4l-7.3,4.2C157.9,190.6,157.8,190.6,157.8,190.6z
								 M158.2,182l0,7.2l6.3-3.6l0-7.2L158.2,182z"/>
						</g>
					</g>
				</g>
				<g>
					<g>
						<g>
							<path class="st3" d="M157.8,190.6c-0.1,0-0.2,0-0.3-0.1l-7.2-4.2c-0.2-0.1-0.2-0.3-0.2-0.4l0-8.3c0-0.2,0.1-0.3,0.2-0.4
								c0.2-0.1,0.3-0.1,0.5,0l7.2,4.2c0.2,0.1,0.2,0.3,0.2,0.4l0,8.3c0,0.2-0.1,0.3-0.2,0.4C157.9,190.6,157.8,190.6,157.8,190.6z
								 M151.1,185.6l6.2,3.6l0-7.2l-6.2-3.6L151.1,185.6z"/>
						</g>
					</g>
				</g>
				<g>
					<g>
						<g>
							<path class="st3" d="M157.7,182.2c-0.1,0-0.2,0-0.3-0.1l-7.2-4.2c-0.2-0.1-0.2-0.3-0.2-0.4c0-0.2,0.1-0.3,0.2-0.4l7.3-4.2
								c0.2-0.1,0.3-0.1,0.5,0l7.2,4.2c0.2,0.1,0.2,0.3,0.2,0.4c0,0.2-0.1,0.3-0.2,0.4l-7.3,4.2
								C157.9,182.2,157.8,182.2,157.7,182.2z M151.5,177.6l6.2,3.6l6.3-3.6l-6.2-3.6L151.5,177.6z"/>
						</g>
					</g>
				</g>
			</g>
		</g>
		<g class="st4">
			<g class="st1">
				<g>
					<g>
						<g>
							<polygon class="st3" points="165,177.5 165,185.9 157.8,190.1 157.7,181.7 							"/>
						</g>
					</g>
				</g>
				<g>
					<g>
						<g>
							<polygon class="st3" points="157.8,190.1 150.6,185.9 150.5,177.6 157.7,181.7 							"/>
						</g>
					</g>
				</g>
				<g>
					<g>
						<g>
							<polygon class="st3" points="157.7,181.7 150.5,177.6 157.8,173.4 165,177.5 							"/>
						</g>
					</g>
				</g>
			</g>
		</g>
	</g>
	<g>
		<rect x="146.7" y="163.2" transform="matrix(0.5102 -0.86 0.86 0.5102 -78.8282 212.5443)" class="st3" width="1" height="24.5"/>
	</g>
	<g>
		<g>
			<g class="st1">
				<g>
					<g>
						<g>
							<path class="st3" d="M87.5,271.4c-0.1,0-0.2,0-0.2-0.1c-0.2-0.1-0.2-0.3-0.3-0.4l0-8.3c0-0.2,0.1-0.3,0.2-0.4l7.3-4.2
								c0.2-0.1,0.3-0.1,0.5,0c0.2,0.1,0.2,0.3,0.3,0.4l0,8.3c0,0.2-0.1,0.3-0.2,0.4l-7.3,4.2C87.6,271.4,87.6,271.4,87.5,271.4z
								 M87.9,262.9l0,7.2l6.3-3.6l0-7.2L87.9,262.9z"/>
						</g>
					</g>
				</g>
				<g>
					<g>
						<g>
							<path class="st3" d="M87.5,271.4c-0.1,0-0.2,0-0.3-0.1l-7.2-4.2c-0.2-0.1-0.2-0.3-0.2-0.4l0-8.3c0-0.2,0.1-0.3,0.2-0.4
								c0.2-0.1,0.3-0.1,0.5,0l7.2,4.2c0.2,0.1,0.2,0.3,0.2,0.4l0,8.3c0,0.2-0.1,0.3-0.2,0.4C87.6,271.4,87.6,271.4,87.5,271.4z
								 M80.8,266.4L87,270l0-7.2l-6.2-3.6L80.8,266.4z"/>
						</g>
					</g>
				</g>
				<g>
					<g>
						<g>
							<path class="st3" d="M87.4,263.1c-0.1,0-0.2,0-0.3-0.1l-7.2-4.2c-0.2-0.1-0.2-0.3-0.2-0.4c0-0.2,0.1-0.3,0.2-0.4l7.3-4.2
								c0.2-0.1,0.3-0.1,0.5,0l7.2,4.2c0.2,0.1,0.2,0.3,0.2,0.4c0,0.2-0.1,0.3-0.2,0.4l-7.3,4.2C87.6,263,87.5,263.1,87.4,263.1z
								 M81.2,258.4l6.2,3.6l6.3-3.6l-6.2-3.6L81.2,258.4z"/>
						</g>
					</g>
				</g>
			</g>
		</g>
		<g class="st4">
			<g class="st1">
				<g>
					<g>
						<g>
							<polygon class="st3" points="94.7,258.4 94.7,266.7 87.5,270.9 87.4,262.6 							"/>
						</g>
					</g>
				</g>
				<g>
					<g>
						<g>
							<polygon class="st3" points="87.5,270.9 80.3,266.7 80.3,258.4 87.4,262.6 							"/>
						</g>
					</g>
				</g>
				<g>
					<g>
						<g>
							<polygon class="st3" points="87.4,262.6 80.3,258.4 87.5,254.2 94.7,258.4 							"/>
						</g>
					</g>
				</g>
			</g>
		</g>
	</g>
	<g>
		<rect x="76.4" y="244.1" transform="matrix(0.5103 -0.86 0.86 0.5103 -182.7743 191.6765)" class="st3" width="1" height="24.5"/>
	</g>
	<g>
		<g>
			<g class="st1">
				<g>
					<g>
						<g>
							<path class="st3" d="M209,341.1c-0.1,0-0.2,0-0.2-0.1c-0.2-0.1-0.2-0.3-0.3-0.4l0-8.3c0-0.2,0.1-0.3,0.2-0.4l7.3-4.2
								c0.2-0.1,0.3-0.1,0.5,0c0.2,0.1,0.2,0.3,0.3,0.4l0,8.3c0,0.2-0.1,0.3-0.2,0.4l-7.3,4.2C209.1,341.1,209,341.1,209,341.1z
								 M209.4,332.5l0,7.2l6.3-3.6l0-7.2L209.4,332.5z"/>
						</g>
					</g>
				</g>
				<g>
					<g>
						<g>
							<path class="st3" d="M209,341.1c-0.1,0-0.2,0-0.3-0.1l-7.2-4.2c-0.2-0.1-0.2-0.3-0.2-0.4l0-8.3c0-0.2,0.1-0.3,0.2-0.4
								c0.2-0.1,0.3-0.1,0.5,0l7.2,4.2c0.2,0.1,0.2,0.3,0.2,0.4l0,8.3c0,0.2-0.1,0.3-0.2,0.4C209.1,341.1,209,341.1,209,341.1z
								 M202.3,336.1l6.2,3.6l0-7.2l-6.2-3.6L202.3,336.1z"/>
						</g>
					</g>
				</g>
				<g>
					<g>
						<g>
							<path class="st3" d="M208.9,332.8c-0.1,0-0.2,0-0.3-0.1l-7.2-4.2c-0.2-0.1-0.2-0.3-0.2-0.4c0-0.2,0.1-0.3,0.2-0.4l7.3-4.2
								c0.2-0.1,0.3-0.1,0.5,0l7.2,4.2c0.2,0.1,0.2,0.3,0.2,0.4c0,0.2-0.1,0.3-0.2,0.4l-7.3,4.2C209.1,332.7,209,332.8,208.9,332.8z
								 M202.7,328.1l6.2,3.6l6.3-3.6l-6.2-3.6L202.7,328.1z"/>
						</g>
					</g>
				</g>
			</g>
		</g>
		<g class="st4">
			<g class="st1">
				<g>
					<g>
						<g>
							<polygon class="st3" points="216.2,328.1 216.2,336.4 209,340.6 208.9,332.3 							"/>
						</g>
					</g>
				</g>
				<g>
					<g>
						<g>
							<polygon class="st3" points="209,340.6 201.8,336.4 201.8,328.1 208.9,332.3 							"/>
						</g>
					</g>
				</g>
				<g>
					<g>
						<g>
							<polygon class="st3" points="208.9,332.3 201.8,328.1 209,323.9 216.2,328.1 							"/>
						</g>
					</g>
				</g>
			</g>
		</g>
	</g>
	<g>
		
			<rect x="189.3" y="299.1" transform="matrix(0.5011 -0.8654 0.8654 0.5011 -183.2537 324.5167)" class="st3" width="1" height="44.2"/>
	</g>
	<g class="st14">
		<circle class="st18" cx="105.7" cy="332.7" r="23.8"/>
	</g>
	<g class="st19">
		<g>
			<path class="st3" d="M104.7,343.1c-1,0-1.8-0.8-1.8-1.8v-19.4c0-0.5-0.4-0.8-0.8-0.8s-0.8,0.4-0.8,0.8v15.4c0,1-0.8,1.8-1.8,1.8
				s-1.8-0.8-1.8-1.8V330c0-0.3,0.2-0.5,0.5-0.5s0.5,0.2,0.5,0.5v7.3c0,0.5,0.4,0.8,0.8,0.8s0.8-0.4,0.8-0.8v-15.4
				c0-1,0.8-1.8,1.8-1.8c1,0,1.8,0.8,1.8,1.8v19.4c0,0.5,0.4,0.8,0.8,0.8s0.8-0.4,0.8-0.8v-16.1c0-1,0.8-1.8,1.8-1.8
				s1.8,0.8,1.8,1.8v12.1c0,0.5,0.4,0.8,0.8,0.8s0.8-0.4,0.8-0.8v-5.1c0-0.3,0.2-0.5,0.5-0.5h9.2c0.3,0,0.5,0.2,0.5,0.5
				s-0.2,0.5-0.5,0.5h-8.7v4.6c0,1-0.8,1.8-1.8,1.8s-1.8-0.8-1.8-1.8v-12.1c0-0.5-0.4-0.8-0.8-0.8s-0.8,0.4-0.8,0.8v16.1
				C106.6,342.3,105.8,343.1,104.7,343.1z"/>
		</g>
		<g>
			<g>
				<defs>
					<line id="SVGID_1_" x1="98" y1="330" x2="72.9" y2="330"/>
				</defs>
				<clipPath id="SVGID_2_">
					<use xlink:href="#SVGID_1_"  style="overflow:visible;"/>
				</clipPath>
				<path class="st20" d="M72.9,330L72.9,330L72.9,330z"/>
				<path class="st20" d="M98,330L98,330L98,330z"/>
				<path class="st20" d="M98,330L98,330L98,330z"/>
			</g>
			<linearGradient id="SVGID_3_" gradientUnits="userSpaceOnUse" x1="72.4282" y1="330.0186" x2="98.5483" y2="330.0186">
				<stop  offset="0" style="stop-color:#FFFFFF;stop-opacity:0"/>
				<stop  offset="1" style="stop-color:#FFFFFF"/>
			</linearGradient>
			<path class="st21" d="M98,330.5H72.9c-0.3,0-0.5-0.2-0.5-0.5s0.2-0.5,0.5-0.5H98c0.3,0,0.5,0.2,0.5,0.5S98.3,330.5,98,330.5z"/>
		</g>
	</g>
	<g class="st14">
		<circle class="st18" cx="262" cy="61.1" r="30.6"/>
	</g>
	<g class="st19">
		<g>
			<path class="st3" d="M261.6,82.4c-1.7,0-3-1.4-3-3V42.8c0-1.1-0.9-2-2-2s-2,0.9-2,2V72c0,1.7-1.4,3-3,3s-3-1.4-3-3V58.2
				c0-0.3,0.2-0.5,0.5-0.5s0.5,0.2,0.5,0.5V72c0,1.1,0.9,2,2,2s2-0.9,2-2V42.8c0-1.7,1.4-3,3-3s3,1.4,3,3v36.6c0,1.1,0.9,2,2,2
				s2-0.9,2-2V49.1c0-1.7,1.4-3,3-3s3,1.4,3,3V72c0,1.1,0.9,2,2,2s2-0.9,2-2v-9.6c0-0.3,0.2-0.5,0.5-0.5h27.6c0.3,0,0.5,0.2,0.5,0.5
				s-0.2,0.5-0.5,0.5h-27.1V72c0,1.7-1.4,3-3,3s-3-1.4-3-3V49.1c0-1.1-0.9-2-2-2s-2,0.9-2,2v30.3C264.6,81.1,263.3,82.4,261.6,82.4z
				"/>
		</g>
		<g>
			<g>
				<defs>
					<line id="SVGID_4_" x1="249" y1="58.2" x2="201.5" y2="58.2"/>
				</defs>
				<clipPath id="SVGID_5_">
					<use xlink:href="#SVGID_4_"  style="overflow:visible;"/>
				</clipPath>
				<path class="st22" d="M201.5,58.2L201.5,58.2L201.5,58.2z"/>
				<path class="st22" d="M249,58.2L249,58.2L249,58.2z"/>
				<path class="st22" d="M249,58.2L249,58.2L249,58.2z"/>
			</g>
			<linearGradient id="SVGID_6_" gradientUnits="userSpaceOnUse" x1="201.0493" y1="58.1831" x2="249.4521" y2="58.1831">
				<stop  offset="0" style="stop-color:#FFFFFF;stop-opacity:0"/>
				<stop  offset="1" style="stop-color:#FFFFFF"/>
			</linearGradient>
			<path class="st23" d="M249,58.7h-47.4c-0.3,0-0.5-0.2-0.5-0.5s0.2-0.5,0.5-0.5H249c0.3,0,0.5,0.2,0.5,0.5S249.2,58.7,249,58.7z"
				/>
		</g>
	</g>
</g>
</svg>
